G04 #@! TF.GenerationSoftware,KiCad,Pcbnew,(5.0.0)*
G04 #@! TF.CreationDate,2018-09-23T22:59:08+02:00*
G04 #@! TF.ProjectId,RED_80,5245445F38302E6B696361645F706362,rev?*
G04 #@! TF.SameCoordinates,Original*
G04 #@! TF.FileFunction,Copper,L4,Bot,Signal*
G04 #@! TF.FilePolarity,Positive*
%FSLAX46Y46*%
G04 Gerber Fmt 4.6, Leading zero omitted, Abs format (unit mm)*
G04 Created by KiCad (PCBNEW (5.0.0)) date 09/23/18 22:59:08*
%MOMM*%
%LPD*%
G01*
G04 APERTURE LIST*
G04 #@! TA.AperFunction,ComponentPad*
%ADD10R,2.000000X4.000000*%
G04 #@! TD*
G04 #@! TA.AperFunction,ComponentPad*
%ADD11O,2.000000X3.300000*%
G04 #@! TD*
G04 #@! TA.AperFunction,ComponentPad*
%ADD12O,3.500000X2.000000*%
G04 #@! TD*
G04 #@! TA.AperFunction,ComponentPad*
%ADD13R,1.600000X1.600000*%
G04 #@! TD*
G04 #@! TA.AperFunction,ComponentPad*
%ADD14O,1.600000X1.600000*%
G04 #@! TD*
G04 #@! TA.AperFunction,WasherPad*
%ADD15C,3.000000*%
G04 #@! TD*
G04 #@! TA.AperFunction,ComponentPad*
%ADD16O,4.000000X1.600000*%
G04 #@! TD*
G04 #@! TA.AperFunction,ComponentPad*
%ADD17R,1.200000X1.200000*%
G04 #@! TD*
G04 #@! TA.AperFunction,ComponentPad*
%ADD18C,1.200000*%
G04 #@! TD*
G04 #@! TA.AperFunction,ComponentPad*
%ADD19C,1.400000*%
G04 #@! TD*
G04 #@! TA.AperFunction,ComponentPad*
%ADD20O,1.400000X1.400000*%
G04 #@! TD*
G04 #@! TA.AperFunction,ComponentPad*
%ADD21C,2.000000*%
G04 #@! TD*
G04 #@! TA.AperFunction,ComponentPad*
%ADD22C,1.600000*%
G04 #@! TD*
G04 #@! TA.AperFunction,ComponentPad*
%ADD23C,1.500000*%
G04 #@! TD*
G04 #@! TA.AperFunction,ComponentPad*
%ADD24C,1.800000*%
G04 #@! TD*
G04 #@! TA.AperFunction,ComponentPad*
%ADD25R,1.800000X1.800000*%
G04 #@! TD*
G04 #@! TA.AperFunction,ComponentPad*
%ADD26R,1.100000X1.100000*%
G04 #@! TD*
G04 #@! TA.AperFunction,ComponentPad*
%ADD27C,1.100000*%
G04 #@! TD*
G04 #@! TA.AperFunction,ComponentPad*
%ADD28O,1.100000X2.400000*%
G04 #@! TD*
G04 #@! TA.AperFunction,ComponentPad*
%ADD29R,2.000000X1.905000*%
G04 #@! TD*
G04 #@! TA.AperFunction,ComponentPad*
%ADD30O,2.000000X1.905000*%
G04 #@! TD*
G04 #@! TA.AperFunction,ViaPad*
%ADD31C,0.800000*%
G04 #@! TD*
G04 #@! TA.AperFunction,Conductor*
%ADD32C,0.250000*%
G04 #@! TD*
G04 APERTURE END LIST*
D10*
G04 #@! TO.P,J1,1*
G04 #@! TO.N,/DC_IN*
X113919000Y-56769000D03*
D11*
G04 #@! TO.P,J1,2*
G04 #@! TO.N,GND*
X107919000Y-56769000D03*
D12*
G04 #@! TO.P,J1,MP*
G04 #@! TO.N,N/C*
X106919000Y-52269000D03*
X106919000Y-61269000D03*
G04 #@! TD*
D13*
G04 #@! TO.P,U2,1*
G04 #@! TO.N,/A14*
X127000000Y-69850000D03*
D14*
G04 #@! TO.P,U2,15*
G04 #@! TO.N,/D3*
X142240000Y-102870000D03*
G04 #@! TO.P,U2,2*
G04 #@! TO.N,/A12*
X127000000Y-72390000D03*
G04 #@! TO.P,U2,16*
G04 #@! TO.N,/D4*
X142240000Y-100330000D03*
G04 #@! TO.P,U2,3*
G04 #@! TO.N,/A7*
X127000000Y-74930000D03*
G04 #@! TO.P,U2,17*
G04 #@! TO.N,/D5*
X142240000Y-97790000D03*
G04 #@! TO.P,U2,4*
G04 #@! TO.N,/A6*
X127000000Y-77470000D03*
G04 #@! TO.P,U2,18*
G04 #@! TO.N,/D6*
X142240000Y-95250000D03*
G04 #@! TO.P,U2,5*
G04 #@! TO.N,/A5*
X127000000Y-80010000D03*
G04 #@! TO.P,U2,19*
G04 #@! TO.N,/D7*
X142240000Y-92710000D03*
G04 #@! TO.P,U2,6*
G04 #@! TO.N,/A4*
X127000000Y-82550000D03*
G04 #@! TO.P,U2,20*
G04 #@! TO.N,/RAM_ENABLE*
X142240000Y-90170000D03*
G04 #@! TO.P,U2,7*
G04 #@! TO.N,/A3*
X127000000Y-85090000D03*
G04 #@! TO.P,U2,21*
G04 #@! TO.N,/A10*
X142240000Y-87630000D03*
G04 #@! TO.P,U2,8*
G04 #@! TO.N,/A2*
X127000000Y-87630000D03*
G04 #@! TO.P,U2,22*
G04 #@! TO.N,SIG_MRD*
X142240000Y-85090000D03*
G04 #@! TO.P,U2,9*
G04 #@! TO.N,/A1*
X127000000Y-90170000D03*
G04 #@! TO.P,U2,23*
G04 #@! TO.N,/A11*
X142240000Y-82550000D03*
G04 #@! TO.P,U2,10*
G04 #@! TO.N,/A0*
X127000000Y-92710000D03*
G04 #@! TO.P,U2,24*
G04 #@! TO.N,/A9*
X142240000Y-80010000D03*
G04 #@! TO.P,U2,11*
G04 #@! TO.N,/D0*
X127000000Y-95250000D03*
G04 #@! TO.P,U2,25*
G04 #@! TO.N,/A8*
X142240000Y-77470000D03*
G04 #@! TO.P,U2,12*
G04 #@! TO.N,/D1*
X127000000Y-97790000D03*
G04 #@! TO.P,U2,26*
G04 #@! TO.N,SYS_USER_SELECT*
X142240000Y-74930000D03*
G04 #@! TO.P,U2,13*
G04 #@! TO.N,/D2*
X127000000Y-100330000D03*
G04 #@! TO.P,U2,27*
G04 #@! TO.N,SIG_MWR*
X142240000Y-72390000D03*
G04 #@! TO.P,U2,14*
G04 #@! TO.N,GND*
X127000000Y-102870000D03*
G04 #@! TO.P,U2,28*
G04 #@! TO.N,MAIN_5V*
X142240000Y-69850000D03*
G04 #@! TD*
D13*
G04 #@! TO.P,U11,1*
G04 #@! TO.N,Net-(C7-Pad1)*
X154051000Y-145415000D03*
D14*
G04 #@! TO.P,U11,9*
G04 #@! TO.N,Net-(U11-Pad9)*
X171831000Y-137795000D03*
G04 #@! TO.P,U11,2*
G04 #@! TO.N,Net-(U11-Pad2)*
X156591000Y-145415000D03*
G04 #@! TO.P,U11,10*
G04 #@! TO.N,Net-(U11-Pad10)*
X169291000Y-137795000D03*
G04 #@! TO.P,U11,3*
G04 #@! TO.N,Net-(C7-Pad2)*
X159131000Y-145415000D03*
G04 #@! TO.P,U11,11*
G04 #@! TO.N,Net-(U10-Pad11)*
X166751000Y-137795000D03*
G04 #@! TO.P,U11,4*
G04 #@! TO.N,Net-(C8-Pad1)*
X161671000Y-145415000D03*
G04 #@! TO.P,U11,12*
G04 #@! TO.N,Net-(U10-Pad10)*
X164211000Y-137795000D03*
G04 #@! TO.P,U11,5*
G04 #@! TO.N,Net-(C8-Pad2)*
X164211000Y-145415000D03*
G04 #@! TO.P,U11,13*
G04 #@! TO.N,RS232_RX*
X161671000Y-137795000D03*
G04 #@! TO.P,U11,6*
G04 #@! TO.N,Net-(U11-Pad6)*
X166751000Y-145415000D03*
G04 #@! TO.P,U11,14*
G04 #@! TO.N,RS232_TX*
X159131000Y-137795000D03*
G04 #@! TO.P,U11,7*
G04 #@! TO.N,Net-(U11-Pad7)*
X169291000Y-145415000D03*
G04 #@! TO.P,U11,15*
G04 #@! TO.N,GND*
X156591000Y-137795000D03*
G04 #@! TO.P,U11,8*
G04 #@! TO.N,Net-(U11-Pad8)*
X171831000Y-145415000D03*
G04 #@! TO.P,U11,16*
G04 #@! TO.N,MAIN_5V*
X154051000Y-137795000D03*
G04 #@! TD*
G04 #@! TO.P,U6,28*
G04 #@! TO.N,Net-(U6-Pad28)*
X166370000Y-69850000D03*
G04 #@! TO.P,U6,14*
G04 #@! TO.N,GND*
X151130000Y-102870000D03*
G04 #@! TO.P,U6,27*
G04 #@! TO.N,MAIN_5V*
X166370000Y-72390000D03*
G04 #@! TO.P,U6,13*
G04 #@! TO.N,/D2*
X151130000Y-100330000D03*
G04 #@! TO.P,U6,26*
G04 #@! TO.N,Net-(U6-Pad26)*
X166370000Y-74930000D03*
G04 #@! TO.P,U6,12*
G04 #@! TO.N,/D1*
X151130000Y-97790000D03*
G04 #@! TO.P,U6,25*
G04 #@! TO.N,/A8*
X166370000Y-77470000D03*
G04 #@! TO.P,U6,11*
G04 #@! TO.N,/D0*
X151130000Y-95250000D03*
G04 #@! TO.P,U6,24*
G04 #@! TO.N,/A9*
X166370000Y-80010000D03*
G04 #@! TO.P,U6,10*
G04 #@! TO.N,/A0*
X151130000Y-92710000D03*
G04 #@! TO.P,U6,23*
G04 #@! TO.N,/A11*
X166370000Y-82550000D03*
G04 #@! TO.P,U6,9*
G04 #@! TO.N,/A1*
X151130000Y-90170000D03*
G04 #@! TO.P,U6,22*
G04 #@! TO.N,GND*
X166370000Y-85090000D03*
G04 #@! TO.P,U6,8*
G04 #@! TO.N,/A2*
X151130000Y-87630000D03*
G04 #@! TO.P,U6,21*
G04 #@! TO.N,/A10*
X166370000Y-87630000D03*
G04 #@! TO.P,U6,7*
G04 #@! TO.N,/A3*
X151130000Y-85090000D03*
G04 #@! TO.P,U6,20*
G04 #@! TO.N,SYS_ROM_ENABLE*
X166370000Y-90170000D03*
G04 #@! TO.P,U6,6*
G04 #@! TO.N,/A4*
X151130000Y-82550000D03*
G04 #@! TO.P,U6,19*
G04 #@! TO.N,/D7*
X166370000Y-92710000D03*
G04 #@! TO.P,U6,5*
G04 #@! TO.N,/A5*
X151130000Y-80010000D03*
G04 #@! TO.P,U6,18*
G04 #@! TO.N,/D6*
X166370000Y-95250000D03*
G04 #@! TO.P,U6,4*
G04 #@! TO.N,/A6*
X151130000Y-77470000D03*
G04 #@! TO.P,U6,17*
G04 #@! TO.N,/D5*
X166370000Y-97790000D03*
G04 #@! TO.P,U6,3*
G04 #@! TO.N,/A7*
X151130000Y-74930000D03*
G04 #@! TO.P,U6,16*
G04 #@! TO.N,/D4*
X166370000Y-100330000D03*
G04 #@! TO.P,U6,2*
G04 #@! TO.N,/A12*
X151130000Y-72390000D03*
G04 #@! TO.P,U6,15*
G04 #@! TO.N,/D3*
X166370000Y-102870000D03*
D13*
G04 #@! TO.P,U6,1*
G04 #@! TO.N,Net-(U6-Pad1)*
X151130000Y-69850000D03*
G04 #@! TD*
D15*
G04 #@! TO.P,U7,*
G04 #@! TO.N,*
X185420000Y-107950000D03*
X185420000Y-57150000D03*
D16*
G04 #@! TO.P,U7,14*
G04 #@! TO.N,GND*
X177800000Y-102870000D03*
G04 #@! TO.P,U7,15*
G04 #@! TO.N,/D3*
X193040000Y-102870000D03*
G04 #@! TO.P,U7,13*
G04 #@! TO.N,/D2*
X177800000Y-100330000D03*
G04 #@! TO.P,U7,16*
G04 #@! TO.N,/D4*
X193040000Y-100330000D03*
G04 #@! TO.P,U7,12*
G04 #@! TO.N,/D1*
X177800000Y-97790000D03*
G04 #@! TO.P,U7,17*
G04 #@! TO.N,/D5*
X193040000Y-97790000D03*
G04 #@! TO.P,U7,11*
G04 #@! TO.N,/D0*
X177800000Y-95250000D03*
G04 #@! TO.P,U7,18*
G04 #@! TO.N,/D6*
X193040000Y-95250000D03*
G04 #@! TO.P,U7,10*
G04 #@! TO.N,/A0*
X177800000Y-92710000D03*
G04 #@! TO.P,U7,19*
G04 #@! TO.N,/D7*
X193040000Y-92710000D03*
G04 #@! TO.P,U7,9*
G04 #@! TO.N,/A1*
X177800000Y-90170000D03*
G04 #@! TO.P,U7,20*
G04 #@! TO.N,USER_ROM_ENABLE*
X193040000Y-90170000D03*
G04 #@! TO.P,U7,8*
G04 #@! TO.N,/A2*
X177800000Y-87630000D03*
G04 #@! TO.P,U7,21*
G04 #@! TO.N,/A10*
X193040000Y-87630000D03*
G04 #@! TO.P,U7,7*
G04 #@! TO.N,/A3*
X177800000Y-85090000D03*
G04 #@! TO.P,U7,22*
G04 #@! TO.N,GND*
X193040000Y-85090000D03*
G04 #@! TO.P,U7,6*
G04 #@! TO.N,/A4*
X177800000Y-82550000D03*
G04 #@! TO.P,U7,23*
G04 #@! TO.N,/A11*
X193040000Y-82550000D03*
G04 #@! TO.P,U7,5*
G04 #@! TO.N,/A5*
X177800000Y-80010000D03*
G04 #@! TO.P,U7,24*
G04 #@! TO.N,/A9*
X193040000Y-80010000D03*
G04 #@! TO.P,U7,4*
G04 #@! TO.N,/A6*
X177800000Y-77470000D03*
G04 #@! TO.P,U7,25*
G04 #@! TO.N,/A8*
X193040000Y-77470000D03*
G04 #@! TO.P,U7,3*
G04 #@! TO.N,/A7*
X177800000Y-74930000D03*
G04 #@! TO.P,U7,26*
G04 #@! TO.N,Net-(U7-Pad26)*
X193040000Y-74930000D03*
G04 #@! TO.P,U7,2*
G04 #@! TO.N,/A12*
X177800000Y-72390000D03*
G04 #@! TO.P,U7,27*
G04 #@! TO.N,MAIN_5V*
X193040000Y-72390000D03*
G04 #@! TO.P,U7,1*
G04 #@! TO.N,Net-(U7-Pad1)*
X177800000Y-69850000D03*
G04 #@! TO.P,U7,28*
G04 #@! TO.N,Net-(U7-Pad28)*
X193040000Y-69850000D03*
G04 #@! TD*
D13*
G04 #@! TO.P,U1,1*
G04 #@! TO.N,/A11*
X105715001Y-70205001D03*
D14*
G04 #@! TO.P,U1,21*
G04 #@! TO.N,Net-(U1-Pad21)*
X120955001Y-118465001D03*
G04 #@! TO.P,U1,2*
G04 #@! TO.N,/A12*
X105715001Y-72745001D03*
G04 #@! TO.P,U1,22*
G04 #@! TO.N,Net-(U1-Pad22)*
X120955001Y-115925001D03*
G04 #@! TO.P,U1,3*
G04 #@! TO.N,SYS_USER_SELECT*
X105715001Y-75285001D03*
G04 #@! TO.P,U1,23*
G04 #@! TO.N,Net-(U1-Pad23)*
X120955001Y-113385001D03*
G04 #@! TO.P,U1,4*
G04 #@! TO.N,/A14*
X105715001Y-77825001D03*
G04 #@! TO.P,U1,24*
G04 #@! TO.N,Net-(U1-Pad24)*
X120955001Y-110845001D03*
G04 #@! TO.P,U1,5*
G04 #@! TO.N,/A15*
X105715001Y-80365001D03*
G04 #@! TO.P,U1,25*
G04 #@! TO.N,Net-(U1-Pad25)*
X120955001Y-108305001D03*
G04 #@! TO.P,U1,6*
G04 #@! TO.N,CPU_CLK*
X105715001Y-82905001D03*
G04 #@! TO.P,U1,26*
G04 #@! TO.N,SIG_RST*
X120955001Y-105765001D03*
G04 #@! TO.P,U1,7*
G04 #@! TO.N,/D4*
X105715001Y-85445001D03*
G04 #@! TO.P,U1,27*
G04 #@! TO.N,Net-(U1-Pad27)*
X120955001Y-103225001D03*
G04 #@! TO.P,U1,8*
G04 #@! TO.N,/D3*
X105715001Y-87985001D03*
G04 #@! TO.P,U1,28*
G04 #@! TO.N,Net-(U1-Pad28)*
X120955001Y-100685001D03*
G04 #@! TO.P,U1,9*
G04 #@! TO.N,/D5*
X105715001Y-90525001D03*
G04 #@! TO.P,U1,29*
G04 #@! TO.N,GND*
X120955001Y-98145001D03*
G04 #@! TO.P,U1,10*
G04 #@! TO.N,/D6*
X105715001Y-93065001D03*
G04 #@! TO.P,U1,30*
G04 #@! TO.N,/A0*
X120955001Y-95605001D03*
G04 #@! TO.P,U1,11*
G04 #@! TO.N,MAIN_5V*
X105715001Y-95605001D03*
G04 #@! TO.P,U1,31*
G04 #@! TO.N,/A1*
X120955001Y-93065001D03*
G04 #@! TO.P,U1,12*
G04 #@! TO.N,/D2*
X105715001Y-98145001D03*
G04 #@! TO.P,U1,32*
G04 #@! TO.N,/A2*
X120955001Y-90525001D03*
G04 #@! TO.P,U1,13*
G04 #@! TO.N,/D7*
X105715001Y-100685001D03*
G04 #@! TO.P,U1,33*
G04 #@! TO.N,/A3*
X120955001Y-87985001D03*
G04 #@! TO.P,U1,14*
G04 #@! TO.N,/D0*
X105715001Y-103225001D03*
G04 #@! TO.P,U1,34*
G04 #@! TO.N,/A4*
X120955001Y-85445001D03*
G04 #@! TO.P,U1,15*
G04 #@! TO.N,/D1*
X105715001Y-105765001D03*
G04 #@! TO.P,U1,35*
G04 #@! TO.N,/A5*
X120955001Y-82905001D03*
G04 #@! TO.P,U1,16*
G04 #@! TO.N,Net-(U1-Pad16)*
X105715001Y-108305001D03*
G04 #@! TO.P,U1,36*
G04 #@! TO.N,/A6*
X120955001Y-80365001D03*
G04 #@! TO.P,U1,17*
G04 #@! TO.N,Net-(U1-Pad17)*
X105715001Y-110845001D03*
G04 #@! TO.P,U1,37*
G04 #@! TO.N,/A7*
X120955001Y-77825001D03*
G04 #@! TO.P,U1,18*
G04 #@! TO.N,Net-(U1-Pad18)*
X105715001Y-113385001D03*
G04 #@! TO.P,U1,38*
G04 #@! TO.N,/A8*
X120955001Y-75285001D03*
G04 #@! TO.P,U1,19*
G04 #@! TO.N,Net-(U1-Pad19)*
X105715001Y-115925001D03*
G04 #@! TO.P,U1,39*
G04 #@! TO.N,/A9*
X120955001Y-72745001D03*
G04 #@! TO.P,U1,20*
G04 #@! TO.N,Net-(U1-Pad20)*
X105715001Y-118465001D03*
G04 #@! TO.P,U1,40*
G04 #@! TO.N,/A10*
X120955001Y-70205001D03*
G04 #@! TD*
D13*
G04 #@! TO.P,U5,1*
G04 #@! TO.N,Net-(C3-Pad1)*
X127000000Y-132080000D03*
D14*
G04 #@! TO.P,U5,8*
G04 #@! TO.N,N/C*
X142240000Y-124460000D03*
G04 #@! TO.P,U5,2*
G04 #@! TO.N,SIG_RST*
X129540000Y-132080000D03*
G04 #@! TO.P,U5,9*
G04 #@! TO.N,N/C*
X139700000Y-124460000D03*
G04 #@! TO.P,U5,3*
G04 #@! TO.N,Net-(C4-Pad1)*
X132080000Y-132080000D03*
G04 #@! TO.P,U5,10*
G04 #@! TO.N,N/C*
X137160000Y-124460000D03*
G04 #@! TO.P,U5,4*
G04 #@! TO.N,Net-(R2-Pad1)*
X134620000Y-132080000D03*
G04 #@! TO.P,U5,11*
G04 #@! TO.N,N/C*
X134620000Y-124460000D03*
G04 #@! TO.P,U5,5*
G04 #@! TO.N,Net-(R2-Pad1)*
X137160000Y-132080000D03*
G04 #@! TO.P,U5,12*
G04 #@! TO.N,N/C*
X132080000Y-124460000D03*
G04 #@! TO.P,U5,6*
G04 #@! TO.N,CPU_CLK*
X139700000Y-132080000D03*
G04 #@! TO.P,U5,13*
G04 #@! TO.N,N/C*
X129540000Y-124460000D03*
G04 #@! TO.P,U5,7*
G04 #@! TO.N,GND*
X142240000Y-132080000D03*
G04 #@! TO.P,U5,14*
G04 #@! TO.N,MAIN_5V*
X127000000Y-124460000D03*
G04 #@! TD*
D13*
G04 #@! TO.P,U4,1*
G04 #@! TO.N,Net-(U1-Pad19)*
X105410000Y-132080000D03*
D14*
G04 #@! TO.P,U4,8*
G04 #@! TO.N,/A15*
X120650000Y-124460000D03*
G04 #@! TO.P,U4,2*
G04 #@! TO.N,Net-(U1-Pad21)*
X107950000Y-132080000D03*
G04 #@! TO.P,U4,9*
G04 #@! TO.N,/A14*
X118110000Y-124460000D03*
G04 #@! TO.P,U4,3*
G04 #@! TO.N,SIG_MRD*
X110490000Y-132080000D03*
G04 #@! TO.P,U4,10*
G04 #@! TO.N,Net-(U4-Pad10)*
X115570000Y-124460000D03*
G04 #@! TO.P,U4,4*
G04 #@! TO.N,SIG_MWR*
X113030000Y-132080000D03*
G04 #@! TO.P,U4,11*
G04 #@! TO.N,ROM_BANK_ON*
X113030000Y-124460000D03*
G04 #@! TO.P,U4,5*
G04 #@! TO.N,Net-(U1-Pad22)*
X115570000Y-132080000D03*
G04 #@! TO.P,U4,12*
G04 #@! TO.N,SIG_MRD*
X110490000Y-124460000D03*
G04 #@! TO.P,U4,6*
G04 #@! TO.N,Net-(U1-Pad19)*
X118110000Y-132080000D03*
G04 #@! TO.P,U4,13*
G04 #@! TO.N,Net-(U4-Pad10)*
X107950000Y-124460000D03*
G04 #@! TO.P,U4,7*
G04 #@! TO.N,GND*
X120650000Y-132080000D03*
G04 #@! TO.P,U4,14*
G04 #@! TO.N,MAIN_5V*
X105410000Y-124460000D03*
G04 #@! TD*
D17*
G04 #@! TO.P,C1,1*
G04 #@! TO.N,MAIN_5V*
X119888000Y-65532000D03*
D18*
G04 #@! TO.P,C1,2*
G04 #@! TO.N,GND*
X121388000Y-65532000D03*
G04 #@! TD*
D17*
G04 #@! TO.P,C2,1*
G04 #@! TO.N,MAIN_5V*
X147320000Y-69850000D03*
D18*
G04 #@! TO.P,C2,2*
G04 #@! TO.N,GND*
X147320000Y-71350000D03*
G04 #@! TD*
D13*
G04 #@! TO.P,U3,1*
G04 #@! TO.N,/A15*
X128270000Y-115570000D03*
D14*
G04 #@! TO.P,U3,8*
G04 #@! TO.N,Net-(U13-Pad6)*
X143510000Y-107950000D03*
G04 #@! TO.P,U3,2*
G04 #@! TO.N,/A15*
X130810000Y-115570000D03*
G04 #@! TO.P,U3,9*
G04 #@! TO.N,Net-(U13-Pad6)*
X140970000Y-107950000D03*
G04 #@! TO.P,U3,3*
G04 #@! TO.N,/RAM_ENABLE*
X133350000Y-115570000D03*
G04 #@! TO.P,U3,10*
G04 #@! TO.N,Net-(U10-Pad12)*
X138430000Y-107950000D03*
G04 #@! TO.P,U3,4*
G04 #@! TO.N,/USER_ROM_SELECTED*
X135890000Y-115570000D03*
G04 #@! TO.P,U3,11*
G04 #@! TO.N,N/C*
X135890000Y-107950000D03*
G04 #@! TO.P,U3,5*
G04 #@! TO.N,SYS_USER_SELECT*
X138430000Y-115570000D03*
G04 #@! TO.P,U3,12*
G04 #@! TO.N,N/C*
X133350000Y-107950000D03*
G04 #@! TO.P,U3,6*
G04 #@! TO.N,SYS_USER_SELECT*
X140970000Y-115570000D03*
G04 #@! TO.P,U3,13*
G04 #@! TO.N,N/C*
X130810000Y-107950000D03*
G04 #@! TO.P,U3,7*
G04 #@! TO.N,GND*
X143510000Y-115570000D03*
G04 #@! TO.P,U3,14*
G04 #@! TO.N,MAIN_5V*
X128270000Y-107950000D03*
G04 #@! TD*
D17*
G04 #@! TO.P,C3,1*
G04 #@! TO.N,Net-(C3-Pad1)*
X120904000Y-137160000D03*
D18*
G04 #@! TO.P,C3,2*
G04 #@! TO.N,GND*
X120904000Y-138660000D03*
G04 #@! TD*
D19*
G04 #@! TO.P,R1,1*
G04 #@! TO.N,MAIN_5V*
X115824000Y-142240000D03*
D20*
G04 #@! TO.P,R1,2*
G04 #@! TO.N,Net-(C3-Pad1)*
X115824000Y-137160000D03*
G04 #@! TD*
D21*
G04 #@! TO.P,SW1,2*
G04 #@! TO.N,GND*
X106784000Y-141660000D03*
G04 #@! TO.P,SW1,1*
G04 #@! TO.N,Net-(C3-Pad1)*
X106784000Y-137160000D03*
G04 #@! TO.P,SW1,2*
G04 #@! TO.N,GND*
X113284000Y-141660000D03*
G04 #@! TO.P,SW1,1*
G04 #@! TO.N,Net-(C3-Pad1)*
X113284000Y-137160000D03*
G04 #@! TD*
D22*
G04 #@! TO.P,C4,1*
G04 #@! TO.N,Net-(C4-Pad1)*
X120650000Y-141605000D03*
G04 #@! TO.P,C4,2*
G04 #@! TO.N,GND*
X118150000Y-141605000D03*
G04 #@! TD*
G04 #@! TO.P,C5,2*
G04 #@! TO.N,GND*
X139660000Y-141605000D03*
G04 #@! TO.P,C5,1*
G04 #@! TO.N,Net-(C5-Pad1)*
X137160000Y-141605000D03*
G04 #@! TD*
D19*
G04 #@! TO.P,R2,1*
G04 #@! TO.N,Net-(R2-Pad1)*
X142240000Y-135890000D03*
D20*
G04 #@! TO.P,R2,2*
G04 #@! TO.N,Net-(C4-Pad1)*
X137160000Y-135890000D03*
G04 #@! TD*
G04 #@! TO.P,R3,2*
G04 #@! TO.N,Net-(C5-Pad1)*
X137160000Y-138430000D03*
D19*
G04 #@! TO.P,R3,1*
G04 #@! TO.N,Net-(R2-Pad1)*
X142240000Y-138430000D03*
G04 #@! TD*
D23*
G04 #@! TO.P,Y1,1*
G04 #@! TO.N,Net-(C4-Pad1)*
X125730000Y-139700000D03*
G04 #@! TO.P,Y1,2*
G04 #@! TO.N,Net-(C5-Pad1)*
X130630000Y-139700000D03*
G04 #@! TD*
D13*
G04 #@! TO.P,U8,1*
G04 #@! TO.N,ROM_BANK_ON*
X152400000Y-60960000D03*
D14*
G04 #@! TO.P,U8,8*
G04 #@! TO.N,N/C*
X167640000Y-53340000D03*
G04 #@! TO.P,U8,2*
G04 #@! TO.N,SYS_USER_SELECT*
X154940000Y-60960000D03*
G04 #@! TO.P,U8,9*
G04 #@! TO.N,N/C*
X165100000Y-53340000D03*
G04 #@! TO.P,U8,3*
G04 #@! TO.N,SYS_ROM_ENABLE*
X157480000Y-60960000D03*
G04 #@! TO.P,U8,10*
G04 #@! TO.N,N/C*
X162560000Y-53340000D03*
G04 #@! TO.P,U8,4*
G04 #@! TO.N,USER_ROM_ENABLE*
X160020000Y-60960000D03*
G04 #@! TO.P,U8,11*
G04 #@! TO.N,N/C*
X160020000Y-53340000D03*
G04 #@! TO.P,U8,5*
G04 #@! TO.N,ROM_BANK_ON*
X162560000Y-60960000D03*
G04 #@! TO.P,U8,12*
G04 #@! TO.N,N/C*
X157480000Y-53340000D03*
G04 #@! TO.P,U8,6*
G04 #@! TO.N,/USER_ROM_SELECTED*
X165100000Y-60960000D03*
G04 #@! TO.P,U8,13*
G04 #@! TO.N,N/C*
X154940000Y-53340000D03*
G04 #@! TO.P,U8,7*
G04 #@! TO.N,GND*
X167640000Y-60960000D03*
G04 #@! TO.P,U8,14*
G04 #@! TO.N,MAIN_5V*
X152400000Y-53340000D03*
G04 #@! TD*
D13*
G04 #@! TO.P,C6,1*
G04 #@! TO.N,/DC_IN*
X122745500Y-54864000D03*
D22*
G04 #@! TO.P,C6,2*
G04 #@! TO.N,GND*
X122745500Y-52364000D03*
G04 #@! TD*
D24*
G04 #@! TO.P,D1,2*
G04 #@! TO.N,MIAN_5V*
X123317000Y-59817000D03*
D25*
G04 #@! TO.P,D1,1*
G04 #@! TO.N,Net-(D1-Pad1)*
X120777000Y-59817000D03*
G04 #@! TD*
D26*
G04 #@! TO.P,J2,1*
G04 #@! TO.N,/DC+5*
X141986000Y-51244500D03*
D27*
G04 #@! TO.P,J2,2*
G04 #@! TO.N,Net-(J2-Pad2)*
X141186000Y-52994500D03*
G04 #@! TO.P,J2,3*
G04 #@! TO.N,Net-(J2-Pad3)*
X140386000Y-51244500D03*
G04 #@! TO.P,J2,4*
G04 #@! TO.N,Net-(J2-Pad4)*
X139586000Y-52994500D03*
G04 #@! TO.P,J2,5*
G04 #@! TO.N,GND*
X138786000Y-51244500D03*
D28*
G04 #@! TO.P,J2,6*
X144036000Y-52119500D03*
X136736000Y-52119500D03*
G04 #@! TD*
D20*
G04 #@! TO.P,R4,2*
G04 #@! TO.N,GND*
X117157500Y-52451000D03*
D19*
G04 #@! TO.P,R4,1*
G04 #@! TO.N,Net-(D1-Pad1)*
X117157500Y-57531000D03*
G04 #@! TD*
D13*
G04 #@! TO.P,SW2,1*
G04 #@! TO.N,/DC+5*
X133540500Y-51943000D03*
D14*
G04 #@! TO.P,SW2,2*
G04 #@! TO.N,MIAN_5V*
X133540500Y-59563000D03*
G04 #@! TD*
D29*
G04 #@! TO.P,U9,1*
G04 #@! TO.N,/DC_IN*
X128778000Y-58928000D03*
D30*
G04 #@! TO.P,U9,2*
G04 #@! TO.N,GND*
X128778000Y-56388000D03*
G04 #@! TO.P,U9,3*
G04 #@! TO.N,/DC+5*
X128778000Y-53848000D03*
G04 #@! TD*
D17*
G04 #@! TO.P,C7,1*
G04 #@! TO.N,Net-(C7-Pad1)*
X149606000Y-145415000D03*
D18*
G04 #@! TO.P,C7,2*
G04 #@! TO.N,Net-(C7-Pad2)*
X148106000Y-145415000D03*
G04 #@! TD*
G04 #@! TO.P,C8,2*
G04 #@! TO.N,Net-(C8-Pad2)*
X149836000Y-139065000D03*
D17*
G04 #@! TO.P,C8,1*
G04 #@! TO.N,Net-(C8-Pad1)*
X148336000Y-139065000D03*
G04 #@! TD*
D13*
G04 #@! TO.P,U10,1*
G04 #@! TO.N,/D0*
X149860000Y-129540000D03*
D14*
G04 #@! TO.P,U10,21*
G04 #@! TO.N,SIG_MRD*
X198120000Y-114300000D03*
G04 #@! TO.P,U10,2*
G04 #@! TO.N,/D1*
X152400000Y-129540000D03*
G04 #@! TO.P,U10,22*
G04 #@! TO.N,GND*
X195580000Y-114300000D03*
G04 #@! TO.P,U10,3*
G04 #@! TO.N,/D2*
X154940000Y-129540000D03*
G04 #@! TO.P,U10,23*
G04 #@! TO.N,Net-(U10-Pad23)*
X193040000Y-114300000D03*
G04 #@! TO.P,U10,4*
G04 #@! TO.N,/D3*
X157480000Y-129540000D03*
G04 #@! TO.P,U10,24*
G04 #@! TO.N,Net-(U10-Pad24)*
X190500000Y-114300000D03*
G04 #@! TO.P,U10,5*
G04 #@! TO.N,/D4*
X160020000Y-129540000D03*
G04 #@! TO.P,U10,25*
G04 #@! TO.N,GND*
X187960000Y-114300000D03*
G04 #@! TO.P,U10,6*
G04 #@! TO.N,/D5*
X162560000Y-129540000D03*
G04 #@! TO.P,U10,26*
G04 #@! TO.N,/A2*
X185420000Y-114300000D03*
G04 #@! TO.P,U10,7*
G04 #@! TO.N,/D6*
X165100000Y-129540000D03*
G04 #@! TO.P,U10,27*
G04 #@! TO.N,/A1*
X182880000Y-114300000D03*
G04 #@! TO.P,U10,8*
G04 #@! TO.N,/D7*
X167640000Y-129540000D03*
G04 #@! TO.P,U10,28*
G04 #@! TO.N,/A0*
X180340000Y-114300000D03*
G04 #@! TO.P,U10,9*
G04 #@! TO.N,Net-(U10-Pad15)*
X170180000Y-129540000D03*
G04 #@! TO.P,U10,29*
G04 #@! TO.N,Net-(U10-Pad29)*
X177800000Y-114300000D03*
G04 #@! TO.P,U10,10*
G04 #@! TO.N,Net-(U10-Pad10)*
X172720000Y-129540000D03*
G04 #@! TO.P,U10,30*
G04 #@! TO.N,Net-(U10-Pad30)*
X175260000Y-114300000D03*
G04 #@! TO.P,U10,11*
G04 #@! TO.N,Net-(U10-Pad11)*
X175260000Y-129540000D03*
G04 #@! TO.P,U10,31*
G04 #@! TO.N,Net-(U10-Pad31)*
X172720000Y-114300000D03*
G04 #@! TO.P,U10,12*
G04 #@! TO.N,Net-(U10-Pad12)*
X177800000Y-129540000D03*
G04 #@! TO.P,U10,32*
G04 #@! TO.N,Net-(U10-Pad32)*
X170180000Y-114300000D03*
G04 #@! TO.P,U10,13*
G04 #@! TO.N,/A14*
X180340000Y-129540000D03*
G04 #@! TO.P,U10,33*
G04 #@! TO.N,Net-(U10-Pad33)*
X167640000Y-114300000D03*
G04 #@! TO.P,U10,14*
G04 #@! TO.N,/A15*
X182880000Y-129540000D03*
G04 #@! TO.P,U10,34*
G04 #@! TO.N,Net-(U10-Pad34)*
X165100000Y-114300000D03*
G04 #@! TO.P,U10,15*
G04 #@! TO.N,Net-(U10-Pad15)*
X185420000Y-129540000D03*
G04 #@! TO.P,U10,35*
G04 #@! TO.N,Net-(U10-Pad35)*
X162560000Y-114300000D03*
G04 #@! TO.P,U10,16*
G04 #@! TO.N,Net-(U10-Pad16)*
X187960000Y-129540000D03*
G04 #@! TO.P,U10,36*
G04 #@! TO.N,Net-(U10-Pad36)*
X160020000Y-114300000D03*
G04 #@! TO.P,U10,17*
G04 #@! TO.N,Net-(U10-Pad17)*
X190500000Y-129540000D03*
G04 #@! TO.P,U10,37*
G04 #@! TO.N,Net-(U10-Pad37)*
X157480000Y-114300000D03*
G04 #@! TO.P,U10,18*
G04 #@! TO.N,SIG_MWR*
X193040000Y-129540000D03*
G04 #@! TO.P,U10,38*
G04 #@! TO.N,Net-(U10-Pad38)*
X154940000Y-114300000D03*
G04 #@! TO.P,U10,19*
G04 #@! TO.N,GND*
X195580000Y-129540000D03*
G04 #@! TO.P,U10,39*
G04 #@! TO.N,Net-(U10-Pad39)*
X152400000Y-114300000D03*
G04 #@! TO.P,U10,20*
G04 #@! TO.N,GND*
X198120000Y-129540000D03*
G04 #@! TO.P,U10,40*
G04 #@! TO.N,MAIN_5V*
X149860000Y-114300000D03*
G04 #@! TD*
G04 #@! TO.P,U12,14*
G04 #@! TO.N,MAIN_5V*
X186700816Y-133084329D03*
G04 #@! TO.P,U12,7*
G04 #@! TO.N,GND*
X179080816Y-148324329D03*
G04 #@! TO.P,U12,13*
G04 #@! TO.N,/A9*
X186700816Y-135624329D03*
G04 #@! TO.P,U12,6*
G04 #@! TO.N,Net-(U12-Pad11)*
X179080816Y-145784329D03*
G04 #@! TO.P,U12,12*
G04 #@! TO.N,/A8*
X186700816Y-138164329D03*
G04 #@! TO.P,U12,5*
G04 #@! TO.N,/A7*
X179080816Y-143244329D03*
G04 #@! TO.P,U12,11*
G04 #@! TO.N,Net-(U12-Pad11)*
X186700816Y-140704329D03*
G04 #@! TO.P,U12,4*
G04 #@! TO.N,/A6*
X179080816Y-140704329D03*
G04 #@! TO.P,U12,10*
G04 #@! TO.N,Net-(U12-Pad10)*
X186700816Y-143244329D03*
G04 #@! TO.P,U12,3*
G04 #@! TO.N,Net-(U12-Pad3)*
X179080816Y-138164329D03*
G04 #@! TO.P,U12,9*
X186700816Y-145784329D03*
G04 #@! TO.P,U12,2*
G04 #@! TO.N,/A4*
X179080816Y-135624329D03*
G04 #@! TO.P,U12,8*
G04 #@! TO.N,/A5*
X186700816Y-148324329D03*
D13*
G04 #@! TO.P,U12,1*
G04 #@! TO.N,/A3*
X179080816Y-133084329D03*
G04 #@! TD*
G04 #@! TO.P,U13,1*
G04 #@! TO.N,Net-(U12-Pad10)*
X190205815Y-133084329D03*
D14*
G04 #@! TO.P,U13,8*
G04 #@! TO.N,/A11*
X197825815Y-148324329D03*
G04 #@! TO.P,U13,2*
G04 #@! TO.N,/A10*
X190205815Y-135624329D03*
G04 #@! TO.P,U13,9*
G04 #@! TO.N,Net-(U13-Pad3)*
X197825815Y-145784329D03*
G04 #@! TO.P,U13,3*
X190205815Y-138164329D03*
G04 #@! TO.P,U13,10*
G04 #@! TO.N,N/C*
X197825815Y-143244329D03*
G04 #@! TO.P,U13,4*
G04 #@! TO.N,/A12*
X190205815Y-140704329D03*
G04 #@! TO.P,U13,11*
G04 #@! TO.N,N/C*
X197825815Y-140704329D03*
G04 #@! TO.P,U13,5*
G04 #@! TO.N,SYS_USER_SELECT*
X190205815Y-143244329D03*
G04 #@! TO.P,U13,12*
G04 #@! TO.N,N/C*
X197825815Y-138164329D03*
G04 #@! TO.P,U13,6*
G04 #@! TO.N,Net-(U13-Pad6)*
X190205815Y-145784329D03*
G04 #@! TO.P,U13,13*
G04 #@! TO.N,N/C*
X197825815Y-135624329D03*
G04 #@! TO.P,U13,7*
G04 #@! TO.N,GND*
X190205815Y-148324329D03*
G04 #@! TO.P,U13,14*
G04 #@! TO.N,MAIN_5V*
X197825815Y-133084329D03*
G04 #@! TD*
D31*
G04 #@! TO.N,GND*
X132080000Y-101600000D03*
X132080000Y-104140000D03*
X165100000Y-63500000D03*
X187325000Y-121539000D03*
X192913000Y-122047000D03*
X119380000Y-120904000D03*
X194056000Y-146304000D03*
X121920000Y-122428000D03*
G04 #@! TO.N,MAIN_5V*
X147320000Y-66040000D03*
X152400000Y-66040000D03*
G04 #@! TO.N,/A11*
X116840000Y-81280000D03*
G04 #@! TO.N,/A14*
X103124000Y-119379980D03*
G04 #@! TO.N,/A15*
X180340000Y-122428000D03*
G04 #@! TO.N,/D4*
X158750000Y-116840000D03*
G04 #@! TO.N,/D3*
X156210000Y-116839990D03*
G04 #@! TO.N,/D5*
X161370862Y-116871091D03*
G04 #@! TO.N,/D6*
X163830000Y-116840000D03*
G04 #@! TO.N,/D2*
X153670000Y-116840008D03*
G04 #@! TO.N,/D7*
X166370000Y-116839998D03*
G04 #@! TO.N,/D0*
X148590000Y-116840000D03*
G04 #@! TO.N,/D1*
X151130000Y-116840000D03*
G04 #@! TO.N,/A5*
X183896000Y-80264000D03*
G04 #@! TO.N,SIG_MRD*
X146050058Y-85090000D03*
X146685000Y-132080000D03*
G04 #@! TO.N,SIG_MWR*
X104140000Y-66040000D03*
G04 #@! TO.N,Net-(U13-Pad6)*
X193802000Y-117094000D03*
G04 #@! TD*
D32*
G04 #@! TO.N,GND*
X156591000Y-138926370D02*
X159523630Y-141859000D01*
X156591000Y-137795000D02*
X156591000Y-138926370D01*
X172615487Y-141859000D02*
X179080816Y-148324329D01*
X159523630Y-141859000D02*
X172615487Y-141859000D01*
X192226144Y-146304000D02*
X190205815Y-148324329D01*
X194056000Y-146304000D02*
X192226144Y-146304000D01*
X189405816Y-149124328D02*
X190205815Y-148324329D01*
X179880815Y-149124328D02*
X180112328Y-149124328D01*
X179080816Y-148324329D02*
X179880815Y-149124328D01*
X180112328Y-149124328D02*
X180848000Y-149860000D01*
X180848000Y-149860000D02*
X188468000Y-149860000D01*
X188468000Y-149860000D02*
X189203672Y-149124328D01*
X189203672Y-149124328D02*
X189405816Y-149124328D01*
G04 #@! TO.N,/A11*
X105765001Y-70205001D02*
X105715001Y-70205001D01*
X116840000Y-81280000D02*
X105765001Y-70205001D01*
X194240000Y-82550000D02*
X193040000Y-82550000D01*
X196994999Y-85304999D02*
X194240000Y-82550000D01*
X196994999Y-129758002D02*
X196994999Y-85304999D01*
X196088000Y-130665001D02*
X196994999Y-129758002D01*
X196088000Y-146586514D02*
X196088000Y-130665001D01*
X197825815Y-148324329D02*
X196088000Y-146586514D01*
G04 #@! TO.N,/A12*
X151929999Y-71590001D02*
X151130000Y-72390000D01*
X152255001Y-71264999D02*
X151929999Y-71590001D01*
X175474999Y-71264999D02*
X152255001Y-71264999D01*
X176600000Y-72390000D02*
X175474999Y-71264999D01*
X177800000Y-72390000D02*
X176600000Y-72390000D01*
G04 #@! TO.N,/A14*
X103632020Y-119888000D02*
X103523999Y-119779979D01*
X113538000Y-119888000D02*
X103632020Y-119888000D01*
X118110000Y-124460000D02*
X113538000Y-119888000D01*
X103523999Y-119779979D02*
X103124000Y-119379980D01*
G04 #@! TO.N,/A15*
X130810000Y-115570000D02*
X128270000Y-115570000D01*
X137668000Y-122428000D02*
X180340000Y-122428000D01*
X130810000Y-115570000D02*
X137668000Y-122428000D01*
X128270000Y-115570000D02*
X128270000Y-117971370D01*
X128270000Y-117971370D02*
X121781370Y-124460000D01*
X121781370Y-124460000D02*
X120650000Y-124460000D01*
X118110000Y-127000000D02*
X104140000Y-127000000D01*
X133281999Y-53869501D02*
X130612508Y-51200010D01*
X102508010Y-55988010D02*
X102508010Y-77158010D01*
X144173450Y-53869501D02*
X133281999Y-53869501D01*
X130612508Y-51200010D02*
X110611837Y-51200010D01*
X201275990Y-51200010D02*
X146842941Y-51200010D01*
X120650000Y-124460000D02*
X118110000Y-127000000D01*
X146842941Y-51200010D02*
X144173450Y-53869501D01*
X102508010Y-77158010D02*
X105715001Y-80365001D01*
X110611837Y-51200010D02*
X108217837Y-53594010D01*
X104140000Y-127000000D02*
X102508010Y-128631990D01*
X108217837Y-53594010D02*
X104902010Y-53594010D01*
X102508010Y-128631990D02*
X102508010Y-150475990D01*
X104902010Y-53594010D02*
X102508010Y-55988010D01*
X102508010Y-150475990D02*
X201275990Y-150475990D01*
X201275990Y-150475990D02*
X201275990Y-51200010D01*
G04 #@! TO.N,/D4*
X193040000Y-100330000D02*
X192040000Y-100330000D01*
G04 #@! TO.N,/A0*
X151929999Y-91910001D02*
X151130000Y-92710000D01*
X152255001Y-91584999D02*
X151929999Y-91910001D01*
X175474999Y-91584999D02*
X152255001Y-91584999D01*
X176600000Y-92710000D02*
X175474999Y-91584999D01*
X177800000Y-92710000D02*
X176600000Y-92710000D01*
X127799999Y-91910001D02*
X127000000Y-92710000D01*
X128270000Y-91440000D02*
X127799999Y-91910001D01*
X149860000Y-91440000D02*
X128270000Y-91440000D01*
X151130000Y-92710000D02*
X149860000Y-91440000D01*
X123850002Y-92710000D02*
X120955001Y-95605001D01*
X127000000Y-92710000D02*
X123850002Y-92710000D01*
X179000000Y-92710000D02*
X177800000Y-92710000D01*
X180340000Y-94050000D02*
X179000000Y-92710000D01*
X180340000Y-114300000D02*
X180340000Y-94050000D01*
G04 #@! TO.N,/A1*
X151929999Y-89370001D02*
X151130000Y-90170000D01*
X152255001Y-89044999D02*
X151929999Y-89370001D01*
X175474999Y-89044999D02*
X152255001Y-89044999D01*
X176600000Y-90170000D02*
X175474999Y-89044999D01*
X177800000Y-90170000D02*
X176600000Y-90170000D01*
X127799999Y-89370001D02*
X127000000Y-90170000D01*
X128270000Y-88900000D02*
X127799999Y-89370001D01*
X149860000Y-88900000D02*
X128270000Y-88900000D01*
X151130000Y-90170000D02*
X149860000Y-88900000D01*
X123850002Y-90170000D02*
X120955001Y-93065001D01*
X127000000Y-90170000D02*
X123850002Y-90170000D01*
X179000000Y-90170000D02*
X181610000Y-92780000D01*
X177800000Y-90170000D02*
X179000000Y-90170000D01*
X181610000Y-113030000D02*
X182880000Y-114300000D01*
X181610000Y-92780000D02*
X181610000Y-113030000D01*
G04 #@! TO.N,/D2*
X151929999Y-99530001D02*
X151130000Y-100330000D01*
X152255001Y-99204999D02*
X151929999Y-99530001D01*
X175474999Y-99204999D02*
X152255001Y-99204999D01*
X176600000Y-100330000D02*
X175474999Y-99204999D01*
X177800000Y-100330000D02*
X176600000Y-100330000D01*
X127799999Y-99530001D02*
X127000000Y-100330000D01*
X128270000Y-99060000D02*
X127799999Y-99530001D01*
X149860000Y-99060000D02*
X128270000Y-99060000D01*
X151130000Y-100330000D02*
X149860000Y-99060000D01*
G04 #@! TO.N,/A2*
X151929999Y-86830001D02*
X151130000Y-87630000D01*
X152255001Y-86504999D02*
X151929999Y-86830001D01*
X175474999Y-86504999D02*
X152255001Y-86504999D01*
X176600000Y-87630000D02*
X175474999Y-86504999D01*
X177800000Y-87630000D02*
X176600000Y-87630000D01*
X123850002Y-87630000D02*
X120955001Y-90525001D01*
X127000000Y-87630000D02*
X123850002Y-87630000D01*
X185420000Y-114300000D02*
X182880000Y-111760000D01*
X179000000Y-87630000D02*
X177800000Y-87630000D01*
X182880000Y-91510000D02*
X179000000Y-87630000D01*
X182880000Y-111760000D02*
X182880000Y-91510000D01*
X128270000Y-86360000D02*
X127799999Y-86830001D01*
X127799999Y-86830001D02*
X127000000Y-87630000D01*
X146881998Y-87630000D02*
X145611998Y-86360000D01*
X145611998Y-86360000D02*
X128270000Y-86360000D01*
X151130000Y-87630000D02*
X146881998Y-87630000D01*
G04 #@! TO.N,/A3*
X151929999Y-84290001D02*
X151130000Y-85090000D01*
X152255001Y-83964999D02*
X151929999Y-84290001D01*
X175474999Y-83964999D02*
X152255001Y-83964999D01*
X176600000Y-85090000D02*
X175474999Y-83964999D01*
X177800000Y-85090000D02*
X176600000Y-85090000D01*
X127799999Y-84290001D02*
X127000000Y-85090000D01*
X128270000Y-83820000D02*
X127799999Y-84290001D01*
X149860000Y-83820000D02*
X128270000Y-83820000D01*
X151130000Y-85090000D02*
X149860000Y-83820000D01*
X123850002Y-85090000D02*
X120955001Y-87985001D01*
X127000000Y-85090000D02*
X123850002Y-85090000D01*
G04 #@! TO.N,/D0*
X151929999Y-94450001D02*
X151130000Y-95250000D01*
X152255001Y-94124999D02*
X151929999Y-94450001D01*
X175474999Y-94124999D02*
X152255001Y-94124999D01*
X176600000Y-95250000D02*
X175474999Y-94124999D01*
X177800000Y-95250000D02*
X176600000Y-95250000D01*
X127799999Y-94450001D02*
X127000000Y-95250000D01*
X128270000Y-93980000D02*
X127799999Y-94450001D01*
X149860000Y-93980000D02*
X128270000Y-93980000D01*
X151130000Y-95250000D02*
X149860000Y-93980000D01*
G04 #@! TO.N,/A4*
X151929999Y-81750001D02*
X151130000Y-82550000D01*
X152255001Y-81424999D02*
X151929999Y-81750001D01*
X175474999Y-81424999D02*
X152255001Y-81424999D01*
X176600000Y-82550000D02*
X175474999Y-81424999D01*
X177800000Y-82550000D02*
X176600000Y-82550000D01*
X127799999Y-81750001D02*
X127000000Y-82550000D01*
X128270000Y-81280000D02*
X127799999Y-81750001D01*
X149860000Y-81280000D02*
X128270000Y-81280000D01*
X151130000Y-82550000D02*
X149860000Y-81280000D01*
X123850002Y-82550000D02*
X120955001Y-85445001D01*
X127000000Y-82550000D02*
X123850002Y-82550000D01*
G04 #@! TO.N,/D1*
X151929999Y-96990001D02*
X151130000Y-97790000D01*
X152255001Y-96664999D02*
X151929999Y-96990001D01*
X175474999Y-96664999D02*
X152255001Y-96664999D01*
X176600000Y-97790000D02*
X175474999Y-96664999D01*
X177800000Y-97790000D02*
X176600000Y-97790000D01*
X127799999Y-96990001D02*
X127000000Y-97790000D01*
X128125001Y-96664999D02*
X127799999Y-96990001D01*
X150004999Y-96664999D02*
X128125001Y-96664999D01*
X151130000Y-97790000D02*
X150004999Y-96664999D01*
G04 #@! TO.N,/A5*
X151929999Y-79210001D02*
X151130000Y-80010000D01*
X152255001Y-78884999D02*
X151929999Y-79210001D01*
X175474999Y-78884999D02*
X152255001Y-78884999D01*
X176600000Y-80010000D02*
X175474999Y-78884999D01*
X177800000Y-80010000D02*
X176600000Y-80010000D01*
X127799999Y-79210001D02*
X127000000Y-80010000D01*
X128270000Y-78740000D02*
X127799999Y-79210001D01*
X149860000Y-78740000D02*
X128270000Y-78740000D01*
X151130000Y-80010000D02*
X149860000Y-78740000D01*
X123850002Y-80010000D02*
X120955001Y-82905001D01*
X127000000Y-80010000D02*
X123850002Y-80010000D01*
G04 #@! TO.N,/A6*
X151929999Y-76670001D02*
X151130000Y-77470000D01*
X152255001Y-76344999D02*
X151929999Y-76670001D01*
X175474999Y-76344999D02*
X152255001Y-76344999D01*
X176600000Y-77470000D02*
X175474999Y-76344999D01*
X177800000Y-77470000D02*
X176600000Y-77470000D01*
X127799999Y-76670001D02*
X127000000Y-77470000D01*
X128270000Y-76200000D02*
X127799999Y-76670001D01*
X149860000Y-76200000D02*
X128270000Y-76200000D01*
X151130000Y-77470000D02*
X149860000Y-76200000D01*
X123850002Y-77470000D02*
X120955001Y-80365001D01*
X127000000Y-77470000D02*
X123850002Y-77470000D01*
G04 #@! TO.N,/A7*
X151929999Y-74130001D02*
X151130000Y-74930000D01*
X152255001Y-73804999D02*
X151929999Y-74130001D01*
X175474999Y-73804999D02*
X152255001Y-73804999D01*
X176600000Y-74930000D02*
X175474999Y-73804999D01*
X177800000Y-74930000D02*
X176600000Y-74930000D01*
X127799999Y-74130001D02*
X127000000Y-74930000D01*
X128270000Y-73660000D02*
X127799999Y-74130001D01*
X149860000Y-73660000D02*
X128270000Y-73660000D01*
X151130000Y-74930000D02*
X149860000Y-73660000D01*
X123850002Y-74930000D02*
X120955001Y-77825001D01*
X127000000Y-74930000D02*
X123850002Y-74930000D01*
G04 #@! TO.N,SIG_MWR*
X186690000Y-123190000D02*
X193040000Y-129540000D01*
X152795002Y-123190000D02*
X186690000Y-123190000D01*
X142635002Y-133350000D02*
X152795002Y-123190000D01*
X115570000Y-133350000D02*
X142635002Y-133350000D01*
X113030000Y-132080000D02*
X114935000Y-133985000D01*
X114935000Y-133985000D02*
X115570000Y-133350000D01*
G04 #@! TO.N,SYS_USER_SELECT*
X104915002Y-76085000D02*
X105715001Y-75285001D01*
G04 #@! TO.N,Net-(U13-Pad6)*
X191005814Y-144984330D02*
X190205815Y-145784329D01*
X194165001Y-141825143D02*
X191005814Y-144984330D01*
X194165001Y-128999999D02*
X194165001Y-141825143D01*
X193802000Y-128636998D02*
X194165001Y-128999999D01*
X193802000Y-117094000D02*
X193802000Y-128636998D01*
G04 #@! TO.N,Net-(U12-Pad11)*
X181620816Y-145784329D02*
X186700816Y-140704329D01*
X179080816Y-145784329D02*
X181620816Y-145784329D01*
G04 #@! TD*
M02*
