G04 #@! TF.GenerationSoftware,KiCad,Pcbnew,(5.0.0)*
G04 #@! TF.CreationDate,2018-09-23T22:59:08+02:00*
G04 #@! TF.ProjectId,RED_80,5245445F38302E6B696361645F706362,rev?*
G04 #@! TF.SameCoordinates,Original*
G04 #@! TF.FileFunction,Soldermask,Top*
G04 #@! TF.FilePolarity,Negative*
%FSLAX46Y46*%
G04 Gerber Fmt 4.6, Leading zero omitted, Abs format (unit mm)*
G04 Created by KiCad (PCBNEW (5.0.0)) date 09/23/18 22:59:08*
%MOMM*%
%LPD*%
G01*
G04 APERTURE LIST*
%ADD10R,2.400000X4.400000*%
%ADD11O,2.400000X3.700000*%
%ADD12O,3.900000X2.400000*%
%ADD13C,2.000000*%
%ADD14R,2.000000X2.000000*%
%ADD15O,2.000000X2.000000*%
%ADD16C,3.400000*%
%ADD17O,4.400000X2.000000*%
%ADD18R,1.600000X1.600000*%
%ADD19C,1.600000*%
%ADD20C,1.800000*%
%ADD21O,1.800000X1.800000*%
%ADD22C,2.400000*%
%ADD23C,1.900000*%
%ADD24C,2.200000*%
%ADD25R,2.200000X2.200000*%
%ADD26R,1.500000X1.500000*%
%ADD27C,1.500000*%
%ADD28O,1.500000X2.800000*%
%ADD29R,2.400000X2.305000*%
%ADD30O,2.400000X2.305000*%
G04 APERTURE END LIST*
D10*
G04 #@! TO.C,J1*
X113919000Y-56769000D03*
D11*
X107919000Y-56769000D03*
D12*
X106919000Y-52269000D03*
X106919000Y-61269000D03*
D13*
X104919000Y-56769000D03*
G04 #@! TD*
D14*
G04 #@! TO.C,U2*
X127000000Y-69850000D03*
D15*
X142240000Y-102870000D03*
X127000000Y-72390000D03*
X142240000Y-100330000D03*
X127000000Y-74930000D03*
X142240000Y-97790000D03*
X127000000Y-77470000D03*
X142240000Y-95250000D03*
X127000000Y-80010000D03*
X142240000Y-92710000D03*
X127000000Y-82550000D03*
X142240000Y-90170000D03*
X127000000Y-85090000D03*
X142240000Y-87630000D03*
X127000000Y-87630000D03*
X142240000Y-85090000D03*
X127000000Y-90170000D03*
X142240000Y-82550000D03*
X127000000Y-92710000D03*
X142240000Y-80010000D03*
X127000000Y-95250000D03*
X142240000Y-77470000D03*
X127000000Y-97790000D03*
X142240000Y-74930000D03*
X127000000Y-100330000D03*
X142240000Y-72390000D03*
X127000000Y-102870000D03*
X142240000Y-69850000D03*
G04 #@! TD*
D14*
G04 #@! TO.C,U11*
X154051000Y-145415000D03*
D15*
X171831000Y-137795000D03*
X156591000Y-145415000D03*
X169291000Y-137795000D03*
X159131000Y-145415000D03*
X166751000Y-137795000D03*
X161671000Y-145415000D03*
X164211000Y-137795000D03*
X164211000Y-145415000D03*
X161671000Y-137795000D03*
X166751000Y-145415000D03*
X159131000Y-137795000D03*
X169291000Y-145415000D03*
X156591000Y-137795000D03*
X171831000Y-145415000D03*
X154051000Y-137795000D03*
G04 #@! TD*
G04 #@! TO.C,U6*
X166370000Y-69850000D03*
X151130000Y-102870000D03*
X166370000Y-72390000D03*
X151130000Y-100330000D03*
X166370000Y-74930000D03*
X151130000Y-97790000D03*
X166370000Y-77470000D03*
X151130000Y-95250000D03*
X166370000Y-80010000D03*
X151130000Y-92710000D03*
X166370000Y-82550000D03*
X151130000Y-90170000D03*
X166370000Y-85090000D03*
X151130000Y-87630000D03*
X166370000Y-87630000D03*
X151130000Y-85090000D03*
X166370000Y-90170000D03*
X151130000Y-82550000D03*
X166370000Y-92710000D03*
X151130000Y-80010000D03*
X166370000Y-95250000D03*
X151130000Y-77470000D03*
X166370000Y-97790000D03*
X151130000Y-74930000D03*
X166370000Y-100330000D03*
X151130000Y-72390000D03*
X166370000Y-102870000D03*
D14*
X151130000Y-69850000D03*
G04 #@! TD*
D16*
G04 #@! TO.C,U7*
X185420000Y-107950000D03*
X185420000Y-57150000D03*
D17*
X177800000Y-102870000D03*
X193040000Y-102870000D03*
X177800000Y-100330000D03*
X193040000Y-100330000D03*
X177800000Y-97790000D03*
X193040000Y-97790000D03*
X177800000Y-95250000D03*
X193040000Y-95250000D03*
X177800000Y-92710000D03*
X193040000Y-92710000D03*
X177800000Y-90170000D03*
X193040000Y-90170000D03*
X177800000Y-87630000D03*
X193040000Y-87630000D03*
X177800000Y-85090000D03*
X193040000Y-85090000D03*
X177800000Y-82550000D03*
X193040000Y-82550000D03*
X177800000Y-80010000D03*
X193040000Y-80010000D03*
X177800000Y-77470000D03*
X193040000Y-77470000D03*
X177800000Y-74930000D03*
X193040000Y-74930000D03*
X177800000Y-72390000D03*
X193040000Y-72390000D03*
X177800000Y-69850000D03*
X193040000Y-69850000D03*
G04 #@! TD*
D14*
G04 #@! TO.C,U1*
X105715001Y-70205001D03*
D15*
X120955001Y-118465001D03*
X105715001Y-72745001D03*
X120955001Y-115925001D03*
X105715001Y-75285001D03*
X120955001Y-113385001D03*
X105715001Y-77825001D03*
X120955001Y-110845001D03*
X105715001Y-80365001D03*
X120955001Y-108305001D03*
X105715001Y-82905001D03*
X120955001Y-105765001D03*
X105715001Y-85445001D03*
X120955001Y-103225001D03*
X105715001Y-87985001D03*
X120955001Y-100685001D03*
X105715001Y-90525001D03*
X120955001Y-98145001D03*
X105715001Y-93065001D03*
X120955001Y-95605001D03*
X105715001Y-95605001D03*
X120955001Y-93065001D03*
X105715001Y-98145001D03*
X120955001Y-90525001D03*
X105715001Y-100685001D03*
X120955001Y-87985001D03*
X105715001Y-103225001D03*
X120955001Y-85445001D03*
X105715001Y-105765001D03*
X120955001Y-82905001D03*
X105715001Y-108305001D03*
X120955001Y-80365001D03*
X105715001Y-110845001D03*
X120955001Y-77825001D03*
X105715001Y-113385001D03*
X120955001Y-75285001D03*
X105715001Y-115925001D03*
X120955001Y-72745001D03*
X105715001Y-118465001D03*
X120955001Y-70205001D03*
G04 #@! TD*
D14*
G04 #@! TO.C,U5*
X127000000Y-132080000D03*
D15*
X142240000Y-124460000D03*
X129540000Y-132080000D03*
X139700000Y-124460000D03*
X132080000Y-132080000D03*
X137160000Y-124460000D03*
X134620000Y-132080000D03*
X134620000Y-124460000D03*
X137160000Y-132080000D03*
X132080000Y-124460000D03*
X139700000Y-132080000D03*
X129540000Y-124460000D03*
X142240000Y-132080000D03*
X127000000Y-124460000D03*
G04 #@! TD*
D14*
G04 #@! TO.C,U4*
X105410000Y-132080000D03*
D15*
X120650000Y-124460000D03*
X107950000Y-132080000D03*
X118110000Y-124460000D03*
X110490000Y-132080000D03*
X115570000Y-124460000D03*
X113030000Y-132080000D03*
X113030000Y-124460000D03*
X115570000Y-132080000D03*
X110490000Y-124460000D03*
X118110000Y-132080000D03*
X107950000Y-124460000D03*
X120650000Y-132080000D03*
X105410000Y-124460000D03*
G04 #@! TD*
D18*
G04 #@! TO.C,C1*
X119888000Y-65532000D03*
D19*
X121388000Y-65532000D03*
G04 #@! TD*
D18*
G04 #@! TO.C,C2*
X147320000Y-69850000D03*
D19*
X147320000Y-71350000D03*
G04 #@! TD*
D14*
G04 #@! TO.C,U3*
X128270000Y-115570000D03*
D15*
X143510000Y-107950000D03*
X130810000Y-115570000D03*
X140970000Y-107950000D03*
X133350000Y-115570000D03*
X138430000Y-107950000D03*
X135890000Y-115570000D03*
X135890000Y-107950000D03*
X138430000Y-115570000D03*
X133350000Y-107950000D03*
X140970000Y-115570000D03*
X130810000Y-107950000D03*
X143510000Y-115570000D03*
X128270000Y-107950000D03*
G04 #@! TD*
D18*
G04 #@! TO.C,C3*
X120904000Y-137160000D03*
D19*
X120904000Y-138660000D03*
G04 #@! TD*
D20*
G04 #@! TO.C,R1*
X115824000Y-142240000D03*
D21*
X115824000Y-137160000D03*
G04 #@! TD*
D22*
G04 #@! TO.C,SW1*
X106784000Y-141660000D03*
X106784000Y-137160000D03*
X113284000Y-141660000D03*
X113284000Y-137160000D03*
G04 #@! TD*
D13*
G04 #@! TO.C,C4*
X120650000Y-141605000D03*
X118150000Y-141605000D03*
G04 #@! TD*
G04 #@! TO.C,C5*
X139660000Y-141605000D03*
X137160000Y-141605000D03*
G04 #@! TD*
D20*
G04 #@! TO.C,R2*
X142240000Y-135890000D03*
D21*
X137160000Y-135890000D03*
G04 #@! TD*
G04 #@! TO.C,R3*
X137160000Y-138430000D03*
D20*
X142240000Y-138430000D03*
G04 #@! TD*
D23*
G04 #@! TO.C,Y1*
X125730000Y-139700000D03*
X130630000Y-139700000D03*
G04 #@! TD*
D14*
G04 #@! TO.C,U8*
X152400000Y-60960000D03*
D15*
X167640000Y-53340000D03*
X154940000Y-60960000D03*
X165100000Y-53340000D03*
X157480000Y-60960000D03*
X162560000Y-53340000D03*
X160020000Y-60960000D03*
X160020000Y-53340000D03*
X162560000Y-60960000D03*
X157480000Y-53340000D03*
X165100000Y-60960000D03*
X154940000Y-53340000D03*
X167640000Y-60960000D03*
X152400000Y-53340000D03*
G04 #@! TD*
D14*
G04 #@! TO.C,C6*
X122745500Y-54864000D03*
D13*
X122745500Y-52364000D03*
G04 #@! TD*
D24*
G04 #@! TO.C,D1*
X123317000Y-59817000D03*
D25*
X120777000Y-59817000D03*
G04 #@! TD*
D26*
G04 #@! TO.C,J2*
X141986000Y-51244500D03*
D27*
X141186000Y-52994500D03*
X140386000Y-51244500D03*
X139586000Y-52994500D03*
X138786000Y-51244500D03*
D28*
X144036000Y-52119500D03*
X136736000Y-52119500D03*
G04 #@! TD*
D21*
G04 #@! TO.C,R4*
X117157500Y-52451000D03*
D20*
X117157500Y-57531000D03*
G04 #@! TD*
D14*
G04 #@! TO.C,SW2*
X133540500Y-51943000D03*
D15*
X133540500Y-59563000D03*
G04 #@! TD*
D29*
G04 #@! TO.C,U9*
X128778000Y-58928000D03*
D30*
X128778000Y-56388000D03*
X128778000Y-53848000D03*
G04 #@! TD*
D18*
G04 #@! TO.C,C7*
X149606000Y-145415000D03*
D19*
X148106000Y-145415000D03*
G04 #@! TD*
G04 #@! TO.C,C8*
X149836000Y-139065000D03*
D18*
X148336000Y-139065000D03*
G04 #@! TD*
D14*
G04 #@! TO.C,U10*
X149860000Y-129540000D03*
D15*
X198120000Y-114300000D03*
X152400000Y-129540000D03*
X195580000Y-114300000D03*
X154940000Y-129540000D03*
X193040000Y-114300000D03*
X157480000Y-129540000D03*
X190500000Y-114300000D03*
X160020000Y-129540000D03*
X187960000Y-114300000D03*
X162560000Y-129540000D03*
X185420000Y-114300000D03*
X165100000Y-129540000D03*
X182880000Y-114300000D03*
X167640000Y-129540000D03*
X180340000Y-114300000D03*
X170180000Y-129540000D03*
X177800000Y-114300000D03*
X172720000Y-129540000D03*
X175260000Y-114300000D03*
X175260000Y-129540000D03*
X172720000Y-114300000D03*
X177800000Y-129540000D03*
X170180000Y-114300000D03*
X180340000Y-129540000D03*
X167640000Y-114300000D03*
X182880000Y-129540000D03*
X165100000Y-114300000D03*
X185420000Y-129540000D03*
X162560000Y-114300000D03*
X187960000Y-129540000D03*
X160020000Y-114300000D03*
X190500000Y-129540000D03*
X157480000Y-114300000D03*
X193040000Y-129540000D03*
X154940000Y-114300000D03*
X195580000Y-129540000D03*
X152400000Y-114300000D03*
X198120000Y-129540000D03*
X149860000Y-114300000D03*
G04 #@! TD*
G04 #@! TO.C,U12*
X186700816Y-133084329D03*
X179080816Y-148324329D03*
X186700816Y-135624329D03*
X179080816Y-145784329D03*
X186700816Y-138164329D03*
X179080816Y-143244329D03*
X186700816Y-140704329D03*
X179080816Y-140704329D03*
X186700816Y-143244329D03*
X179080816Y-138164329D03*
X186700816Y-145784329D03*
X179080816Y-135624329D03*
X186700816Y-148324329D03*
D14*
X179080816Y-133084329D03*
G04 #@! TD*
G04 #@! TO.C,U13*
X190205815Y-133084329D03*
D15*
X197825815Y-148324329D03*
X190205815Y-135624329D03*
X197825815Y-145784329D03*
X190205815Y-138164329D03*
X197825815Y-143244329D03*
X190205815Y-140704329D03*
X197825815Y-140704329D03*
X190205815Y-143244329D03*
X197825815Y-138164329D03*
X190205815Y-145784329D03*
X197825815Y-135624329D03*
X190205815Y-148324329D03*
X197825815Y-133084329D03*
G04 #@! TD*
M02*
