G04 #@! TF.GenerationSoftware,KiCad,Pcbnew,(5.0.0)*
G04 #@! TF.CreationDate,2018-09-23T22:59:08+02:00*
G04 #@! TF.ProjectId,RED_80,5245445F38302E6B696361645F706362,rev?*
G04 #@! TF.SameCoordinates,Original*
G04 #@! TF.FileFunction,Legend,Top*
G04 #@! TF.FilePolarity,Positive*
%FSLAX46Y46*%
G04 Gerber Fmt 4.6, Leading zero omitted, Abs format (unit mm)*
G04 Created by KiCad (PCBNEW (5.0.0)) date 09/23/18 22:59:08*
%MOMM*%
%LPD*%
G01*
G04 APERTURE LIST*
%ADD10C,0.300000*%
%ADD11C,0.200000*%
%ADD12C,0.120000*%
%ADD13C,0.150000*%
G04 APERTURE END LIST*
D10*
X153175142Y-149197142D02*
X153389428Y-149268571D01*
X153746571Y-149268571D01*
X153889428Y-149197142D01*
X153960857Y-149125714D01*
X154032285Y-148982857D01*
X154032285Y-148840000D01*
X153960857Y-148697142D01*
X153889428Y-148625714D01*
X153746571Y-148554285D01*
X153460857Y-148482857D01*
X153318000Y-148411428D01*
X153246571Y-148340000D01*
X153175142Y-148197142D01*
X153175142Y-148054285D01*
X153246571Y-147911428D01*
X153318000Y-147840000D01*
X153460857Y-147768571D01*
X153818000Y-147768571D01*
X154032285Y-147840000D01*
X154675142Y-148482857D02*
X155175142Y-148482857D01*
X155389428Y-149268571D02*
X154675142Y-149268571D01*
X154675142Y-147768571D01*
X155389428Y-147768571D01*
X156889428Y-149268571D02*
X156389428Y-148554285D01*
X156032285Y-149268571D02*
X156032285Y-147768571D01*
X156603714Y-147768571D01*
X156746571Y-147840000D01*
X156818000Y-147911428D01*
X156889428Y-148054285D01*
X156889428Y-148268571D01*
X156818000Y-148411428D01*
X156746571Y-148482857D01*
X156603714Y-148554285D01*
X156032285Y-148554285D01*
X157532285Y-149268571D02*
X157532285Y-147768571D01*
X158175142Y-148840000D02*
X158889428Y-148840000D01*
X158032285Y-149268571D02*
X158532285Y-147768571D01*
X159032285Y-149268571D01*
X160246571Y-149268571D02*
X159532285Y-149268571D01*
X159532285Y-147768571D01*
X161889428Y-149268571D02*
X161889428Y-147768571D01*
X162603714Y-149268571D02*
X162603714Y-147768571D01*
X163460857Y-149268571D01*
X163460857Y-147768571D01*
X163960857Y-147768571D02*
X164818000Y-147768571D01*
X164389428Y-149268571D02*
X164389428Y-147768571D01*
X165318000Y-148482857D02*
X165818000Y-148482857D01*
X166032285Y-149268571D02*
X165318000Y-149268571D01*
X165318000Y-147768571D01*
X166032285Y-147768571D01*
X167532285Y-149268571D02*
X167032285Y-148554285D01*
X166675142Y-149268571D02*
X166675142Y-147768571D01*
X167246571Y-147768571D01*
X167389428Y-147840000D01*
X167460857Y-147911428D01*
X167532285Y-148054285D01*
X167532285Y-148268571D01*
X167460857Y-148411428D01*
X167389428Y-148482857D01*
X167246571Y-148554285D01*
X166675142Y-148554285D01*
X168675142Y-148482857D02*
X168175142Y-148482857D01*
X168175142Y-149268571D02*
X168175142Y-147768571D01*
X168889428Y-147768571D01*
X169389428Y-148840000D02*
X170103714Y-148840000D01*
X169246571Y-149268571D02*
X169746571Y-147768571D01*
X170246571Y-149268571D01*
X171603714Y-149125714D02*
X171532285Y-149197142D01*
X171318000Y-149268571D01*
X171175142Y-149268571D01*
X170960857Y-149197142D01*
X170818000Y-149054285D01*
X170746571Y-148911428D01*
X170675142Y-148625714D01*
X170675142Y-148411428D01*
X170746571Y-148125714D01*
X170818000Y-147982857D01*
X170960857Y-147840000D01*
X171175142Y-147768571D01*
X171318000Y-147768571D01*
X171532285Y-147840000D01*
X171603714Y-147911428D01*
X172246571Y-148482857D02*
X172746571Y-148482857D01*
X172960857Y-149268571D02*
X172246571Y-149268571D01*
X172246571Y-147768571D01*
X172960857Y-147768571D01*
X126120000Y-65218571D02*
X127048571Y-65218571D01*
X126548571Y-65790000D01*
X126762857Y-65790000D01*
X126905714Y-65861428D01*
X126977142Y-65932857D01*
X127048571Y-66075714D01*
X127048571Y-66432857D01*
X126977142Y-66575714D01*
X126905714Y-66647142D01*
X126762857Y-66718571D01*
X126334285Y-66718571D01*
X126191428Y-66647142D01*
X126120000Y-66575714D01*
X127620000Y-65361428D02*
X127691428Y-65290000D01*
X127834285Y-65218571D01*
X128191428Y-65218571D01*
X128334285Y-65290000D01*
X128405714Y-65361428D01*
X128477142Y-65504285D01*
X128477142Y-65647142D01*
X128405714Y-65861428D01*
X127548571Y-66718571D01*
X128477142Y-66718571D01*
X129120000Y-66718571D02*
X129120000Y-65218571D01*
X129977142Y-66718571D02*
X129334285Y-65861428D01*
X129977142Y-65218571D02*
X129120000Y-66075714D01*
X131120000Y-65932857D02*
X131334285Y-66004285D01*
X131405714Y-66075714D01*
X131477142Y-66218571D01*
X131477142Y-66432857D01*
X131405714Y-66575714D01*
X131334285Y-66647142D01*
X131191428Y-66718571D01*
X130620000Y-66718571D01*
X130620000Y-65218571D01*
X131120000Y-65218571D01*
X131262857Y-65290000D01*
X131334285Y-65361428D01*
X131405714Y-65504285D01*
X131405714Y-65647142D01*
X131334285Y-65790000D01*
X131262857Y-65861428D01*
X131120000Y-65932857D01*
X130620000Y-65932857D01*
X131977142Y-65718571D02*
X132334285Y-66718571D01*
X132691428Y-65718571D02*
X132334285Y-66718571D01*
X132191428Y-67075714D01*
X132120000Y-67147142D01*
X131977142Y-67218571D01*
X133048571Y-65718571D02*
X133620000Y-65718571D01*
X133262857Y-65218571D02*
X133262857Y-66504285D01*
X133334285Y-66647142D01*
X133477142Y-66718571D01*
X133620000Y-66718571D01*
X134691428Y-66647142D02*
X134548571Y-66718571D01*
X134262857Y-66718571D01*
X134120000Y-66647142D01*
X134048571Y-66504285D01*
X134048571Y-65932857D01*
X134120000Y-65790000D01*
X134262857Y-65718571D01*
X134548571Y-65718571D01*
X134691428Y-65790000D01*
X134762857Y-65932857D01*
X134762857Y-66075714D01*
X134048571Y-66218571D01*
X135334285Y-66647142D02*
X135477142Y-66718571D01*
X135762857Y-66718571D01*
X135905714Y-66647142D01*
X135977142Y-66504285D01*
X135977142Y-66432857D01*
X135905714Y-66290000D01*
X135762857Y-66218571D01*
X135548571Y-66218571D01*
X135405714Y-66147142D01*
X135334285Y-66004285D01*
X135334285Y-65932857D01*
X135405714Y-65790000D01*
X135548571Y-65718571D01*
X135762857Y-65718571D01*
X135905714Y-65790000D01*
X137691428Y-66647142D02*
X137905714Y-66718571D01*
X138262857Y-66718571D01*
X138405714Y-66647142D01*
X138477142Y-66575714D01*
X138548571Y-66432857D01*
X138548571Y-66290000D01*
X138477142Y-66147142D01*
X138405714Y-66075714D01*
X138262857Y-66004285D01*
X137977142Y-65932857D01*
X137834285Y-65861428D01*
X137762857Y-65790000D01*
X137691428Y-65647142D01*
X137691428Y-65504285D01*
X137762857Y-65361428D01*
X137834285Y-65290000D01*
X137977142Y-65218571D01*
X138334285Y-65218571D01*
X138548571Y-65290000D01*
X140048571Y-66718571D02*
X139548571Y-66004285D01*
X139191428Y-66718571D02*
X139191428Y-65218571D01*
X139762857Y-65218571D01*
X139905714Y-65290000D01*
X139977142Y-65361428D01*
X140048571Y-65504285D01*
X140048571Y-65718571D01*
X139977142Y-65861428D01*
X139905714Y-65932857D01*
X139762857Y-66004285D01*
X139191428Y-66004285D01*
X140620000Y-66290000D02*
X141334285Y-66290000D01*
X140477142Y-66718571D02*
X140977142Y-65218571D01*
X141477142Y-66718571D01*
X141977142Y-66718571D02*
X141977142Y-65218571D01*
X142477142Y-66290000D01*
X142977142Y-65218571D01*
X142977142Y-66718571D01*
X138831428Y-56553571D02*
X138331428Y-55839285D01*
X137974285Y-56553571D02*
X137974285Y-55053571D01*
X138545714Y-55053571D01*
X138688571Y-55125000D01*
X138760000Y-55196428D01*
X138831428Y-55339285D01*
X138831428Y-55553571D01*
X138760000Y-55696428D01*
X138688571Y-55767857D01*
X138545714Y-55839285D01*
X137974285Y-55839285D01*
X139760000Y-55053571D02*
X140045714Y-55053571D01*
X140188571Y-55125000D01*
X140331428Y-55267857D01*
X140402857Y-55553571D01*
X140402857Y-56053571D01*
X140331428Y-56339285D01*
X140188571Y-56482142D01*
X140045714Y-56553571D01*
X139760000Y-56553571D01*
X139617142Y-56482142D01*
X139474285Y-56339285D01*
X139402857Y-56053571D01*
X139402857Y-55553571D01*
X139474285Y-55267857D01*
X139617142Y-55125000D01*
X139760000Y-55053571D01*
X141045714Y-56553571D02*
X141045714Y-55053571D01*
X141545714Y-56125000D01*
X142045714Y-55053571D01*
X142045714Y-56553571D01*
X144402857Y-55767857D02*
X144617142Y-55839285D01*
X144688571Y-55910714D01*
X144760000Y-56053571D01*
X144760000Y-56267857D01*
X144688571Y-56410714D01*
X144617142Y-56482142D01*
X144474285Y-56553571D01*
X143902857Y-56553571D01*
X143902857Y-55053571D01*
X144402857Y-55053571D01*
X144545714Y-55125000D01*
X144617142Y-55196428D01*
X144688571Y-55339285D01*
X144688571Y-55482142D01*
X144617142Y-55625000D01*
X144545714Y-55696428D01*
X144402857Y-55767857D01*
X143902857Y-55767857D01*
X145331428Y-56125000D02*
X146045714Y-56125000D01*
X145188571Y-56553571D02*
X145688571Y-55053571D01*
X146188571Y-56553571D01*
X146688571Y-56553571D02*
X146688571Y-55053571D01*
X147545714Y-56553571D01*
X147545714Y-55053571D01*
X148260000Y-56553571D02*
X148260000Y-55053571D01*
X149117142Y-56553571D02*
X148474285Y-55696428D01*
X149117142Y-55053571D02*
X148260000Y-55910714D01*
X138260000Y-59032142D02*
X138474285Y-59103571D01*
X138831428Y-59103571D01*
X138974285Y-59032142D01*
X139045714Y-58960714D01*
X139117142Y-58817857D01*
X139117142Y-58675000D01*
X139045714Y-58532142D01*
X138974285Y-58460714D01*
X138831428Y-58389285D01*
X138545714Y-58317857D01*
X138402857Y-58246428D01*
X138331428Y-58175000D01*
X138260000Y-58032142D01*
X138260000Y-57889285D01*
X138331428Y-57746428D01*
X138402857Y-57675000D01*
X138545714Y-57603571D01*
X138902857Y-57603571D01*
X139117142Y-57675000D01*
X139760000Y-58317857D02*
X140260000Y-58317857D01*
X140474285Y-59103571D02*
X139760000Y-59103571D01*
X139760000Y-57603571D01*
X140474285Y-57603571D01*
X141831428Y-59103571D02*
X141117142Y-59103571D01*
X141117142Y-57603571D01*
X142331428Y-58317857D02*
X142831428Y-58317857D01*
X143045714Y-59103571D02*
X142331428Y-59103571D01*
X142331428Y-57603571D01*
X143045714Y-57603571D01*
X144545714Y-58960714D02*
X144474285Y-59032142D01*
X144260000Y-59103571D01*
X144117142Y-59103571D01*
X143902857Y-59032142D01*
X143760000Y-58889285D01*
X143688571Y-58746428D01*
X143617142Y-58460714D01*
X143617142Y-58246428D01*
X143688571Y-57960714D01*
X143760000Y-57817857D01*
X143902857Y-57675000D01*
X144117142Y-57603571D01*
X144260000Y-57603571D01*
X144474285Y-57675000D01*
X144545714Y-57746428D01*
X144974285Y-57603571D02*
X145831428Y-57603571D01*
X145402857Y-59103571D02*
X145402857Y-57603571D01*
X146617142Y-57603571D02*
X146902857Y-57603571D01*
X147045714Y-57675000D01*
X147188571Y-57817857D01*
X147260000Y-58103571D01*
X147260000Y-58603571D01*
X147188571Y-58889285D01*
X147045714Y-59032142D01*
X146902857Y-59103571D01*
X146617142Y-59103571D01*
X146474285Y-59032142D01*
X146331428Y-58889285D01*
X146260000Y-58603571D01*
X146260000Y-58103571D01*
X146331428Y-57817857D01*
X146474285Y-57675000D01*
X146617142Y-57603571D01*
X148760000Y-59103571D02*
X148260000Y-58389285D01*
X147902857Y-59103571D02*
X147902857Y-57603571D01*
X148474285Y-57603571D01*
X148617142Y-57675000D01*
X148688571Y-57746428D01*
X148760000Y-57889285D01*
X148760000Y-58103571D01*
X148688571Y-58246428D01*
X148617142Y-58317857D01*
X148474285Y-58389285D01*
X147902857Y-58389285D01*
D11*
X170180000Y-111760000D02*
X168910000Y-111760000D01*
X170180000Y-63500000D02*
X170180000Y-111760000D01*
X172720000Y-111760000D02*
X147320000Y-111760000D01*
D10*
X125584285Y-118783571D02*
X125584285Y-117283571D01*
X126084285Y-118355000D01*
X126584285Y-117283571D01*
X126584285Y-118783571D01*
X127298571Y-117997857D02*
X127798571Y-117997857D01*
X128012857Y-118783571D02*
X127298571Y-118783571D01*
X127298571Y-117283571D01*
X128012857Y-117283571D01*
X128655714Y-118783571D02*
X128655714Y-117283571D01*
X129155714Y-118355000D01*
X129655714Y-117283571D01*
X129655714Y-118783571D01*
X130655714Y-117283571D02*
X130941428Y-117283571D01*
X131084285Y-117355000D01*
X131227142Y-117497857D01*
X131298571Y-117783571D01*
X131298571Y-118283571D01*
X131227142Y-118569285D01*
X131084285Y-118712142D01*
X130941428Y-118783571D01*
X130655714Y-118783571D01*
X130512857Y-118712142D01*
X130370000Y-118569285D01*
X130298571Y-118283571D01*
X130298571Y-117783571D01*
X130370000Y-117497857D01*
X130512857Y-117355000D01*
X130655714Y-117283571D01*
X132798571Y-118783571D02*
X132298571Y-118069285D01*
X131941428Y-118783571D02*
X131941428Y-117283571D01*
X132512857Y-117283571D01*
X132655714Y-117355000D01*
X132727142Y-117426428D01*
X132798571Y-117569285D01*
X132798571Y-117783571D01*
X132727142Y-117926428D01*
X132655714Y-117997857D01*
X132512857Y-118069285D01*
X131941428Y-118069285D01*
X133727142Y-118069285D02*
X133727142Y-118783571D01*
X133227142Y-117283571D02*
X133727142Y-118069285D01*
X134227142Y-117283571D01*
X135798571Y-118355000D02*
X136512857Y-118355000D01*
X135655714Y-118783571D02*
X136155714Y-117283571D01*
X136655714Y-118783571D01*
X138012857Y-118640714D02*
X137941428Y-118712142D01*
X137727142Y-118783571D01*
X137584285Y-118783571D01*
X137370000Y-118712142D01*
X137227142Y-118569285D01*
X137155714Y-118426428D01*
X137084285Y-118140714D01*
X137084285Y-117926428D01*
X137155714Y-117640714D01*
X137227142Y-117497857D01*
X137370000Y-117355000D01*
X137584285Y-117283571D01*
X137727142Y-117283571D01*
X137941428Y-117355000D01*
X138012857Y-117426428D01*
X139512857Y-118640714D02*
X139441428Y-118712142D01*
X139227142Y-118783571D01*
X139084285Y-118783571D01*
X138870000Y-118712142D01*
X138727142Y-118569285D01*
X138655714Y-118426428D01*
X138584285Y-118140714D01*
X138584285Y-117926428D01*
X138655714Y-117640714D01*
X138727142Y-117497857D01*
X138870000Y-117355000D01*
X139084285Y-117283571D01*
X139227142Y-117283571D01*
X139441428Y-117355000D01*
X139512857Y-117426428D01*
X140155714Y-117997857D02*
X140655714Y-117997857D01*
X140870000Y-118783571D02*
X140155714Y-118783571D01*
X140155714Y-117283571D01*
X140870000Y-117283571D01*
X141441428Y-118712142D02*
X141655714Y-118783571D01*
X142012857Y-118783571D01*
X142155714Y-118712142D01*
X142227142Y-118640714D01*
X142298571Y-118497857D01*
X142298571Y-118355000D01*
X142227142Y-118212142D01*
X142155714Y-118140714D01*
X142012857Y-118069285D01*
X141727142Y-117997857D01*
X141584285Y-117926428D01*
X141512857Y-117855000D01*
X141441428Y-117712142D01*
X141441428Y-117569285D01*
X141512857Y-117426428D01*
X141584285Y-117355000D01*
X141727142Y-117283571D01*
X142084285Y-117283571D01*
X142298571Y-117355000D01*
X142870000Y-118712142D02*
X143084285Y-118783571D01*
X143441428Y-118783571D01*
X143584285Y-118712142D01*
X143655714Y-118640714D01*
X143727142Y-118497857D01*
X143727142Y-118355000D01*
X143655714Y-118212142D01*
X143584285Y-118140714D01*
X143441428Y-118069285D01*
X143155714Y-117997857D01*
X143012857Y-117926428D01*
X142941428Y-117855000D01*
X142870000Y-117712142D01*
X142870000Y-117569285D01*
X142941428Y-117426428D01*
X143012857Y-117355000D01*
X143155714Y-117283571D01*
X143512857Y-117283571D01*
X143727142Y-117355000D01*
X129084285Y-121333571D02*
X129084285Y-119833571D01*
X129441428Y-119833571D01*
X129655714Y-119905000D01*
X129798571Y-120047857D01*
X129870000Y-120190714D01*
X129941428Y-120476428D01*
X129941428Y-120690714D01*
X129870000Y-120976428D01*
X129798571Y-121119285D01*
X129655714Y-121262142D01*
X129441428Y-121333571D01*
X129084285Y-121333571D01*
X130584285Y-120547857D02*
X131084285Y-120547857D01*
X131298571Y-121333571D02*
X130584285Y-121333571D01*
X130584285Y-119833571D01*
X131298571Y-119833571D01*
X132798571Y-121190714D02*
X132727142Y-121262142D01*
X132512857Y-121333571D01*
X132370000Y-121333571D01*
X132155714Y-121262142D01*
X132012857Y-121119285D01*
X131941428Y-120976428D01*
X131870000Y-120690714D01*
X131870000Y-120476428D01*
X131941428Y-120190714D01*
X132012857Y-120047857D01*
X132155714Y-119905000D01*
X132370000Y-119833571D01*
X132512857Y-119833571D01*
X132727142Y-119905000D01*
X132798571Y-119976428D01*
X133727142Y-119833571D02*
X134012857Y-119833571D01*
X134155714Y-119905000D01*
X134298571Y-120047857D01*
X134370000Y-120333571D01*
X134370000Y-120833571D01*
X134298571Y-121119285D01*
X134155714Y-121262142D01*
X134012857Y-121333571D01*
X133727142Y-121333571D01*
X133584285Y-121262142D01*
X133441428Y-121119285D01*
X133370000Y-120833571D01*
X133370000Y-120333571D01*
X133441428Y-120047857D01*
X133584285Y-119905000D01*
X133727142Y-119833571D01*
X135870000Y-121333571D02*
X135370000Y-120619285D01*
X135012857Y-121333571D02*
X135012857Y-119833571D01*
X135584285Y-119833571D01*
X135727142Y-119905000D01*
X135798571Y-119976428D01*
X135870000Y-120119285D01*
X135870000Y-120333571D01*
X135798571Y-120476428D01*
X135727142Y-120547857D01*
X135584285Y-120619285D01*
X135012857Y-120619285D01*
X136512857Y-121333571D02*
X136512857Y-119833571D01*
X136870000Y-119833571D01*
X137084285Y-119905000D01*
X137227142Y-120047857D01*
X137298571Y-120190714D01*
X137370000Y-120476428D01*
X137370000Y-120690714D01*
X137298571Y-120976428D01*
X137227142Y-121119285D01*
X137084285Y-121262142D01*
X136870000Y-121333571D01*
X136512857Y-121333571D01*
X138012857Y-120547857D02*
X138512857Y-120547857D01*
X138727142Y-121333571D02*
X138012857Y-121333571D01*
X138012857Y-119833571D01*
X138727142Y-119833571D01*
X140227142Y-121333571D02*
X139727142Y-120619285D01*
X139370000Y-121333571D02*
X139370000Y-119833571D01*
X139941428Y-119833571D01*
X140084285Y-119905000D01*
X140155714Y-119976428D01*
X140227142Y-120119285D01*
X140227142Y-120333571D01*
X140155714Y-120476428D01*
X140084285Y-120547857D01*
X139941428Y-120619285D01*
X139370000Y-120619285D01*
D11*
X147320000Y-121920000D02*
X124460000Y-121920000D01*
X147320000Y-105410000D02*
X147320000Y-121920000D01*
X124460000Y-105410000D02*
X147320000Y-105410000D01*
X124460000Y-123190000D02*
X124460000Y-63500000D01*
X135890000Y-63500000D02*
X171450000Y-63500000D01*
D10*
X183436571Y-51502571D02*
X183436571Y-52716857D01*
X183508000Y-52859714D01*
X183579428Y-52931142D01*
X183722285Y-53002571D01*
X184008000Y-53002571D01*
X184150857Y-52931142D01*
X184222285Y-52859714D01*
X184293714Y-52716857D01*
X184293714Y-51502571D01*
X184936571Y-52931142D02*
X185150857Y-53002571D01*
X185508000Y-53002571D01*
X185650857Y-52931142D01*
X185722285Y-52859714D01*
X185793714Y-52716857D01*
X185793714Y-52574000D01*
X185722285Y-52431142D01*
X185650857Y-52359714D01*
X185508000Y-52288285D01*
X185222285Y-52216857D01*
X185079428Y-52145428D01*
X185008000Y-52074000D01*
X184936571Y-51931142D01*
X184936571Y-51788285D01*
X185008000Y-51645428D01*
X185079428Y-51574000D01*
X185222285Y-51502571D01*
X185579428Y-51502571D01*
X185793714Y-51574000D01*
X186436571Y-52216857D02*
X186936571Y-52216857D01*
X187150857Y-53002571D02*
X186436571Y-53002571D01*
X186436571Y-51502571D01*
X187150857Y-51502571D01*
X188650857Y-53002571D02*
X188150857Y-52288285D01*
X187793714Y-53002571D02*
X187793714Y-51502571D01*
X188365142Y-51502571D01*
X188508000Y-51574000D01*
X188579428Y-51645428D01*
X188650857Y-51788285D01*
X188650857Y-52002571D01*
X188579428Y-52145428D01*
X188508000Y-52216857D01*
X188365142Y-52288285D01*
X187793714Y-52288285D01*
X191293714Y-53002571D02*
X190793714Y-52288285D01*
X190436571Y-53002571D02*
X190436571Y-51502571D01*
X191008000Y-51502571D01*
X191150857Y-51574000D01*
X191222285Y-51645428D01*
X191293714Y-51788285D01*
X191293714Y-52002571D01*
X191222285Y-52145428D01*
X191150857Y-52216857D01*
X191008000Y-52288285D01*
X190436571Y-52288285D01*
X192222285Y-51502571D02*
X192508000Y-51502571D01*
X192650857Y-51574000D01*
X192793714Y-51716857D01*
X192865142Y-52002571D01*
X192865142Y-52502571D01*
X192793714Y-52788285D01*
X192650857Y-52931142D01*
X192508000Y-53002571D01*
X192222285Y-53002571D01*
X192079428Y-52931142D01*
X191936571Y-52788285D01*
X191865142Y-52502571D01*
X191865142Y-52002571D01*
X191936571Y-51716857D01*
X192079428Y-51574000D01*
X192222285Y-51502571D01*
X193508000Y-53002571D02*
X193508000Y-51502571D01*
X194008000Y-52574000D01*
X194508000Y-51502571D01*
X194508000Y-53002571D01*
X196579428Y-52145428D02*
X196436571Y-52074000D01*
X196365142Y-52002571D01*
X196293714Y-51859714D01*
X196293714Y-51788285D01*
X196365142Y-51645428D01*
X196436571Y-51574000D01*
X196579428Y-51502571D01*
X196865142Y-51502571D01*
X197008000Y-51574000D01*
X197079428Y-51645428D01*
X197150857Y-51788285D01*
X197150857Y-51859714D01*
X197079428Y-52002571D01*
X197008000Y-52074000D01*
X196865142Y-52145428D01*
X196579428Y-52145428D01*
X196436571Y-52216857D01*
X196365142Y-52288285D01*
X196293714Y-52431142D01*
X196293714Y-52716857D01*
X196365142Y-52859714D01*
X196436571Y-52931142D01*
X196579428Y-53002571D01*
X196865142Y-53002571D01*
X197008000Y-52931142D01*
X197079428Y-52859714D01*
X197150857Y-52716857D01*
X197150857Y-52431142D01*
X197079428Y-52288285D01*
X197008000Y-52216857D01*
X196865142Y-52145428D01*
X197793714Y-53002571D02*
X197793714Y-51502571D01*
X198650857Y-53002571D02*
X198008000Y-52145428D01*
X198650857Y-51502571D02*
X197793714Y-52359714D01*
X151892857Y-65372142D02*
X152107142Y-65443571D01*
X152464285Y-65443571D01*
X152607142Y-65372142D01*
X152678571Y-65300714D01*
X152750000Y-65157857D01*
X152750000Y-65015000D01*
X152678571Y-64872142D01*
X152607142Y-64800714D01*
X152464285Y-64729285D01*
X152178571Y-64657857D01*
X152035714Y-64586428D01*
X151964285Y-64515000D01*
X151892857Y-64372142D01*
X151892857Y-64229285D01*
X151964285Y-64086428D01*
X152035714Y-64015000D01*
X152178571Y-63943571D01*
X152535714Y-63943571D01*
X152750000Y-64015000D01*
X153678571Y-64729285D02*
X153678571Y-65443571D01*
X153178571Y-63943571D02*
X153678571Y-64729285D01*
X154178571Y-63943571D01*
X154607142Y-65372142D02*
X154821428Y-65443571D01*
X155178571Y-65443571D01*
X155321428Y-65372142D01*
X155392857Y-65300714D01*
X155464285Y-65157857D01*
X155464285Y-65015000D01*
X155392857Y-64872142D01*
X155321428Y-64800714D01*
X155178571Y-64729285D01*
X154892857Y-64657857D01*
X154750000Y-64586428D01*
X154678571Y-64515000D01*
X154607142Y-64372142D01*
X154607142Y-64229285D01*
X154678571Y-64086428D01*
X154750000Y-64015000D01*
X154892857Y-63943571D01*
X155250000Y-63943571D01*
X155464285Y-64015000D01*
X155892857Y-63943571D02*
X156750000Y-63943571D01*
X156321428Y-65443571D02*
X156321428Y-63943571D01*
X157250000Y-64657857D02*
X157750000Y-64657857D01*
X157964285Y-65443571D02*
X157250000Y-65443571D01*
X157250000Y-63943571D01*
X157964285Y-63943571D01*
X158607142Y-65443571D02*
X158607142Y-63943571D01*
X159107142Y-65015000D01*
X159607142Y-63943571D01*
X159607142Y-65443571D01*
X162321428Y-65443571D02*
X161821428Y-64729285D01*
X161464285Y-65443571D02*
X161464285Y-63943571D01*
X162035714Y-63943571D01*
X162178571Y-64015000D01*
X162250000Y-64086428D01*
X162321428Y-64229285D01*
X162321428Y-64443571D01*
X162250000Y-64586428D01*
X162178571Y-64657857D01*
X162035714Y-64729285D01*
X161464285Y-64729285D01*
X163250000Y-63943571D02*
X163535714Y-63943571D01*
X163678571Y-64015000D01*
X163821428Y-64157857D01*
X163892857Y-64443571D01*
X163892857Y-64943571D01*
X163821428Y-65229285D01*
X163678571Y-65372142D01*
X163535714Y-65443571D01*
X163250000Y-65443571D01*
X163107142Y-65372142D01*
X162964285Y-65229285D01*
X162892857Y-64943571D01*
X162892857Y-64443571D01*
X162964285Y-64157857D01*
X163107142Y-64015000D01*
X163250000Y-63943571D01*
X164535714Y-65443571D02*
X164535714Y-63943571D01*
X165035714Y-65015000D01*
X165535714Y-63943571D01*
X165535714Y-65443571D01*
X154857142Y-67136428D02*
X154714285Y-67065000D01*
X154642857Y-66993571D01*
X154571428Y-66850714D01*
X154571428Y-66779285D01*
X154642857Y-66636428D01*
X154714285Y-66565000D01*
X154857142Y-66493571D01*
X155142857Y-66493571D01*
X155285714Y-66565000D01*
X155357142Y-66636428D01*
X155428571Y-66779285D01*
X155428571Y-66850714D01*
X155357142Y-66993571D01*
X155285714Y-67065000D01*
X155142857Y-67136428D01*
X154857142Y-67136428D01*
X154714285Y-67207857D01*
X154642857Y-67279285D01*
X154571428Y-67422142D01*
X154571428Y-67707857D01*
X154642857Y-67850714D01*
X154714285Y-67922142D01*
X154857142Y-67993571D01*
X155142857Y-67993571D01*
X155285714Y-67922142D01*
X155357142Y-67850714D01*
X155428571Y-67707857D01*
X155428571Y-67422142D01*
X155357142Y-67279285D01*
X155285714Y-67207857D01*
X155142857Y-67136428D01*
X156071428Y-67993571D02*
X156071428Y-66493571D01*
X156928571Y-67993571D02*
X156285714Y-67136428D01*
X156928571Y-66493571D02*
X156071428Y-67350714D01*
X158071428Y-67207857D02*
X158285714Y-67279285D01*
X158357142Y-67350714D01*
X158428571Y-67493571D01*
X158428571Y-67707857D01*
X158357142Y-67850714D01*
X158285714Y-67922142D01*
X158142857Y-67993571D01*
X157571428Y-67993571D01*
X157571428Y-66493571D01*
X158071428Y-66493571D01*
X158214285Y-66565000D01*
X158285714Y-66636428D01*
X158357142Y-66779285D01*
X158357142Y-66922142D01*
X158285714Y-67065000D01*
X158214285Y-67136428D01*
X158071428Y-67207857D01*
X157571428Y-67207857D01*
X158928571Y-66993571D02*
X159285714Y-67993571D01*
X159642857Y-66993571D02*
X159285714Y-67993571D01*
X159142857Y-68350714D01*
X159071428Y-68422142D01*
X158928571Y-68493571D01*
X160000000Y-66993571D02*
X160571428Y-66993571D01*
X160214285Y-66493571D02*
X160214285Y-67779285D01*
X160285714Y-67922142D01*
X160428571Y-67993571D01*
X160571428Y-67993571D01*
X161642857Y-67922142D02*
X161500000Y-67993571D01*
X161214285Y-67993571D01*
X161071428Y-67922142D01*
X161000000Y-67779285D01*
X161000000Y-67207857D01*
X161071428Y-67065000D01*
X161214285Y-66993571D01*
X161500000Y-66993571D01*
X161642857Y-67065000D01*
X161714285Y-67207857D01*
X161714285Y-67350714D01*
X161000000Y-67493571D01*
X162285714Y-67922142D02*
X162428571Y-67993571D01*
X162714285Y-67993571D01*
X162857142Y-67922142D01*
X162928571Y-67779285D01*
X162928571Y-67707857D01*
X162857142Y-67565000D01*
X162714285Y-67493571D01*
X162500000Y-67493571D01*
X162357142Y-67422142D01*
X162285714Y-67279285D01*
X162285714Y-67207857D01*
X162357142Y-67065000D01*
X162500000Y-66993571D01*
X162714285Y-66993571D01*
X162857142Y-67065000D01*
D11*
X124460000Y-129540000D02*
X124460000Y-132080000D01*
X130810000Y-129540000D02*
X124460000Y-129540000D01*
X124460000Y-134620000D02*
X114300000Y-134620000D01*
X130810000Y-129540000D02*
X130810000Y-134620000D01*
X140970000Y-129540000D02*
X130810000Y-129540000D01*
X140970000Y-134620000D02*
X140970000Y-129540000D01*
X147320000Y-134620000D02*
X140970000Y-134620000D01*
X124460000Y-121920000D02*
X124460000Y-134620000D01*
X104140000Y-121920000D02*
X124460000Y-121920000D01*
X104140000Y-118110000D02*
X104140000Y-121920000D01*
D10*
X108351428Y-65718571D02*
X109137142Y-65718571D01*
X108351428Y-66718571D01*
X109137142Y-66718571D01*
X109922857Y-65861428D02*
X109780000Y-65790000D01*
X109708571Y-65718571D01*
X109637142Y-65575714D01*
X109637142Y-65504285D01*
X109708571Y-65361428D01*
X109780000Y-65290000D01*
X109922857Y-65218571D01*
X110208571Y-65218571D01*
X110351428Y-65290000D01*
X110422857Y-65361428D01*
X110494285Y-65504285D01*
X110494285Y-65575714D01*
X110422857Y-65718571D01*
X110351428Y-65790000D01*
X110208571Y-65861428D01*
X109922857Y-65861428D01*
X109780000Y-65932857D01*
X109708571Y-66004285D01*
X109637142Y-66147142D01*
X109637142Y-66432857D01*
X109708571Y-66575714D01*
X109780000Y-66647142D01*
X109922857Y-66718571D01*
X110208571Y-66718571D01*
X110351428Y-66647142D01*
X110422857Y-66575714D01*
X110494285Y-66432857D01*
X110494285Y-66147142D01*
X110422857Y-66004285D01*
X110351428Y-65932857D01*
X110208571Y-65861428D01*
X111422857Y-65218571D02*
X111565714Y-65218571D01*
X111708571Y-65290000D01*
X111780000Y-65361428D01*
X111851428Y-65504285D01*
X111922857Y-65790000D01*
X111922857Y-66147142D01*
X111851428Y-66432857D01*
X111780000Y-66575714D01*
X111708571Y-66647142D01*
X111565714Y-66718571D01*
X111422857Y-66718571D01*
X111280000Y-66647142D01*
X111208571Y-66575714D01*
X111137142Y-66432857D01*
X111065714Y-66147142D01*
X111065714Y-65790000D01*
X111137142Y-65504285D01*
X111208571Y-65361428D01*
X111280000Y-65290000D01*
X111422857Y-65218571D01*
X114565714Y-66575714D02*
X114494285Y-66647142D01*
X114280000Y-66718571D01*
X114137142Y-66718571D01*
X113922857Y-66647142D01*
X113780000Y-66504285D01*
X113708571Y-66361428D01*
X113637142Y-66075714D01*
X113637142Y-65861428D01*
X113708571Y-65575714D01*
X113780000Y-65432857D01*
X113922857Y-65290000D01*
X114137142Y-65218571D01*
X114280000Y-65218571D01*
X114494285Y-65290000D01*
X114565714Y-65361428D01*
X115208571Y-66718571D02*
X115208571Y-65218571D01*
X115780000Y-65218571D01*
X115922857Y-65290000D01*
X115994285Y-65361428D01*
X116065714Y-65504285D01*
X116065714Y-65718571D01*
X115994285Y-65861428D01*
X115922857Y-65932857D01*
X115780000Y-66004285D01*
X115208571Y-66004285D01*
X116708571Y-65218571D02*
X116708571Y-66432857D01*
X116780000Y-66575714D01*
X116851428Y-66647142D01*
X116994285Y-66718571D01*
X117280000Y-66718571D01*
X117422857Y-66647142D01*
X117494285Y-66575714D01*
X117565714Y-66432857D01*
X117565714Y-65218571D01*
X124274071Y-144104214D02*
X124202642Y-144175642D01*
X123988357Y-144247071D01*
X123845500Y-144247071D01*
X123631214Y-144175642D01*
X123488357Y-144032785D01*
X123416928Y-143889928D01*
X123345500Y-143604214D01*
X123345500Y-143389928D01*
X123416928Y-143104214D01*
X123488357Y-142961357D01*
X123631214Y-142818500D01*
X123845500Y-142747071D01*
X123988357Y-142747071D01*
X124202642Y-142818500D01*
X124274071Y-142889928D01*
X125631214Y-144247071D02*
X124916928Y-144247071D01*
X124916928Y-142747071D01*
X126416928Y-142747071D02*
X126702642Y-142747071D01*
X126845500Y-142818500D01*
X126988357Y-142961357D01*
X127059785Y-143247071D01*
X127059785Y-143747071D01*
X126988357Y-144032785D01*
X126845500Y-144175642D01*
X126702642Y-144247071D01*
X126416928Y-144247071D01*
X126274071Y-144175642D01*
X126131214Y-144032785D01*
X126059785Y-143747071D01*
X126059785Y-143247071D01*
X126131214Y-142961357D01*
X126274071Y-142818500D01*
X126416928Y-142747071D01*
X128559785Y-144104214D02*
X128488357Y-144175642D01*
X128274071Y-144247071D01*
X128131214Y-144247071D01*
X127916928Y-144175642D01*
X127774071Y-144032785D01*
X127702642Y-143889928D01*
X127631214Y-143604214D01*
X127631214Y-143389928D01*
X127702642Y-143104214D01*
X127774071Y-142961357D01*
X127916928Y-142818500D01*
X128131214Y-142747071D01*
X128274071Y-142747071D01*
X128488357Y-142818500D01*
X128559785Y-142889928D01*
X129202642Y-144247071D02*
X129202642Y-142747071D01*
X130059785Y-144247071D02*
X129416928Y-143389928D01*
X130059785Y-142747071D02*
X129202642Y-143604214D01*
X131774071Y-144175642D02*
X131988357Y-144247071D01*
X132345500Y-144247071D01*
X132488357Y-144175642D01*
X132559785Y-144104214D01*
X132631214Y-143961357D01*
X132631214Y-143818500D01*
X132559785Y-143675642D01*
X132488357Y-143604214D01*
X132345500Y-143532785D01*
X132059785Y-143461357D01*
X131916928Y-143389928D01*
X131845500Y-143318500D01*
X131774071Y-143175642D01*
X131774071Y-143032785D01*
X131845500Y-142889928D01*
X131916928Y-142818500D01*
X132059785Y-142747071D01*
X132416928Y-142747071D01*
X132631214Y-142818500D01*
X133274071Y-144247071D02*
X133274071Y-142747071D01*
X134774071Y-142818500D02*
X134631214Y-142747071D01*
X134416928Y-142747071D01*
X134202642Y-142818500D01*
X134059785Y-142961357D01*
X133988357Y-143104214D01*
X133916928Y-143389928D01*
X133916928Y-143604214D01*
X133988357Y-143889928D01*
X134059785Y-144032785D01*
X134202642Y-144175642D01*
X134416928Y-144247071D01*
X134559785Y-144247071D01*
X134774071Y-144175642D01*
X134845500Y-144104214D01*
X134845500Y-143604214D01*
X134559785Y-143604214D01*
X123845500Y-145368500D02*
X123702642Y-145297071D01*
X123488357Y-145297071D01*
X123274071Y-145368500D01*
X123131214Y-145511357D01*
X123059785Y-145654214D01*
X122988357Y-145939928D01*
X122988357Y-146154214D01*
X123059785Y-146439928D01*
X123131214Y-146582785D01*
X123274071Y-146725642D01*
X123488357Y-146797071D01*
X123631214Y-146797071D01*
X123845500Y-146725642D01*
X123916928Y-146654214D01*
X123916928Y-146154214D01*
X123631214Y-146154214D01*
X124559785Y-146011357D02*
X125059785Y-146011357D01*
X125274071Y-146797071D02*
X124559785Y-146797071D01*
X124559785Y-145297071D01*
X125274071Y-145297071D01*
X125916928Y-146797071D02*
X125916928Y-145297071D01*
X126774071Y-146797071D01*
X126774071Y-145297071D01*
X127488357Y-146011357D02*
X127988357Y-146011357D01*
X128202642Y-146797071D02*
X127488357Y-146797071D01*
X127488357Y-145297071D01*
X128202642Y-145297071D01*
X129702642Y-146797071D02*
X129202642Y-146082785D01*
X128845500Y-146797071D02*
X128845500Y-145297071D01*
X129416928Y-145297071D01*
X129559785Y-145368500D01*
X129631214Y-145439928D01*
X129702642Y-145582785D01*
X129702642Y-145797071D01*
X129631214Y-145939928D01*
X129559785Y-146011357D01*
X129416928Y-146082785D01*
X128845500Y-146082785D01*
X130274071Y-146368500D02*
X130988357Y-146368500D01*
X130131214Y-146797071D02*
X130631214Y-145297071D01*
X131131214Y-146797071D01*
X131416928Y-145297071D02*
X132274071Y-145297071D01*
X131845500Y-146797071D02*
X131845500Y-145297071D01*
X133059785Y-145297071D02*
X133345500Y-145297071D01*
X133488357Y-145368500D01*
X133631214Y-145511357D01*
X133702642Y-145797071D01*
X133702642Y-146297071D01*
X133631214Y-146582785D01*
X133488357Y-146725642D01*
X133345500Y-146797071D01*
X133059785Y-146797071D01*
X132916928Y-146725642D01*
X132774071Y-146582785D01*
X132702642Y-146297071D01*
X132702642Y-145797071D01*
X132774071Y-145511357D01*
X132916928Y-145368500D01*
X133059785Y-145297071D01*
X135202642Y-146797071D02*
X134702642Y-146082785D01*
X134345500Y-146797071D02*
X134345500Y-145297071D01*
X134916928Y-145297071D01*
X135059785Y-145368500D01*
X135131214Y-145439928D01*
X135202642Y-145582785D01*
X135202642Y-145797071D01*
X135131214Y-145939928D01*
X135059785Y-146011357D01*
X134916928Y-146082785D01*
X134345500Y-146082785D01*
X107438571Y-145966571D02*
X106938571Y-145252285D01*
X106581428Y-145966571D02*
X106581428Y-144466571D01*
X107152857Y-144466571D01*
X107295714Y-144538000D01*
X107367142Y-144609428D01*
X107438571Y-144752285D01*
X107438571Y-144966571D01*
X107367142Y-145109428D01*
X107295714Y-145180857D01*
X107152857Y-145252285D01*
X106581428Y-145252285D01*
X108081428Y-145180857D02*
X108581428Y-145180857D01*
X108795714Y-145966571D02*
X108081428Y-145966571D01*
X108081428Y-144466571D01*
X108795714Y-144466571D01*
X109367142Y-145895142D02*
X109581428Y-145966571D01*
X109938571Y-145966571D01*
X110081428Y-145895142D01*
X110152857Y-145823714D01*
X110224285Y-145680857D01*
X110224285Y-145538000D01*
X110152857Y-145395142D01*
X110081428Y-145323714D01*
X109938571Y-145252285D01*
X109652857Y-145180857D01*
X109510000Y-145109428D01*
X109438571Y-145038000D01*
X109367142Y-144895142D01*
X109367142Y-144752285D01*
X109438571Y-144609428D01*
X109510000Y-144538000D01*
X109652857Y-144466571D01*
X110010000Y-144466571D01*
X110224285Y-144538000D01*
X110867142Y-145180857D02*
X111367142Y-145180857D01*
X111581428Y-145966571D02*
X110867142Y-145966571D01*
X110867142Y-144466571D01*
X111581428Y-144466571D01*
X112010000Y-144466571D02*
X112867142Y-144466571D01*
X112438571Y-145966571D02*
X112438571Y-144466571D01*
X114438571Y-145895142D02*
X114652857Y-145966571D01*
X115010000Y-145966571D01*
X115152857Y-145895142D01*
X115224285Y-145823714D01*
X115295714Y-145680857D01*
X115295714Y-145538000D01*
X115224285Y-145395142D01*
X115152857Y-145323714D01*
X115010000Y-145252285D01*
X114724285Y-145180857D01*
X114581428Y-145109428D01*
X114510000Y-145038000D01*
X114438571Y-144895142D01*
X114438571Y-144752285D01*
X114510000Y-144609428D01*
X114581428Y-144538000D01*
X114724285Y-144466571D01*
X115081428Y-144466571D01*
X115295714Y-144538000D01*
X115795714Y-144466571D02*
X116152857Y-145966571D01*
X116438571Y-144895142D01*
X116724285Y-145966571D01*
X117081428Y-144466571D01*
D12*
G04 #@! TO.C,J1*
X108969000Y-51659000D02*
X115029000Y-51659000D01*
X115029000Y-51659000D02*
X115029000Y-54469000D01*
X115029000Y-59069000D02*
X115029000Y-61879000D01*
X115029000Y-61879000D02*
X108969000Y-61879000D01*
X104869000Y-61879000D02*
X101809000Y-61879000D01*
X101809000Y-61879000D02*
X101809000Y-51659000D01*
X101809000Y-51659000D02*
X104869000Y-51659000D01*
X115219000Y-55769000D02*
X115219000Y-57769000D01*
G04 #@! TO.C,U2*
X135620000Y-68520000D02*
G75*
G02X133620000Y-68520000I-1000000J0D01*
G01*
X133620000Y-68520000D02*
X128160000Y-68520000D01*
X128160000Y-68520000D02*
X128160000Y-104200000D01*
X128160000Y-104200000D02*
X141080000Y-104200000D01*
X141080000Y-104200000D02*
X141080000Y-68520000D01*
X141080000Y-68520000D02*
X135620000Y-68520000D01*
X125670000Y-68460000D02*
X125670000Y-104260000D01*
X125670000Y-104260000D02*
X143570000Y-104260000D01*
X143570000Y-104260000D02*
X143570000Y-68460000D01*
X143570000Y-68460000D02*
X125670000Y-68460000D01*
G04 #@! TO.C,U11*
X152721000Y-140605000D02*
G75*
G02X152721000Y-142605000I0J-1000000D01*
G01*
X152721000Y-142605000D02*
X152721000Y-144255000D01*
X152721000Y-144255000D02*
X173161000Y-144255000D01*
X173161000Y-144255000D02*
X173161000Y-138955000D01*
X173161000Y-138955000D02*
X152721000Y-138955000D01*
X152721000Y-138955000D02*
X152721000Y-140605000D01*
X152661000Y-146745000D02*
X173221000Y-146745000D01*
X173221000Y-146745000D02*
X173221000Y-136465000D01*
X173221000Y-136465000D02*
X152661000Y-136465000D01*
X152661000Y-136465000D02*
X152661000Y-146745000D01*
G04 #@! TO.C,U6*
X167700000Y-68460000D02*
X149800000Y-68460000D01*
X167700000Y-104260000D02*
X167700000Y-68460000D01*
X149800000Y-104260000D02*
X167700000Y-104260000D01*
X149800000Y-68460000D02*
X149800000Y-104260000D01*
X165210000Y-68520000D02*
X159750000Y-68520000D01*
X165210000Y-104200000D02*
X165210000Y-68520000D01*
X152290000Y-104200000D02*
X165210000Y-104200000D01*
X152290000Y-68520000D02*
X152290000Y-104200000D01*
X157750000Y-68520000D02*
X152290000Y-68520000D01*
X159750000Y-68520000D02*
G75*
G02X157750000Y-68520000I-1000000J0D01*
G01*
D13*
G04 #@! TO.C,U7*
X171450000Y-110490000D02*
X171450000Y-54610000D01*
X172720000Y-111760000D02*
X171450000Y-110490000D01*
X196850000Y-111760000D02*
X172720000Y-111760000D01*
X199390000Y-109220000D02*
X196850000Y-111760000D01*
X199390000Y-54610000D02*
X199390000Y-109220000D01*
X198120000Y-53340000D02*
X179070000Y-53340000D01*
X198120000Y-53340000D02*
X199390000Y-54610000D01*
X172720000Y-53340000D02*
X171450000Y-54610000D01*
X172720000Y-111760000D02*
X171450000Y-110490000D01*
X199390000Y-109220000D02*
X196850000Y-111760000D01*
X177800000Y-59690000D02*
X173990000Y-60960000D01*
X177800000Y-58420000D02*
X173990000Y-59690000D01*
X177800000Y-57150000D02*
X173990000Y-58420000D01*
X177800000Y-55880000D02*
X173990000Y-57150000D01*
X177800000Y-54610000D02*
X173990000Y-55880000D01*
X177800000Y-53340000D02*
X173990000Y-54610000D01*
X177800000Y-52070000D02*
X173990000Y-53340000D01*
X177800000Y-50800000D02*
X173990000Y-52070000D01*
X177800000Y-49530000D02*
X173990000Y-50800000D01*
X177800000Y-48260000D02*
X173990000Y-49530000D01*
X173990000Y-50800000D02*
X173990000Y-60960000D01*
X177800000Y-50800000D02*
X177800000Y-60960000D01*
X179070000Y-50800000D02*
X179070000Y-60960000D01*
X172720000Y-50800000D02*
X172720000Y-60960000D01*
X173990000Y-48260000D02*
X173990000Y-50800000D01*
X177800000Y-48260000D02*
X173990000Y-48260000D01*
X179070000Y-48260000D02*
X177800000Y-48260000D01*
X179070000Y-50800000D02*
X179070000Y-48260000D01*
X172720000Y-48260000D02*
X172720000Y-50800000D01*
X177800000Y-48260000D02*
X172720000Y-48260000D01*
X177800000Y-50800000D02*
X177800000Y-48260000D01*
D12*
G04 #@! TO.C,U1*
X114335001Y-68875001D02*
G75*
G02X112335001Y-68875001I-1000000J0D01*
G01*
X112335001Y-68875001D02*
X106875001Y-68875001D01*
X106875001Y-68875001D02*
X106875001Y-119795001D01*
X106875001Y-119795001D02*
X119795001Y-119795001D01*
X119795001Y-119795001D02*
X119795001Y-68875001D01*
X119795001Y-68875001D02*
X114335001Y-68875001D01*
X104385001Y-68815001D02*
X104385001Y-119855001D01*
X104385001Y-119855001D02*
X122285001Y-119855001D01*
X122285001Y-119855001D02*
X122285001Y-68815001D01*
X122285001Y-68815001D02*
X104385001Y-68815001D01*
G04 #@! TO.C,U5*
X125670000Y-127270000D02*
G75*
G02X125670000Y-129270000I0J-1000000D01*
G01*
X125670000Y-129270000D02*
X125670000Y-130920000D01*
X125670000Y-130920000D02*
X143570000Y-130920000D01*
X143570000Y-130920000D02*
X143570000Y-125620000D01*
X143570000Y-125620000D02*
X125670000Y-125620000D01*
X125670000Y-125620000D02*
X125670000Y-127270000D01*
X125610000Y-133410000D02*
X143630000Y-133410000D01*
X143630000Y-133410000D02*
X143630000Y-123130000D01*
X143630000Y-123130000D02*
X125610000Y-123130000D01*
X125610000Y-123130000D02*
X125610000Y-133410000D01*
G04 #@! TO.C,U4*
X104080000Y-127270000D02*
G75*
G02X104080000Y-129270000I0J-1000000D01*
G01*
X104080000Y-129270000D02*
X104080000Y-130920000D01*
X104080000Y-130920000D02*
X121980000Y-130920000D01*
X121980000Y-130920000D02*
X121980000Y-125620000D01*
X121980000Y-125620000D02*
X104080000Y-125620000D01*
X104080000Y-125620000D02*
X104080000Y-127270000D01*
X104020000Y-133410000D02*
X122040000Y-133410000D01*
X122040000Y-133410000D02*
X122040000Y-123130000D01*
X122040000Y-123130000D02*
X104020000Y-123130000D01*
X104020000Y-123130000D02*
X104020000Y-133410000D01*
G04 #@! TO.C,C1*
X122758000Y-65532000D02*
G75*
G03X122758000Y-65532000I-2120000J0D01*
G01*
X120638000Y-66372000D02*
X120638000Y-67612000D01*
X120638000Y-63452000D02*
X120638000Y-64692000D01*
X120678000Y-66372000D02*
X120678000Y-67612000D01*
X120678000Y-63452000D02*
X120678000Y-64692000D01*
X120718000Y-66372000D02*
X120718000Y-67611000D01*
X120718000Y-63453000D02*
X120718000Y-64692000D01*
X120758000Y-63455000D02*
X120758000Y-64692000D01*
X120758000Y-66372000D02*
X120758000Y-67609000D01*
X120798000Y-63458000D02*
X120798000Y-64692000D01*
X120798000Y-66372000D02*
X120798000Y-67606000D01*
X120838000Y-63461000D02*
X120838000Y-64692000D01*
X120838000Y-66372000D02*
X120838000Y-67603000D01*
X120878000Y-63465000D02*
X120878000Y-64692000D01*
X120878000Y-66372000D02*
X120878000Y-67599000D01*
X120918000Y-63470000D02*
X120918000Y-64692000D01*
X120918000Y-66372000D02*
X120918000Y-67594000D01*
X120958000Y-63476000D02*
X120958000Y-64692000D01*
X120958000Y-66372000D02*
X120958000Y-67588000D01*
X120998000Y-63482000D02*
X120998000Y-64692000D01*
X120998000Y-66372000D02*
X120998000Y-67582000D01*
X121038000Y-63490000D02*
X121038000Y-64692000D01*
X121038000Y-66372000D02*
X121038000Y-67574000D01*
X121078000Y-63498000D02*
X121078000Y-64692000D01*
X121078000Y-66372000D02*
X121078000Y-67566000D01*
X121118000Y-63507000D02*
X121118000Y-64692000D01*
X121118000Y-66372000D02*
X121118000Y-67557000D01*
X121158000Y-63516000D02*
X121158000Y-64692000D01*
X121158000Y-66372000D02*
X121158000Y-67548000D01*
X121198000Y-63527000D02*
X121198000Y-64692000D01*
X121198000Y-66372000D02*
X121198000Y-67537000D01*
X121238000Y-63538000D02*
X121238000Y-64692000D01*
X121238000Y-66372000D02*
X121238000Y-67526000D01*
X121278000Y-63550000D02*
X121278000Y-64692000D01*
X121278000Y-66372000D02*
X121278000Y-67514000D01*
X121318000Y-63564000D02*
X121318000Y-64692000D01*
X121318000Y-66372000D02*
X121318000Y-67500000D01*
X121359000Y-63578000D02*
X121359000Y-64692000D01*
X121359000Y-66372000D02*
X121359000Y-67486000D01*
X121399000Y-63592000D02*
X121399000Y-64692000D01*
X121399000Y-66372000D02*
X121399000Y-67472000D01*
X121439000Y-63608000D02*
X121439000Y-64692000D01*
X121439000Y-66372000D02*
X121439000Y-67456000D01*
X121479000Y-63625000D02*
X121479000Y-64692000D01*
X121479000Y-66372000D02*
X121479000Y-67439000D01*
X121519000Y-63643000D02*
X121519000Y-64692000D01*
X121519000Y-66372000D02*
X121519000Y-67421000D01*
X121559000Y-63662000D02*
X121559000Y-64692000D01*
X121559000Y-66372000D02*
X121559000Y-67402000D01*
X121599000Y-63681000D02*
X121599000Y-64692000D01*
X121599000Y-66372000D02*
X121599000Y-67383000D01*
X121639000Y-63702000D02*
X121639000Y-64692000D01*
X121639000Y-66372000D02*
X121639000Y-67362000D01*
X121679000Y-63724000D02*
X121679000Y-64692000D01*
X121679000Y-66372000D02*
X121679000Y-67340000D01*
X121719000Y-63747000D02*
X121719000Y-64692000D01*
X121719000Y-66372000D02*
X121719000Y-67317000D01*
X121759000Y-63772000D02*
X121759000Y-64692000D01*
X121759000Y-66372000D02*
X121759000Y-67292000D01*
X121799000Y-63797000D02*
X121799000Y-64692000D01*
X121799000Y-66372000D02*
X121799000Y-67267000D01*
X121839000Y-63824000D02*
X121839000Y-64692000D01*
X121839000Y-66372000D02*
X121839000Y-67240000D01*
X121879000Y-63852000D02*
X121879000Y-64692000D01*
X121879000Y-66372000D02*
X121879000Y-67212000D01*
X121919000Y-63882000D02*
X121919000Y-64692000D01*
X121919000Y-66372000D02*
X121919000Y-67182000D01*
X121959000Y-63913000D02*
X121959000Y-64692000D01*
X121959000Y-66372000D02*
X121959000Y-67151000D01*
X121999000Y-63945000D02*
X121999000Y-64692000D01*
X121999000Y-66372000D02*
X121999000Y-67119000D01*
X122039000Y-63980000D02*
X122039000Y-64692000D01*
X122039000Y-66372000D02*
X122039000Y-67084000D01*
X122079000Y-64016000D02*
X122079000Y-64692000D01*
X122079000Y-66372000D02*
X122079000Y-67048000D01*
X122119000Y-64054000D02*
X122119000Y-64692000D01*
X122119000Y-66372000D02*
X122119000Y-67010000D01*
X122159000Y-64094000D02*
X122159000Y-64692000D01*
X122159000Y-66372000D02*
X122159000Y-66970000D01*
X122199000Y-64136000D02*
X122199000Y-64692000D01*
X122199000Y-66372000D02*
X122199000Y-66928000D01*
X122239000Y-64181000D02*
X122239000Y-66883000D01*
X122279000Y-64228000D02*
X122279000Y-66836000D01*
X122319000Y-64278000D02*
X122319000Y-66786000D01*
X122359000Y-64332000D02*
X122359000Y-66732000D01*
X122399000Y-64390000D02*
X122399000Y-66674000D01*
X122439000Y-64452000D02*
X122439000Y-66612000D01*
X122479000Y-64519000D02*
X122479000Y-66545000D01*
X122519000Y-64592000D02*
X122519000Y-66472000D01*
X122559000Y-64673000D02*
X122559000Y-66391000D01*
X122599000Y-64764000D02*
X122599000Y-66300000D01*
X122639000Y-64868000D02*
X122639000Y-66196000D01*
X122679000Y-64995000D02*
X122679000Y-66069000D01*
X122719000Y-65162000D02*
X122719000Y-65902000D01*
X118368199Y-64337000D02*
X118768199Y-64337000D01*
X118568199Y-64137000D02*
X118568199Y-64537000D01*
G04 #@! TO.C,C2*
X149440000Y-70600000D02*
G75*
G03X149440000Y-70600000I-2120000J0D01*
G01*
X146480000Y-70600000D02*
X145240000Y-70600000D01*
X149400000Y-70600000D02*
X148160000Y-70600000D01*
X146480000Y-70640000D02*
X145240000Y-70640000D01*
X149400000Y-70640000D02*
X148160000Y-70640000D01*
X146480000Y-70680000D02*
X145241000Y-70680000D01*
X149399000Y-70680000D02*
X148160000Y-70680000D01*
X149397000Y-70720000D02*
X148160000Y-70720000D01*
X146480000Y-70720000D02*
X145243000Y-70720000D01*
X149394000Y-70760000D02*
X148160000Y-70760000D01*
X146480000Y-70760000D02*
X145246000Y-70760000D01*
X149391000Y-70800000D02*
X148160000Y-70800000D01*
X146480000Y-70800000D02*
X145249000Y-70800000D01*
X149387000Y-70840000D02*
X148160000Y-70840000D01*
X146480000Y-70840000D02*
X145253000Y-70840000D01*
X149382000Y-70880000D02*
X148160000Y-70880000D01*
X146480000Y-70880000D02*
X145258000Y-70880000D01*
X149376000Y-70920000D02*
X148160000Y-70920000D01*
X146480000Y-70920000D02*
X145264000Y-70920000D01*
X149370000Y-70960000D02*
X148160000Y-70960000D01*
X146480000Y-70960000D02*
X145270000Y-70960000D01*
X149362000Y-71000000D02*
X148160000Y-71000000D01*
X146480000Y-71000000D02*
X145278000Y-71000000D01*
X149354000Y-71040000D02*
X148160000Y-71040000D01*
X146480000Y-71040000D02*
X145286000Y-71040000D01*
X149345000Y-71080000D02*
X148160000Y-71080000D01*
X146480000Y-71080000D02*
X145295000Y-71080000D01*
X149336000Y-71120000D02*
X148160000Y-71120000D01*
X146480000Y-71120000D02*
X145304000Y-71120000D01*
X149325000Y-71160000D02*
X148160000Y-71160000D01*
X146480000Y-71160000D02*
X145315000Y-71160000D01*
X149314000Y-71200000D02*
X148160000Y-71200000D01*
X146480000Y-71200000D02*
X145326000Y-71200000D01*
X149302000Y-71240000D02*
X148160000Y-71240000D01*
X146480000Y-71240000D02*
X145338000Y-71240000D01*
X149288000Y-71280000D02*
X148160000Y-71280000D01*
X146480000Y-71280000D02*
X145352000Y-71280000D01*
X149274000Y-71321000D02*
X148160000Y-71321000D01*
X146480000Y-71321000D02*
X145366000Y-71321000D01*
X149260000Y-71361000D02*
X148160000Y-71361000D01*
X146480000Y-71361000D02*
X145380000Y-71361000D01*
X149244000Y-71401000D02*
X148160000Y-71401000D01*
X146480000Y-71401000D02*
X145396000Y-71401000D01*
X149227000Y-71441000D02*
X148160000Y-71441000D01*
X146480000Y-71441000D02*
X145413000Y-71441000D01*
X149209000Y-71481000D02*
X148160000Y-71481000D01*
X146480000Y-71481000D02*
X145431000Y-71481000D01*
X149190000Y-71521000D02*
X148160000Y-71521000D01*
X146480000Y-71521000D02*
X145450000Y-71521000D01*
X149171000Y-71561000D02*
X148160000Y-71561000D01*
X146480000Y-71561000D02*
X145469000Y-71561000D01*
X149150000Y-71601000D02*
X148160000Y-71601000D01*
X146480000Y-71601000D02*
X145490000Y-71601000D01*
X149128000Y-71641000D02*
X148160000Y-71641000D01*
X146480000Y-71641000D02*
X145512000Y-71641000D01*
X149105000Y-71681000D02*
X148160000Y-71681000D01*
X146480000Y-71681000D02*
X145535000Y-71681000D01*
X149080000Y-71721000D02*
X148160000Y-71721000D01*
X146480000Y-71721000D02*
X145560000Y-71721000D01*
X149055000Y-71761000D02*
X148160000Y-71761000D01*
X146480000Y-71761000D02*
X145585000Y-71761000D01*
X149028000Y-71801000D02*
X148160000Y-71801000D01*
X146480000Y-71801000D02*
X145612000Y-71801000D01*
X149000000Y-71841000D02*
X148160000Y-71841000D01*
X146480000Y-71841000D02*
X145640000Y-71841000D01*
X148970000Y-71881000D02*
X148160000Y-71881000D01*
X146480000Y-71881000D02*
X145670000Y-71881000D01*
X148939000Y-71921000D02*
X148160000Y-71921000D01*
X146480000Y-71921000D02*
X145701000Y-71921000D01*
X148907000Y-71961000D02*
X148160000Y-71961000D01*
X146480000Y-71961000D02*
X145733000Y-71961000D01*
X148872000Y-72001000D02*
X148160000Y-72001000D01*
X146480000Y-72001000D02*
X145768000Y-72001000D01*
X148836000Y-72041000D02*
X148160000Y-72041000D01*
X146480000Y-72041000D02*
X145804000Y-72041000D01*
X148798000Y-72081000D02*
X148160000Y-72081000D01*
X146480000Y-72081000D02*
X145842000Y-72081000D01*
X148758000Y-72121000D02*
X148160000Y-72121000D01*
X146480000Y-72121000D02*
X145882000Y-72121000D01*
X148716000Y-72161000D02*
X148160000Y-72161000D01*
X146480000Y-72161000D02*
X145924000Y-72161000D01*
X148671000Y-72201000D02*
X145969000Y-72201000D01*
X148624000Y-72241000D02*
X146016000Y-72241000D01*
X148574000Y-72281000D02*
X146066000Y-72281000D01*
X148520000Y-72321000D02*
X146120000Y-72321000D01*
X148462000Y-72361000D02*
X146178000Y-72361000D01*
X148400000Y-72401000D02*
X146240000Y-72401000D01*
X148333000Y-72441000D02*
X146307000Y-72441000D01*
X148260000Y-72481000D02*
X146380000Y-72481000D01*
X148179000Y-72521000D02*
X146461000Y-72521000D01*
X148088000Y-72561000D02*
X146552000Y-72561000D01*
X147984000Y-72601000D02*
X146656000Y-72601000D01*
X147857000Y-72641000D02*
X146783000Y-72641000D01*
X147690000Y-72681000D02*
X146950000Y-72681000D01*
X148515000Y-68330199D02*
X148515000Y-68730199D01*
X148715000Y-68530199D02*
X148315000Y-68530199D01*
G04 #@! TO.C,U3*
X126940000Y-110760000D02*
G75*
G02X126940000Y-112760000I0J-1000000D01*
G01*
X126940000Y-112760000D02*
X126940000Y-114410000D01*
X126940000Y-114410000D02*
X144840000Y-114410000D01*
X144840000Y-114410000D02*
X144840000Y-109110000D01*
X144840000Y-109110000D02*
X126940000Y-109110000D01*
X126940000Y-109110000D02*
X126940000Y-110760000D01*
X126880000Y-116900000D02*
X144900000Y-116900000D01*
X144900000Y-116900000D02*
X144900000Y-106620000D01*
X144900000Y-106620000D02*
X126880000Y-106620000D01*
X126880000Y-106620000D02*
X126880000Y-116900000D01*
G04 #@! TO.C,C3*
X123024000Y-137910000D02*
G75*
G03X123024000Y-137910000I-2120000J0D01*
G01*
X120064000Y-137910000D02*
X118824000Y-137910000D01*
X122984000Y-137910000D02*
X121744000Y-137910000D01*
X120064000Y-137950000D02*
X118824000Y-137950000D01*
X122984000Y-137950000D02*
X121744000Y-137950000D01*
X120064000Y-137990000D02*
X118825000Y-137990000D01*
X122983000Y-137990000D02*
X121744000Y-137990000D01*
X122981000Y-138030000D02*
X121744000Y-138030000D01*
X120064000Y-138030000D02*
X118827000Y-138030000D01*
X122978000Y-138070000D02*
X121744000Y-138070000D01*
X120064000Y-138070000D02*
X118830000Y-138070000D01*
X122975000Y-138110000D02*
X121744000Y-138110000D01*
X120064000Y-138110000D02*
X118833000Y-138110000D01*
X122971000Y-138150000D02*
X121744000Y-138150000D01*
X120064000Y-138150000D02*
X118837000Y-138150000D01*
X122966000Y-138190000D02*
X121744000Y-138190000D01*
X120064000Y-138190000D02*
X118842000Y-138190000D01*
X122960000Y-138230000D02*
X121744000Y-138230000D01*
X120064000Y-138230000D02*
X118848000Y-138230000D01*
X122954000Y-138270000D02*
X121744000Y-138270000D01*
X120064000Y-138270000D02*
X118854000Y-138270000D01*
X122946000Y-138310000D02*
X121744000Y-138310000D01*
X120064000Y-138310000D02*
X118862000Y-138310000D01*
X122938000Y-138350000D02*
X121744000Y-138350000D01*
X120064000Y-138350000D02*
X118870000Y-138350000D01*
X122929000Y-138390000D02*
X121744000Y-138390000D01*
X120064000Y-138390000D02*
X118879000Y-138390000D01*
X122920000Y-138430000D02*
X121744000Y-138430000D01*
X120064000Y-138430000D02*
X118888000Y-138430000D01*
X122909000Y-138470000D02*
X121744000Y-138470000D01*
X120064000Y-138470000D02*
X118899000Y-138470000D01*
X122898000Y-138510000D02*
X121744000Y-138510000D01*
X120064000Y-138510000D02*
X118910000Y-138510000D01*
X122886000Y-138550000D02*
X121744000Y-138550000D01*
X120064000Y-138550000D02*
X118922000Y-138550000D01*
X122872000Y-138590000D02*
X121744000Y-138590000D01*
X120064000Y-138590000D02*
X118936000Y-138590000D01*
X122858000Y-138631000D02*
X121744000Y-138631000D01*
X120064000Y-138631000D02*
X118950000Y-138631000D01*
X122844000Y-138671000D02*
X121744000Y-138671000D01*
X120064000Y-138671000D02*
X118964000Y-138671000D01*
X122828000Y-138711000D02*
X121744000Y-138711000D01*
X120064000Y-138711000D02*
X118980000Y-138711000D01*
X122811000Y-138751000D02*
X121744000Y-138751000D01*
X120064000Y-138751000D02*
X118997000Y-138751000D01*
X122793000Y-138791000D02*
X121744000Y-138791000D01*
X120064000Y-138791000D02*
X119015000Y-138791000D01*
X122774000Y-138831000D02*
X121744000Y-138831000D01*
X120064000Y-138831000D02*
X119034000Y-138831000D01*
X122755000Y-138871000D02*
X121744000Y-138871000D01*
X120064000Y-138871000D02*
X119053000Y-138871000D01*
X122734000Y-138911000D02*
X121744000Y-138911000D01*
X120064000Y-138911000D02*
X119074000Y-138911000D01*
X122712000Y-138951000D02*
X121744000Y-138951000D01*
X120064000Y-138951000D02*
X119096000Y-138951000D01*
X122689000Y-138991000D02*
X121744000Y-138991000D01*
X120064000Y-138991000D02*
X119119000Y-138991000D01*
X122664000Y-139031000D02*
X121744000Y-139031000D01*
X120064000Y-139031000D02*
X119144000Y-139031000D01*
X122639000Y-139071000D02*
X121744000Y-139071000D01*
X120064000Y-139071000D02*
X119169000Y-139071000D01*
X122612000Y-139111000D02*
X121744000Y-139111000D01*
X120064000Y-139111000D02*
X119196000Y-139111000D01*
X122584000Y-139151000D02*
X121744000Y-139151000D01*
X120064000Y-139151000D02*
X119224000Y-139151000D01*
X122554000Y-139191000D02*
X121744000Y-139191000D01*
X120064000Y-139191000D02*
X119254000Y-139191000D01*
X122523000Y-139231000D02*
X121744000Y-139231000D01*
X120064000Y-139231000D02*
X119285000Y-139231000D01*
X122491000Y-139271000D02*
X121744000Y-139271000D01*
X120064000Y-139271000D02*
X119317000Y-139271000D01*
X122456000Y-139311000D02*
X121744000Y-139311000D01*
X120064000Y-139311000D02*
X119352000Y-139311000D01*
X122420000Y-139351000D02*
X121744000Y-139351000D01*
X120064000Y-139351000D02*
X119388000Y-139351000D01*
X122382000Y-139391000D02*
X121744000Y-139391000D01*
X120064000Y-139391000D02*
X119426000Y-139391000D01*
X122342000Y-139431000D02*
X121744000Y-139431000D01*
X120064000Y-139431000D02*
X119466000Y-139431000D01*
X122300000Y-139471000D02*
X121744000Y-139471000D01*
X120064000Y-139471000D02*
X119508000Y-139471000D01*
X122255000Y-139511000D02*
X119553000Y-139511000D01*
X122208000Y-139551000D02*
X119600000Y-139551000D01*
X122158000Y-139591000D02*
X119650000Y-139591000D01*
X122104000Y-139631000D02*
X119704000Y-139631000D01*
X122046000Y-139671000D02*
X119762000Y-139671000D01*
X121984000Y-139711000D02*
X119824000Y-139711000D01*
X121917000Y-139751000D02*
X119891000Y-139751000D01*
X121844000Y-139791000D02*
X119964000Y-139791000D01*
X121763000Y-139831000D02*
X120045000Y-139831000D01*
X121672000Y-139871000D02*
X120136000Y-139871000D01*
X121568000Y-139911000D02*
X120240000Y-139911000D01*
X121441000Y-139951000D02*
X120367000Y-139951000D01*
X121274000Y-139991000D02*
X120534000Y-139991000D01*
X122099000Y-135640199D02*
X122099000Y-136040199D01*
X122299000Y-135840199D02*
X121899000Y-135840199D01*
G04 #@! TO.C,R1*
X114904000Y-141620000D02*
X114904000Y-137780000D01*
X116744000Y-141620000D02*
X116744000Y-137780000D01*
G04 #@! TO.C,SW1*
X107784000Y-142660000D02*
X112284000Y-142660000D01*
X106534000Y-138660000D02*
X106534000Y-140160000D01*
X112284000Y-136160000D02*
X107784000Y-136160000D01*
X113534000Y-140160000D02*
X113534000Y-138660000D01*
G04 #@! TO.C,C4*
X121520000Y-142975000D02*
X117280000Y-142975000D01*
X121520000Y-140235000D02*
X117280000Y-140235000D01*
X121520000Y-142975000D02*
X121520000Y-142270000D01*
X121520000Y-140940000D02*
X121520000Y-140235000D01*
X117280000Y-142975000D02*
X117280000Y-142270000D01*
X117280000Y-140940000D02*
X117280000Y-140235000D01*
G04 #@! TO.C,C5*
X140530000Y-142270000D02*
X140530000Y-142975000D01*
X140530000Y-140235000D02*
X140530000Y-140940000D01*
X136290000Y-142270000D02*
X136290000Y-142975000D01*
X136290000Y-140235000D02*
X136290000Y-140940000D01*
X136290000Y-142975000D02*
X140530000Y-142975000D01*
X136290000Y-140235000D02*
X140530000Y-140235000D01*
G04 #@! TO.C,R2*
X141620000Y-136810000D02*
X137780000Y-136810000D01*
X141620000Y-134970000D02*
X137780000Y-134970000D01*
G04 #@! TO.C,R3*
X141620000Y-137510000D02*
X137780000Y-137510000D01*
X141620000Y-139350000D02*
X137780000Y-139350000D01*
G04 #@! TO.C,Y1*
X125055000Y-137175000D02*
X131305000Y-137175000D01*
X125055000Y-142225000D02*
X131305000Y-142225000D01*
X125055000Y-142225000D02*
G75*
G02X125055000Y-137175000I0J2525000D01*
G01*
X131305000Y-142225000D02*
G75*
G03X131305000Y-137175000I0J2525000D01*
G01*
G04 #@! TO.C,U8*
X151070000Y-56150000D02*
G75*
G02X151070000Y-58150000I0J-1000000D01*
G01*
X151070000Y-58150000D02*
X151070000Y-59800000D01*
X151070000Y-59800000D02*
X168970000Y-59800000D01*
X168970000Y-59800000D02*
X168970000Y-54500000D01*
X168970000Y-54500000D02*
X151070000Y-54500000D01*
X151070000Y-54500000D02*
X151070000Y-56150000D01*
X151010000Y-62290000D02*
X169030000Y-62290000D01*
X169030000Y-62290000D02*
X169030000Y-52010000D01*
X169030000Y-52010000D02*
X151010000Y-52010000D01*
X151010000Y-52010000D02*
X151010000Y-62290000D01*
G04 #@! TO.C,C6*
X125365500Y-53614000D02*
G75*
G03X125365500Y-53614000I-2620000J0D01*
G01*
X120165500Y-53614000D02*
X125325500Y-53614000D01*
X120165500Y-53574000D02*
X125325500Y-53574000D01*
X120166500Y-53534000D02*
X125324500Y-53534000D01*
X120167500Y-53494000D02*
X125323500Y-53494000D01*
X120169500Y-53454000D02*
X125321500Y-53454000D01*
X120172500Y-53414000D02*
X125318500Y-53414000D01*
X120176500Y-53374000D02*
X121705500Y-53374000D01*
X123785500Y-53374000D02*
X125314500Y-53374000D01*
X120180500Y-53334000D02*
X121705500Y-53334000D01*
X123785500Y-53334000D02*
X125310500Y-53334000D01*
X120184500Y-53294000D02*
X121705500Y-53294000D01*
X123785500Y-53294000D02*
X125306500Y-53294000D01*
X120189500Y-53254000D02*
X121705500Y-53254000D01*
X123785500Y-53254000D02*
X125301500Y-53254000D01*
X120195500Y-53214000D02*
X121705500Y-53214000D01*
X123785500Y-53214000D02*
X125295500Y-53214000D01*
X120202500Y-53174000D02*
X121705500Y-53174000D01*
X123785500Y-53174000D02*
X125288500Y-53174000D01*
X120209500Y-53134000D02*
X121705500Y-53134000D01*
X123785500Y-53134000D02*
X125281500Y-53134000D01*
X120217500Y-53094000D02*
X121705500Y-53094000D01*
X123785500Y-53094000D02*
X125273500Y-53094000D01*
X120225500Y-53054000D02*
X121705500Y-53054000D01*
X123785500Y-53054000D02*
X125265500Y-53054000D01*
X120234500Y-53014000D02*
X121705500Y-53014000D01*
X123785500Y-53014000D02*
X125256500Y-53014000D01*
X120244500Y-52974000D02*
X121705500Y-52974000D01*
X123785500Y-52974000D02*
X125246500Y-52974000D01*
X120254500Y-52934000D02*
X121705500Y-52934000D01*
X123785500Y-52934000D02*
X125236500Y-52934000D01*
X120265500Y-52893000D02*
X121705500Y-52893000D01*
X123785500Y-52893000D02*
X125225500Y-52893000D01*
X120277500Y-52853000D02*
X121705500Y-52853000D01*
X123785500Y-52853000D02*
X125213500Y-52853000D01*
X120290500Y-52813000D02*
X121705500Y-52813000D01*
X123785500Y-52813000D02*
X125200500Y-52813000D01*
X120303500Y-52773000D02*
X121705500Y-52773000D01*
X123785500Y-52773000D02*
X125187500Y-52773000D01*
X120317500Y-52733000D02*
X121705500Y-52733000D01*
X123785500Y-52733000D02*
X125173500Y-52733000D01*
X120331500Y-52693000D02*
X121705500Y-52693000D01*
X123785500Y-52693000D02*
X125159500Y-52693000D01*
X120347500Y-52653000D02*
X121705500Y-52653000D01*
X123785500Y-52653000D02*
X125143500Y-52653000D01*
X120363500Y-52613000D02*
X121705500Y-52613000D01*
X123785500Y-52613000D02*
X125127500Y-52613000D01*
X120380500Y-52573000D02*
X121705500Y-52573000D01*
X123785500Y-52573000D02*
X125110500Y-52573000D01*
X120397500Y-52533000D02*
X121705500Y-52533000D01*
X123785500Y-52533000D02*
X125093500Y-52533000D01*
X120416500Y-52493000D02*
X121705500Y-52493000D01*
X123785500Y-52493000D02*
X125074500Y-52493000D01*
X120435500Y-52453000D02*
X121705500Y-52453000D01*
X123785500Y-52453000D02*
X125055500Y-52453000D01*
X120455500Y-52413000D02*
X121705500Y-52413000D01*
X123785500Y-52413000D02*
X125035500Y-52413000D01*
X120477500Y-52373000D02*
X121705500Y-52373000D01*
X123785500Y-52373000D02*
X125013500Y-52373000D01*
X120498500Y-52333000D02*
X121705500Y-52333000D01*
X123785500Y-52333000D02*
X124992500Y-52333000D01*
X120521500Y-52293000D02*
X121705500Y-52293000D01*
X123785500Y-52293000D02*
X124969500Y-52293000D01*
X120545500Y-52253000D02*
X121705500Y-52253000D01*
X123785500Y-52253000D02*
X124945500Y-52253000D01*
X120570500Y-52213000D02*
X121705500Y-52213000D01*
X123785500Y-52213000D02*
X124920500Y-52213000D01*
X120596500Y-52173000D02*
X121705500Y-52173000D01*
X123785500Y-52173000D02*
X124894500Y-52173000D01*
X120623500Y-52133000D02*
X121705500Y-52133000D01*
X123785500Y-52133000D02*
X124867500Y-52133000D01*
X120650500Y-52093000D02*
X121705500Y-52093000D01*
X123785500Y-52093000D02*
X124840500Y-52093000D01*
X120680500Y-52053000D02*
X121705500Y-52053000D01*
X123785500Y-52053000D02*
X124810500Y-52053000D01*
X120710500Y-52013000D02*
X121705500Y-52013000D01*
X123785500Y-52013000D02*
X124780500Y-52013000D01*
X120741500Y-51973000D02*
X121705500Y-51973000D01*
X123785500Y-51973000D02*
X124749500Y-51973000D01*
X120774500Y-51933000D02*
X121705500Y-51933000D01*
X123785500Y-51933000D02*
X124716500Y-51933000D01*
X120808500Y-51893000D02*
X121705500Y-51893000D01*
X123785500Y-51893000D02*
X124682500Y-51893000D01*
X120844500Y-51853000D02*
X121705500Y-51853000D01*
X123785500Y-51853000D02*
X124646500Y-51853000D01*
X120881500Y-51813000D02*
X121705500Y-51813000D01*
X123785500Y-51813000D02*
X124609500Y-51813000D01*
X120919500Y-51773000D02*
X121705500Y-51773000D01*
X123785500Y-51773000D02*
X124571500Y-51773000D01*
X120960500Y-51733000D02*
X121705500Y-51733000D01*
X123785500Y-51733000D02*
X124530500Y-51733000D01*
X121002500Y-51693000D02*
X121705500Y-51693000D01*
X123785500Y-51693000D02*
X124488500Y-51693000D01*
X121046500Y-51653000D02*
X121705500Y-51653000D01*
X123785500Y-51653000D02*
X124444500Y-51653000D01*
X121092500Y-51613000D02*
X121705500Y-51613000D01*
X123785500Y-51613000D02*
X124398500Y-51613000D01*
X121140500Y-51573000D02*
X121705500Y-51573000D01*
X123785500Y-51573000D02*
X124350500Y-51573000D01*
X121191500Y-51533000D02*
X121705500Y-51533000D01*
X123785500Y-51533000D02*
X124299500Y-51533000D01*
X121245500Y-51493000D02*
X121705500Y-51493000D01*
X123785500Y-51493000D02*
X124245500Y-51493000D01*
X121302500Y-51453000D02*
X121705500Y-51453000D01*
X123785500Y-51453000D02*
X124188500Y-51453000D01*
X121362500Y-51413000D02*
X121705500Y-51413000D01*
X123785500Y-51413000D02*
X124128500Y-51413000D01*
X121426500Y-51373000D02*
X121705500Y-51373000D01*
X123785500Y-51373000D02*
X124064500Y-51373000D01*
X121494500Y-51333000D02*
X121705500Y-51333000D01*
X123785500Y-51333000D02*
X123996500Y-51333000D01*
X121567500Y-51293000D02*
X123923500Y-51293000D01*
X121647500Y-51253000D02*
X123843500Y-51253000D01*
X121734500Y-51213000D02*
X123756500Y-51213000D01*
X121830500Y-51173000D02*
X123660500Y-51173000D01*
X121940500Y-51133000D02*
X123550500Y-51133000D01*
X122068500Y-51093000D02*
X123422500Y-51093000D01*
X122227500Y-51053000D02*
X123263500Y-51053000D01*
X122461500Y-51013000D02*
X123029500Y-51013000D01*
X121270500Y-56418775D02*
X121270500Y-55918775D01*
X121020500Y-56168775D02*
X121520500Y-56168775D01*
G04 #@! TO.C,D1*
X119487000Y-58272000D02*
X119487000Y-61362000D01*
X124547000Y-59817000D02*
G75*
G03X124547000Y-59817000I-2500000J0D01*
G01*
X125037000Y-59816538D02*
G75*
G02X119487000Y-61361830I-2990000J-462D01*
G01*
X125037000Y-59817462D02*
G75*
G03X119487000Y-58272170I-2990000J462D01*
G01*
D13*
G04 #@! TO.C,J2*
X142486000Y-49744500D02*
X141486000Y-49744500D01*
X144286000Y-54144500D02*
X136486000Y-54144500D01*
X144286000Y-50644500D02*
X144286000Y-50044500D01*
X144286000Y-50044500D02*
X136486000Y-50044500D01*
X136486000Y-50044500D02*
X136486000Y-50644500D01*
X144286000Y-53544500D02*
X144286000Y-54144500D01*
X136486000Y-54144500D02*
X136486000Y-53544500D01*
D12*
G04 #@! TO.C,R4*
X118077500Y-56911000D02*
X118077500Y-53071000D01*
X116237500Y-56911000D02*
X116237500Y-53071000D01*
G04 #@! TO.C,SW2*
X135650500Y-52343000D02*
X135650500Y-59164000D01*
X131430500Y-52343000D02*
X131430500Y-59164000D01*
X135650500Y-52343000D02*
X134580500Y-52343000D01*
X132500500Y-52343000D02*
X131430500Y-52343000D01*
X135650500Y-59164000D02*
X134530500Y-59164000D01*
X132550500Y-59164000D02*
X131430500Y-59164000D01*
X135890500Y-52103000D02*
X135890500Y-53486000D01*
X135890500Y-52103000D02*
X134580500Y-52103000D01*
X134175500Y-53943000D02*
X132905500Y-53943000D01*
X132905500Y-53943000D02*
X132905500Y-57563000D01*
X132905500Y-57563000D02*
X134175500Y-57563000D01*
X134175500Y-57563000D02*
X134175500Y-53943000D01*
X134055500Y-53943000D02*
X134055500Y-55149667D01*
X133935500Y-53943000D02*
X133935500Y-55149667D01*
X133815500Y-53943000D02*
X133815500Y-55149667D01*
X133695500Y-53943000D02*
X133695500Y-55149667D01*
X133575500Y-53943000D02*
X133575500Y-55149667D01*
X133455500Y-53943000D02*
X133455500Y-55149667D01*
X133335500Y-53943000D02*
X133335500Y-55149667D01*
X133215500Y-53943000D02*
X133215500Y-55149667D01*
X133095500Y-53943000D02*
X133095500Y-55149667D01*
X132975500Y-53943000D02*
X132975500Y-55149667D01*
X134175500Y-55149667D02*
X132905500Y-55149667D01*
G04 #@! TO.C,U9*
X125508000Y-61508000D02*
X125508000Y-51268000D01*
X130149000Y-61508000D02*
X130149000Y-51268000D01*
X125508000Y-61508000D02*
X130149000Y-61508000D01*
X125508000Y-51268000D02*
X130149000Y-51268000D01*
X127018000Y-61508000D02*
X127018000Y-51268000D01*
X125508000Y-58238000D02*
X127018000Y-58238000D01*
X125508000Y-54537000D02*
X127018000Y-54537000D01*
G04 #@! TO.C,C7*
X150976000Y-145415000D02*
G75*
G03X150976000Y-145415000I-2120000J0D01*
G01*
X148856000Y-144575000D02*
X148856000Y-143335000D01*
X148856000Y-147495000D02*
X148856000Y-146255000D01*
X148816000Y-144575000D02*
X148816000Y-143335000D01*
X148816000Y-147495000D02*
X148816000Y-146255000D01*
X148776000Y-144575000D02*
X148776000Y-143336000D01*
X148776000Y-147494000D02*
X148776000Y-146255000D01*
X148736000Y-147492000D02*
X148736000Y-146255000D01*
X148736000Y-144575000D02*
X148736000Y-143338000D01*
X148696000Y-147489000D02*
X148696000Y-146255000D01*
X148696000Y-144575000D02*
X148696000Y-143341000D01*
X148656000Y-147486000D02*
X148656000Y-146255000D01*
X148656000Y-144575000D02*
X148656000Y-143344000D01*
X148616000Y-147482000D02*
X148616000Y-146255000D01*
X148616000Y-144575000D02*
X148616000Y-143348000D01*
X148576000Y-147477000D02*
X148576000Y-146255000D01*
X148576000Y-144575000D02*
X148576000Y-143353000D01*
X148536000Y-147471000D02*
X148536000Y-146255000D01*
X148536000Y-144575000D02*
X148536000Y-143359000D01*
X148496000Y-147465000D02*
X148496000Y-146255000D01*
X148496000Y-144575000D02*
X148496000Y-143365000D01*
X148456000Y-147457000D02*
X148456000Y-146255000D01*
X148456000Y-144575000D02*
X148456000Y-143373000D01*
X148416000Y-147449000D02*
X148416000Y-146255000D01*
X148416000Y-144575000D02*
X148416000Y-143381000D01*
X148376000Y-147440000D02*
X148376000Y-146255000D01*
X148376000Y-144575000D02*
X148376000Y-143390000D01*
X148336000Y-147431000D02*
X148336000Y-146255000D01*
X148336000Y-144575000D02*
X148336000Y-143399000D01*
X148296000Y-147420000D02*
X148296000Y-146255000D01*
X148296000Y-144575000D02*
X148296000Y-143410000D01*
X148256000Y-147409000D02*
X148256000Y-146255000D01*
X148256000Y-144575000D02*
X148256000Y-143421000D01*
X148216000Y-147397000D02*
X148216000Y-146255000D01*
X148216000Y-144575000D02*
X148216000Y-143433000D01*
X148176000Y-147383000D02*
X148176000Y-146255000D01*
X148176000Y-144575000D02*
X148176000Y-143447000D01*
X148135000Y-147369000D02*
X148135000Y-146255000D01*
X148135000Y-144575000D02*
X148135000Y-143461000D01*
X148095000Y-147355000D02*
X148095000Y-146255000D01*
X148095000Y-144575000D02*
X148095000Y-143475000D01*
X148055000Y-147339000D02*
X148055000Y-146255000D01*
X148055000Y-144575000D02*
X148055000Y-143491000D01*
X148015000Y-147322000D02*
X148015000Y-146255000D01*
X148015000Y-144575000D02*
X148015000Y-143508000D01*
X147975000Y-147304000D02*
X147975000Y-146255000D01*
X147975000Y-144575000D02*
X147975000Y-143526000D01*
X147935000Y-147285000D02*
X147935000Y-146255000D01*
X147935000Y-144575000D02*
X147935000Y-143545000D01*
X147895000Y-147266000D02*
X147895000Y-146255000D01*
X147895000Y-144575000D02*
X147895000Y-143564000D01*
X147855000Y-147245000D02*
X147855000Y-146255000D01*
X147855000Y-144575000D02*
X147855000Y-143585000D01*
X147815000Y-147223000D02*
X147815000Y-146255000D01*
X147815000Y-144575000D02*
X147815000Y-143607000D01*
X147775000Y-147200000D02*
X147775000Y-146255000D01*
X147775000Y-144575000D02*
X147775000Y-143630000D01*
X147735000Y-147175000D02*
X147735000Y-146255000D01*
X147735000Y-144575000D02*
X147735000Y-143655000D01*
X147695000Y-147150000D02*
X147695000Y-146255000D01*
X147695000Y-144575000D02*
X147695000Y-143680000D01*
X147655000Y-147123000D02*
X147655000Y-146255000D01*
X147655000Y-144575000D02*
X147655000Y-143707000D01*
X147615000Y-147095000D02*
X147615000Y-146255000D01*
X147615000Y-144575000D02*
X147615000Y-143735000D01*
X147575000Y-147065000D02*
X147575000Y-146255000D01*
X147575000Y-144575000D02*
X147575000Y-143765000D01*
X147535000Y-147034000D02*
X147535000Y-146255000D01*
X147535000Y-144575000D02*
X147535000Y-143796000D01*
X147495000Y-147002000D02*
X147495000Y-146255000D01*
X147495000Y-144575000D02*
X147495000Y-143828000D01*
X147455000Y-146967000D02*
X147455000Y-146255000D01*
X147455000Y-144575000D02*
X147455000Y-143863000D01*
X147415000Y-146931000D02*
X147415000Y-146255000D01*
X147415000Y-144575000D02*
X147415000Y-143899000D01*
X147375000Y-146893000D02*
X147375000Y-146255000D01*
X147375000Y-144575000D02*
X147375000Y-143937000D01*
X147335000Y-146853000D02*
X147335000Y-146255000D01*
X147335000Y-144575000D02*
X147335000Y-143977000D01*
X147295000Y-146811000D02*
X147295000Y-146255000D01*
X147295000Y-144575000D02*
X147295000Y-144019000D01*
X147255000Y-146766000D02*
X147255000Y-144064000D01*
X147215000Y-146719000D02*
X147215000Y-144111000D01*
X147175000Y-146669000D02*
X147175000Y-144161000D01*
X147135000Y-146615000D02*
X147135000Y-144215000D01*
X147095000Y-146557000D02*
X147095000Y-144273000D01*
X147055000Y-146495000D02*
X147055000Y-144335000D01*
X147015000Y-146428000D02*
X147015000Y-144402000D01*
X146975000Y-146355000D02*
X146975000Y-144475000D01*
X146935000Y-146274000D02*
X146935000Y-144556000D01*
X146895000Y-146183000D02*
X146895000Y-144647000D01*
X146855000Y-146079000D02*
X146855000Y-144751000D01*
X146815000Y-145952000D02*
X146815000Y-144878000D01*
X146775000Y-145785000D02*
X146775000Y-145045000D01*
X151125801Y-146610000D02*
X150725801Y-146610000D01*
X150925801Y-146810000D02*
X150925801Y-146410000D01*
G04 #@! TO.C,C8*
X147016199Y-137670000D02*
X147016199Y-138070000D01*
X146816199Y-137870000D02*
X147216199Y-137870000D01*
X151167000Y-138695000D02*
X151167000Y-139435000D01*
X151127000Y-138528000D02*
X151127000Y-139602000D01*
X151087000Y-138401000D02*
X151087000Y-139729000D01*
X151047000Y-138297000D02*
X151047000Y-139833000D01*
X151007000Y-138206000D02*
X151007000Y-139924000D01*
X150967000Y-138125000D02*
X150967000Y-140005000D01*
X150927000Y-138052000D02*
X150927000Y-140078000D01*
X150887000Y-137985000D02*
X150887000Y-140145000D01*
X150847000Y-137923000D02*
X150847000Y-140207000D01*
X150807000Y-137865000D02*
X150807000Y-140265000D01*
X150767000Y-137811000D02*
X150767000Y-140319000D01*
X150727000Y-137761000D02*
X150727000Y-140369000D01*
X150687000Y-137714000D02*
X150687000Y-140416000D01*
X150647000Y-139905000D02*
X150647000Y-140461000D01*
X150647000Y-137669000D02*
X150647000Y-138225000D01*
X150607000Y-139905000D02*
X150607000Y-140503000D01*
X150607000Y-137627000D02*
X150607000Y-138225000D01*
X150567000Y-139905000D02*
X150567000Y-140543000D01*
X150567000Y-137587000D02*
X150567000Y-138225000D01*
X150527000Y-139905000D02*
X150527000Y-140581000D01*
X150527000Y-137549000D02*
X150527000Y-138225000D01*
X150487000Y-139905000D02*
X150487000Y-140617000D01*
X150487000Y-137513000D02*
X150487000Y-138225000D01*
X150447000Y-139905000D02*
X150447000Y-140652000D01*
X150447000Y-137478000D02*
X150447000Y-138225000D01*
X150407000Y-139905000D02*
X150407000Y-140684000D01*
X150407000Y-137446000D02*
X150407000Y-138225000D01*
X150367000Y-139905000D02*
X150367000Y-140715000D01*
X150367000Y-137415000D02*
X150367000Y-138225000D01*
X150327000Y-139905000D02*
X150327000Y-140745000D01*
X150327000Y-137385000D02*
X150327000Y-138225000D01*
X150287000Y-139905000D02*
X150287000Y-140773000D01*
X150287000Y-137357000D02*
X150287000Y-138225000D01*
X150247000Y-139905000D02*
X150247000Y-140800000D01*
X150247000Y-137330000D02*
X150247000Y-138225000D01*
X150207000Y-139905000D02*
X150207000Y-140825000D01*
X150207000Y-137305000D02*
X150207000Y-138225000D01*
X150167000Y-139905000D02*
X150167000Y-140850000D01*
X150167000Y-137280000D02*
X150167000Y-138225000D01*
X150127000Y-139905000D02*
X150127000Y-140873000D01*
X150127000Y-137257000D02*
X150127000Y-138225000D01*
X150087000Y-139905000D02*
X150087000Y-140895000D01*
X150087000Y-137235000D02*
X150087000Y-138225000D01*
X150047000Y-139905000D02*
X150047000Y-140916000D01*
X150047000Y-137214000D02*
X150047000Y-138225000D01*
X150007000Y-139905000D02*
X150007000Y-140935000D01*
X150007000Y-137195000D02*
X150007000Y-138225000D01*
X149967000Y-139905000D02*
X149967000Y-140954000D01*
X149967000Y-137176000D02*
X149967000Y-138225000D01*
X149927000Y-139905000D02*
X149927000Y-140972000D01*
X149927000Y-137158000D02*
X149927000Y-138225000D01*
X149887000Y-139905000D02*
X149887000Y-140989000D01*
X149887000Y-137141000D02*
X149887000Y-138225000D01*
X149847000Y-139905000D02*
X149847000Y-141005000D01*
X149847000Y-137125000D02*
X149847000Y-138225000D01*
X149807000Y-139905000D02*
X149807000Y-141019000D01*
X149807000Y-137111000D02*
X149807000Y-138225000D01*
X149766000Y-139905000D02*
X149766000Y-141033000D01*
X149766000Y-137097000D02*
X149766000Y-138225000D01*
X149726000Y-139905000D02*
X149726000Y-141047000D01*
X149726000Y-137083000D02*
X149726000Y-138225000D01*
X149686000Y-139905000D02*
X149686000Y-141059000D01*
X149686000Y-137071000D02*
X149686000Y-138225000D01*
X149646000Y-139905000D02*
X149646000Y-141070000D01*
X149646000Y-137060000D02*
X149646000Y-138225000D01*
X149606000Y-139905000D02*
X149606000Y-141081000D01*
X149606000Y-137049000D02*
X149606000Y-138225000D01*
X149566000Y-139905000D02*
X149566000Y-141090000D01*
X149566000Y-137040000D02*
X149566000Y-138225000D01*
X149526000Y-139905000D02*
X149526000Y-141099000D01*
X149526000Y-137031000D02*
X149526000Y-138225000D01*
X149486000Y-139905000D02*
X149486000Y-141107000D01*
X149486000Y-137023000D02*
X149486000Y-138225000D01*
X149446000Y-139905000D02*
X149446000Y-141115000D01*
X149446000Y-137015000D02*
X149446000Y-138225000D01*
X149406000Y-139905000D02*
X149406000Y-141121000D01*
X149406000Y-137009000D02*
X149406000Y-138225000D01*
X149366000Y-139905000D02*
X149366000Y-141127000D01*
X149366000Y-137003000D02*
X149366000Y-138225000D01*
X149326000Y-139905000D02*
X149326000Y-141132000D01*
X149326000Y-136998000D02*
X149326000Y-138225000D01*
X149286000Y-139905000D02*
X149286000Y-141136000D01*
X149286000Y-136994000D02*
X149286000Y-138225000D01*
X149246000Y-139905000D02*
X149246000Y-141139000D01*
X149246000Y-136991000D02*
X149246000Y-138225000D01*
X149206000Y-139905000D02*
X149206000Y-141142000D01*
X149206000Y-136988000D02*
X149206000Y-138225000D01*
X149166000Y-136986000D02*
X149166000Y-138225000D01*
X149166000Y-139905000D02*
X149166000Y-141144000D01*
X149126000Y-136985000D02*
X149126000Y-138225000D01*
X149126000Y-139905000D02*
X149126000Y-141145000D01*
X149086000Y-136985000D02*
X149086000Y-138225000D01*
X149086000Y-139905000D02*
X149086000Y-141145000D01*
X151206000Y-139065000D02*
G75*
G03X151206000Y-139065000I-2120000J0D01*
G01*
G04 #@! TO.C,U10*
X148530000Y-120920000D02*
G75*
G02X148530000Y-122920000I0J-1000000D01*
G01*
X148530000Y-122920000D02*
X148530000Y-128380000D01*
X148530000Y-128380000D02*
X199450000Y-128380000D01*
X199450000Y-128380000D02*
X199450000Y-115460000D01*
X199450000Y-115460000D02*
X148530000Y-115460000D01*
X148530000Y-115460000D02*
X148530000Y-120920000D01*
X148470000Y-130870000D02*
X199510000Y-130870000D01*
X199510000Y-130870000D02*
X199510000Y-112970000D01*
X199510000Y-112970000D02*
X148470000Y-112970000D01*
X148470000Y-112970000D02*
X148470000Y-130870000D01*
G04 #@! TO.C,U12*
X188030816Y-131694329D02*
X177750816Y-131694329D01*
X188030816Y-149714329D02*
X188030816Y-131694329D01*
X177750816Y-149714329D02*
X188030816Y-149714329D01*
X177750816Y-131694329D02*
X177750816Y-149714329D01*
X185540816Y-131754329D02*
X183890816Y-131754329D01*
X185540816Y-149654329D02*
X185540816Y-131754329D01*
X180240816Y-149654329D02*
X185540816Y-149654329D01*
X180240816Y-131754329D02*
X180240816Y-149654329D01*
X181890816Y-131754329D02*
X180240816Y-131754329D01*
X183890816Y-131754329D02*
G75*
G02X181890816Y-131754329I-1000000J0D01*
G01*
G04 #@! TO.C,U13*
X195015815Y-131754329D02*
G75*
G02X193015815Y-131754329I-1000000J0D01*
G01*
X193015815Y-131754329D02*
X191365815Y-131754329D01*
X191365815Y-131754329D02*
X191365815Y-149654329D01*
X191365815Y-149654329D02*
X196665815Y-149654329D01*
X196665815Y-149654329D02*
X196665815Y-131754329D01*
X196665815Y-131754329D02*
X195015815Y-131754329D01*
X188875815Y-131694329D02*
X188875815Y-149714329D01*
X188875815Y-149714329D02*
X199155815Y-149714329D01*
X199155815Y-149714329D02*
X199155815Y-131694329D01*
X199155815Y-131694329D02*
X188875815Y-131694329D01*
G04 #@! TO.C,J1*
D13*
X115671380Y-57102333D02*
X116385666Y-57102333D01*
X116528523Y-57149952D01*
X116623761Y-57245190D01*
X116671380Y-57388047D01*
X116671380Y-57483285D01*
X116671380Y-56102333D02*
X116671380Y-56673761D01*
X116671380Y-56388047D02*
X115671380Y-56388047D01*
X115814238Y-56483285D01*
X115909476Y-56578523D01*
X115957095Y-56673761D01*
G04 #@! TO.C,U2*
X133858095Y-66972380D02*
X133858095Y-67781904D01*
X133905714Y-67877142D01*
X133953333Y-67924761D01*
X134048571Y-67972380D01*
X134239047Y-67972380D01*
X134334285Y-67924761D01*
X134381904Y-67877142D01*
X134429523Y-67781904D01*
X134429523Y-66972380D01*
X134858095Y-67067619D02*
X134905714Y-67020000D01*
X135000952Y-66972380D01*
X135239047Y-66972380D01*
X135334285Y-67020000D01*
X135381904Y-67067619D01*
X135429523Y-67162857D01*
X135429523Y-67258095D01*
X135381904Y-67400952D01*
X134810476Y-67972380D01*
X135429523Y-67972380D01*
G04 #@! TO.C,U11*
X151173380Y-142843095D02*
X151982904Y-142843095D01*
X152078142Y-142795476D01*
X152125761Y-142747857D01*
X152173380Y-142652619D01*
X152173380Y-142462142D01*
X152125761Y-142366904D01*
X152078142Y-142319285D01*
X151982904Y-142271666D01*
X151173380Y-142271666D01*
X152173380Y-141271666D02*
X152173380Y-141843095D01*
X152173380Y-141557380D02*
X151173380Y-141557380D01*
X151316238Y-141652619D01*
X151411476Y-141747857D01*
X151459095Y-141843095D01*
X152173380Y-140319285D02*
X152173380Y-140890714D01*
X152173380Y-140605000D02*
X151173380Y-140605000D01*
X151316238Y-140700238D01*
X151411476Y-140795476D01*
X151459095Y-140890714D01*
G04 #@! TO.C,U6*
X151638095Y-66972380D02*
X151638095Y-67781904D01*
X151685714Y-67877142D01*
X151733333Y-67924761D01*
X151828571Y-67972380D01*
X152019047Y-67972380D01*
X152114285Y-67924761D01*
X152161904Y-67877142D01*
X152209523Y-67781904D01*
X152209523Y-66972380D01*
X153114285Y-66972380D02*
X152923809Y-66972380D01*
X152828571Y-67020000D01*
X152780952Y-67067619D01*
X152685714Y-67210476D01*
X152638095Y-67400952D01*
X152638095Y-67781904D01*
X152685714Y-67877142D01*
X152733333Y-67924761D01*
X152828571Y-67972380D01*
X153019047Y-67972380D01*
X153114285Y-67924761D01*
X153161904Y-67877142D01*
X153209523Y-67781904D01*
X153209523Y-67543809D01*
X153161904Y-67448571D01*
X153114285Y-67400952D01*
X153019047Y-67353333D01*
X152828571Y-67353333D01*
X152733333Y-67400952D01*
X152685714Y-67448571D01*
X152638095Y-67543809D01*
G04 #@! TO.C,U7*
X184658095Y-59642380D02*
X184658095Y-60451904D01*
X184705714Y-60547142D01*
X184753333Y-60594761D01*
X184848571Y-60642380D01*
X185039047Y-60642380D01*
X185134285Y-60594761D01*
X185181904Y-60547142D01*
X185229523Y-60451904D01*
X185229523Y-59642380D01*
X185610476Y-59642380D02*
X186277142Y-59642380D01*
X185848571Y-60642380D01*
G04 #@! TO.C,U1*
X112573096Y-67327381D02*
X112573096Y-68136905D01*
X112620715Y-68232143D01*
X112668334Y-68279762D01*
X112763572Y-68327381D01*
X112954048Y-68327381D01*
X113049286Y-68279762D01*
X113096905Y-68232143D01*
X113144524Y-68136905D01*
X113144524Y-67327381D01*
X114144524Y-68327381D02*
X113573096Y-68327381D01*
X113858810Y-68327381D02*
X113858810Y-67327381D01*
X113763572Y-67470239D01*
X113668334Y-67565477D01*
X113573096Y-67613096D01*
G04 #@! TO.C,U5*
X124122380Y-129031904D02*
X124931904Y-129031904D01*
X125027142Y-128984285D01*
X125074761Y-128936666D01*
X125122380Y-128841428D01*
X125122380Y-128650952D01*
X125074761Y-128555714D01*
X125027142Y-128508095D01*
X124931904Y-128460476D01*
X124122380Y-128460476D01*
X124122380Y-127508095D02*
X124122380Y-127984285D01*
X124598571Y-128031904D01*
X124550952Y-127984285D01*
X124503333Y-127889047D01*
X124503333Y-127650952D01*
X124550952Y-127555714D01*
X124598571Y-127508095D01*
X124693809Y-127460476D01*
X124931904Y-127460476D01*
X125027142Y-127508095D01*
X125074761Y-127555714D01*
X125122380Y-127650952D01*
X125122380Y-127889047D01*
X125074761Y-127984285D01*
X125027142Y-128031904D01*
G04 #@! TO.C,U4*
X102532380Y-129031904D02*
X103341904Y-129031904D01*
X103437142Y-128984285D01*
X103484761Y-128936666D01*
X103532380Y-128841428D01*
X103532380Y-128650952D01*
X103484761Y-128555714D01*
X103437142Y-128508095D01*
X103341904Y-128460476D01*
X102532380Y-128460476D01*
X102865714Y-127555714D02*
X103532380Y-127555714D01*
X102484761Y-127793809D02*
X103199047Y-128031904D01*
X103199047Y-127412857D01*
G04 #@! TO.C,C1*
X120471333Y-62639142D02*
X120423714Y-62686761D01*
X120280857Y-62734380D01*
X120185619Y-62734380D01*
X120042761Y-62686761D01*
X119947523Y-62591523D01*
X119899904Y-62496285D01*
X119852285Y-62305809D01*
X119852285Y-62162952D01*
X119899904Y-61972476D01*
X119947523Y-61877238D01*
X120042761Y-61782000D01*
X120185619Y-61734380D01*
X120280857Y-61734380D01*
X120423714Y-61782000D01*
X120471333Y-61829619D01*
X121423714Y-62734380D02*
X120852285Y-62734380D01*
X121138000Y-62734380D02*
X121138000Y-61734380D01*
X121042761Y-61877238D01*
X120947523Y-61972476D01*
X120852285Y-62020095D01*
G04 #@! TO.C,C2*
X150927142Y-70766666D02*
X150974761Y-70814285D01*
X151022380Y-70957142D01*
X151022380Y-71052380D01*
X150974761Y-71195238D01*
X150879523Y-71290476D01*
X150784285Y-71338095D01*
X150593809Y-71385714D01*
X150450952Y-71385714D01*
X150260476Y-71338095D01*
X150165238Y-71290476D01*
X150070000Y-71195238D01*
X150022380Y-71052380D01*
X150022380Y-70957142D01*
X150070000Y-70814285D01*
X150117619Y-70766666D01*
X150117619Y-70385714D02*
X150070000Y-70338095D01*
X150022380Y-70242857D01*
X150022380Y-70004761D01*
X150070000Y-69909523D01*
X150117619Y-69861904D01*
X150212857Y-69814285D01*
X150308095Y-69814285D01*
X150450952Y-69861904D01*
X151022380Y-70433333D01*
X151022380Y-69814285D01*
G04 #@! TO.C,U3*
X125392380Y-112521904D02*
X126201904Y-112521904D01*
X126297142Y-112474285D01*
X126344761Y-112426666D01*
X126392380Y-112331428D01*
X126392380Y-112140952D01*
X126344761Y-112045714D01*
X126297142Y-111998095D01*
X126201904Y-111950476D01*
X125392380Y-111950476D01*
X125392380Y-111569523D02*
X125392380Y-110950476D01*
X125773333Y-111283809D01*
X125773333Y-111140952D01*
X125820952Y-111045714D01*
X125868571Y-110998095D01*
X125963809Y-110950476D01*
X126201904Y-110950476D01*
X126297142Y-110998095D01*
X126344761Y-111045714D01*
X126392380Y-111140952D01*
X126392380Y-111426666D01*
X126344761Y-111521904D01*
X126297142Y-111569523D01*
G04 #@! TO.C,C3*
X120737333Y-141962142D02*
X120689714Y-142009761D01*
X120546857Y-142057380D01*
X120451619Y-142057380D01*
X120308761Y-142009761D01*
X120213523Y-141914523D01*
X120165904Y-141819285D01*
X120118285Y-141628809D01*
X120118285Y-141485952D01*
X120165904Y-141295476D01*
X120213523Y-141200238D01*
X120308761Y-141105000D01*
X120451619Y-141057380D01*
X120546857Y-141057380D01*
X120689714Y-141105000D01*
X120737333Y-141152619D01*
X121070666Y-141057380D02*
X121689714Y-141057380D01*
X121356380Y-141438333D01*
X121499238Y-141438333D01*
X121594476Y-141485952D01*
X121642095Y-141533571D01*
X121689714Y-141628809D01*
X121689714Y-141866904D01*
X121642095Y-141962142D01*
X121594476Y-142009761D01*
X121499238Y-142057380D01*
X121213523Y-142057380D01*
X121118285Y-142009761D01*
X121070666Y-141962142D01*
G04 #@! TO.C,R1*
X113736380Y-139866666D02*
X113260190Y-140200000D01*
X113736380Y-140438095D02*
X112736380Y-140438095D01*
X112736380Y-140057142D01*
X112784000Y-139961904D01*
X112831619Y-139914285D01*
X112926857Y-139866666D01*
X113069714Y-139866666D01*
X113164952Y-139914285D01*
X113212571Y-139961904D01*
X113260190Y-140057142D01*
X113260190Y-140438095D01*
X113736380Y-138914285D02*
X113736380Y-139485714D01*
X113736380Y-139200000D02*
X112736380Y-139200000D01*
X112879238Y-139295238D01*
X112974476Y-139390476D01*
X113022095Y-139485714D01*
G04 #@! TO.C,SW1*
X106466666Y-135024761D02*
X106609523Y-135072380D01*
X106847619Y-135072380D01*
X106942857Y-135024761D01*
X106990476Y-134977142D01*
X107038095Y-134881904D01*
X107038095Y-134786666D01*
X106990476Y-134691428D01*
X106942857Y-134643809D01*
X106847619Y-134596190D01*
X106657142Y-134548571D01*
X106561904Y-134500952D01*
X106514285Y-134453333D01*
X106466666Y-134358095D01*
X106466666Y-134262857D01*
X106514285Y-134167619D01*
X106561904Y-134120000D01*
X106657142Y-134072380D01*
X106895238Y-134072380D01*
X107038095Y-134120000D01*
X107371428Y-134072380D02*
X107609523Y-135072380D01*
X107800000Y-134358095D01*
X107990476Y-135072380D01*
X108228571Y-134072380D01*
X109133333Y-135072380D02*
X108561904Y-135072380D01*
X108847619Y-135072380D02*
X108847619Y-134072380D01*
X108752380Y-134215238D01*
X108657142Y-134310476D01*
X108561904Y-134358095D01*
G04 #@! TO.C,C4*
X119213333Y-139422142D02*
X119165714Y-139469761D01*
X119022857Y-139517380D01*
X118927619Y-139517380D01*
X118784761Y-139469761D01*
X118689523Y-139374523D01*
X118641904Y-139279285D01*
X118594285Y-139088809D01*
X118594285Y-138945952D01*
X118641904Y-138755476D01*
X118689523Y-138660238D01*
X118784761Y-138565000D01*
X118927619Y-138517380D01*
X119022857Y-138517380D01*
X119165714Y-138565000D01*
X119213333Y-138612619D01*
X120070476Y-138850714D02*
X120070476Y-139517380D01*
X119832380Y-138469761D02*
X119594285Y-139184047D01*
X120213333Y-139184047D01*
G04 #@! TO.C,C5*
X138243333Y-139462142D02*
X138195714Y-139509761D01*
X138052857Y-139557380D01*
X137957619Y-139557380D01*
X137814761Y-139509761D01*
X137719523Y-139414523D01*
X137671904Y-139319285D01*
X137624285Y-139128809D01*
X137624285Y-138985952D01*
X137671904Y-138795476D01*
X137719523Y-138700238D01*
X137814761Y-138605000D01*
X137957619Y-138557380D01*
X138052857Y-138557380D01*
X138195714Y-138605000D01*
X138243333Y-138652619D01*
X139148095Y-138557380D02*
X138671904Y-138557380D01*
X138624285Y-139033571D01*
X138671904Y-138985952D01*
X138767142Y-138938333D01*
X139005238Y-138938333D01*
X139100476Y-138985952D01*
X139148095Y-139033571D01*
X139195714Y-139128809D01*
X139195714Y-139366904D01*
X139148095Y-139462142D01*
X139100476Y-139509761D01*
X139005238Y-139557380D01*
X138767142Y-139557380D01*
X138671904Y-139509761D01*
X138624285Y-139462142D01*
G04 #@! TO.C,R2*
X144613333Y-136342380D02*
X144280000Y-135866190D01*
X144041904Y-136342380D02*
X144041904Y-135342380D01*
X144422857Y-135342380D01*
X144518095Y-135390000D01*
X144565714Y-135437619D01*
X144613333Y-135532857D01*
X144613333Y-135675714D01*
X144565714Y-135770952D01*
X144518095Y-135818571D01*
X144422857Y-135866190D01*
X144041904Y-135866190D01*
X144994285Y-135437619D02*
X145041904Y-135390000D01*
X145137142Y-135342380D01*
X145375238Y-135342380D01*
X145470476Y-135390000D01*
X145518095Y-135437619D01*
X145565714Y-135532857D01*
X145565714Y-135628095D01*
X145518095Y-135770952D01*
X144946666Y-136342380D01*
X145565714Y-136342380D01*
G04 #@! TO.C,R3*
X144613333Y-138882380D02*
X144280000Y-138406190D01*
X144041904Y-138882380D02*
X144041904Y-137882380D01*
X144422857Y-137882380D01*
X144518095Y-137930000D01*
X144565714Y-137977619D01*
X144613333Y-138072857D01*
X144613333Y-138215714D01*
X144565714Y-138310952D01*
X144518095Y-138358571D01*
X144422857Y-138406190D01*
X144041904Y-138406190D01*
X144946666Y-137882380D02*
X145565714Y-137882380D01*
X145232380Y-138263333D01*
X145375238Y-138263333D01*
X145470476Y-138310952D01*
X145518095Y-138358571D01*
X145565714Y-138453809D01*
X145565714Y-138691904D01*
X145518095Y-138787142D01*
X145470476Y-138834761D01*
X145375238Y-138882380D01*
X145089523Y-138882380D01*
X144994285Y-138834761D01*
X144946666Y-138787142D01*
G04 #@! TO.C,Y1*
X132238809Y-143486190D02*
X132238809Y-143962380D01*
X131905476Y-142962380D02*
X132238809Y-143486190D01*
X132572142Y-142962380D01*
X133429285Y-143962380D02*
X132857857Y-143962380D01*
X133143571Y-143962380D02*
X133143571Y-142962380D01*
X133048333Y-143105238D01*
X132953095Y-143200476D01*
X132857857Y-143248095D01*
G04 #@! TO.C,U8*
X149522380Y-57911904D02*
X150331904Y-57911904D01*
X150427142Y-57864285D01*
X150474761Y-57816666D01*
X150522380Y-57721428D01*
X150522380Y-57530952D01*
X150474761Y-57435714D01*
X150427142Y-57388095D01*
X150331904Y-57340476D01*
X149522380Y-57340476D01*
X149950952Y-56721428D02*
X149903333Y-56816666D01*
X149855714Y-56864285D01*
X149760476Y-56911904D01*
X149712857Y-56911904D01*
X149617619Y-56864285D01*
X149570000Y-56816666D01*
X149522380Y-56721428D01*
X149522380Y-56530952D01*
X149570000Y-56435714D01*
X149617619Y-56388095D01*
X149712857Y-56340476D01*
X149760476Y-56340476D01*
X149855714Y-56388095D01*
X149903333Y-56435714D01*
X149950952Y-56530952D01*
X149950952Y-56721428D01*
X149998571Y-56816666D01*
X150046190Y-56864285D01*
X150141428Y-56911904D01*
X150331904Y-56911904D01*
X150427142Y-56864285D01*
X150474761Y-56816666D01*
X150522380Y-56721428D01*
X150522380Y-56530952D01*
X150474761Y-56435714D01*
X150427142Y-56388095D01*
X150331904Y-56340476D01*
X150141428Y-56340476D01*
X150046190Y-56388095D01*
X149998571Y-56435714D01*
X149950952Y-56530952D01*
G04 #@! TO.C,C6*
X119352642Y-53780666D02*
X119400261Y-53828285D01*
X119447880Y-53971142D01*
X119447880Y-54066380D01*
X119400261Y-54209238D01*
X119305023Y-54304476D01*
X119209785Y-54352095D01*
X119019309Y-54399714D01*
X118876452Y-54399714D01*
X118685976Y-54352095D01*
X118590738Y-54304476D01*
X118495500Y-54209238D01*
X118447880Y-54066380D01*
X118447880Y-53971142D01*
X118495500Y-53828285D01*
X118543119Y-53780666D01*
X118447880Y-52923523D02*
X118447880Y-53114000D01*
X118495500Y-53209238D01*
X118543119Y-53256857D01*
X118685976Y-53352095D01*
X118876452Y-53399714D01*
X119257404Y-53399714D01*
X119352642Y-53352095D01*
X119400261Y-53304476D01*
X119447880Y-53209238D01*
X119447880Y-53018761D01*
X119400261Y-52923523D01*
X119352642Y-52875904D01*
X119257404Y-52828285D01*
X119019309Y-52828285D01*
X118924071Y-52875904D01*
X118876452Y-52923523D01*
X118828833Y-53018761D01*
X118828833Y-53209238D01*
X118876452Y-53304476D01*
X118924071Y-53352095D01*
X119019309Y-53399714D01*
G04 #@! TO.C,D1*
X118006904Y-60332880D02*
X118006904Y-59332880D01*
X118245000Y-59332880D01*
X118387857Y-59380500D01*
X118483095Y-59475738D01*
X118530714Y-59570976D01*
X118578333Y-59761452D01*
X118578333Y-59904309D01*
X118530714Y-60094785D01*
X118483095Y-60190023D01*
X118387857Y-60285261D01*
X118245000Y-60332880D01*
X118006904Y-60332880D01*
X119530714Y-60332880D02*
X118959285Y-60332880D01*
X119245000Y-60332880D02*
X119245000Y-59332880D01*
X119149761Y-59475738D01*
X119054523Y-59570976D01*
X118959285Y-59618595D01*
G04 #@! TO.C,J2*
X140052666Y-54396880D02*
X140052666Y-55111166D01*
X140005047Y-55254023D01*
X139909809Y-55349261D01*
X139766952Y-55396880D01*
X139671714Y-55396880D01*
X140481238Y-54492119D02*
X140528857Y-54444500D01*
X140624095Y-54396880D01*
X140862190Y-54396880D01*
X140957428Y-54444500D01*
X141005047Y-54492119D01*
X141052666Y-54587357D01*
X141052666Y-54682595D01*
X141005047Y-54825452D01*
X140433619Y-55396880D01*
X141052666Y-55396880D01*
G04 #@! TO.C,R4*
X115689880Y-55157666D02*
X115213690Y-55491000D01*
X115689880Y-55729095D02*
X114689880Y-55729095D01*
X114689880Y-55348142D01*
X114737500Y-55252904D01*
X114785119Y-55205285D01*
X114880357Y-55157666D01*
X115023214Y-55157666D01*
X115118452Y-55205285D01*
X115166071Y-55252904D01*
X115213690Y-55348142D01*
X115213690Y-55729095D01*
X115023214Y-54300523D02*
X115689880Y-54300523D01*
X114642261Y-54538619D02*
X115356547Y-54776714D01*
X115356547Y-54157666D01*
G04 #@! TO.C,SW2*
X137055261Y-57086333D02*
X137102880Y-56943476D01*
X137102880Y-56705380D01*
X137055261Y-56610142D01*
X137007642Y-56562523D01*
X136912404Y-56514904D01*
X136817166Y-56514904D01*
X136721928Y-56562523D01*
X136674309Y-56610142D01*
X136626690Y-56705380D01*
X136579071Y-56895857D01*
X136531452Y-56991095D01*
X136483833Y-57038714D01*
X136388595Y-57086333D01*
X136293357Y-57086333D01*
X136198119Y-57038714D01*
X136150500Y-56991095D01*
X136102880Y-56895857D01*
X136102880Y-56657761D01*
X136150500Y-56514904D01*
X136102880Y-56181571D02*
X137102880Y-55943476D01*
X136388595Y-55753000D01*
X137102880Y-55562523D01*
X136102880Y-55324428D01*
X136198119Y-54991095D02*
X136150500Y-54943476D01*
X136102880Y-54848238D01*
X136102880Y-54610142D01*
X136150500Y-54514904D01*
X136198119Y-54467285D01*
X136293357Y-54419666D01*
X136388595Y-54419666D01*
X136531452Y-54467285D01*
X137102880Y-55038714D01*
X137102880Y-54419666D01*
G04 #@! TO.C,U9*
X127571595Y-49998380D02*
X127571595Y-50807904D01*
X127619214Y-50903142D01*
X127666833Y-50950761D01*
X127762071Y-50998380D01*
X127952547Y-50998380D01*
X128047785Y-50950761D01*
X128095404Y-50903142D01*
X128143023Y-50807904D01*
X128143023Y-49998380D01*
X128666833Y-50998380D02*
X128857309Y-50998380D01*
X128952547Y-50950761D01*
X129000166Y-50903142D01*
X129095404Y-50760285D01*
X129143023Y-50569809D01*
X129143023Y-50188857D01*
X129095404Y-50093619D01*
X129047785Y-50046000D01*
X128952547Y-49998380D01*
X128762071Y-49998380D01*
X128666833Y-50046000D01*
X128619214Y-50093619D01*
X128571595Y-50188857D01*
X128571595Y-50426952D01*
X128619214Y-50522190D01*
X128666833Y-50569809D01*
X128762071Y-50617428D01*
X128952547Y-50617428D01*
X129047785Y-50569809D01*
X129095404Y-50522190D01*
X129143023Y-50426952D01*
G04 #@! TO.C,C7*
X148689333Y-149022142D02*
X148641714Y-149069761D01*
X148498857Y-149117380D01*
X148403619Y-149117380D01*
X148260761Y-149069761D01*
X148165523Y-148974523D01*
X148117904Y-148879285D01*
X148070285Y-148688809D01*
X148070285Y-148545952D01*
X148117904Y-148355476D01*
X148165523Y-148260238D01*
X148260761Y-148165000D01*
X148403619Y-148117380D01*
X148498857Y-148117380D01*
X148641714Y-148165000D01*
X148689333Y-148212619D01*
X149022666Y-148117380D02*
X149689333Y-148117380D01*
X149260761Y-149117380D01*
G04 #@! TO.C,C8*
X148919333Y-136172142D02*
X148871714Y-136219761D01*
X148728857Y-136267380D01*
X148633619Y-136267380D01*
X148490761Y-136219761D01*
X148395523Y-136124523D01*
X148347904Y-136029285D01*
X148300285Y-135838809D01*
X148300285Y-135695952D01*
X148347904Y-135505476D01*
X148395523Y-135410238D01*
X148490761Y-135315000D01*
X148633619Y-135267380D01*
X148728857Y-135267380D01*
X148871714Y-135315000D01*
X148919333Y-135362619D01*
X149490761Y-135695952D02*
X149395523Y-135648333D01*
X149347904Y-135600714D01*
X149300285Y-135505476D01*
X149300285Y-135457857D01*
X149347904Y-135362619D01*
X149395523Y-135315000D01*
X149490761Y-135267380D01*
X149681238Y-135267380D01*
X149776476Y-135315000D01*
X149824095Y-135362619D01*
X149871714Y-135457857D01*
X149871714Y-135505476D01*
X149824095Y-135600714D01*
X149776476Y-135648333D01*
X149681238Y-135695952D01*
X149490761Y-135695952D01*
X149395523Y-135743571D01*
X149347904Y-135791190D01*
X149300285Y-135886428D01*
X149300285Y-136076904D01*
X149347904Y-136172142D01*
X149395523Y-136219761D01*
X149490761Y-136267380D01*
X149681238Y-136267380D01*
X149776476Y-136219761D01*
X149824095Y-136172142D01*
X149871714Y-136076904D01*
X149871714Y-135886428D01*
X149824095Y-135791190D01*
X149776476Y-135743571D01*
X149681238Y-135695952D01*
G04 #@! TO.C,U10*
X146982380Y-123158095D02*
X147791904Y-123158095D01*
X147887142Y-123110476D01*
X147934761Y-123062857D01*
X147982380Y-122967619D01*
X147982380Y-122777142D01*
X147934761Y-122681904D01*
X147887142Y-122634285D01*
X147791904Y-122586666D01*
X146982380Y-122586666D01*
X147982380Y-121586666D02*
X147982380Y-122158095D01*
X147982380Y-121872380D02*
X146982380Y-121872380D01*
X147125238Y-121967619D01*
X147220476Y-122062857D01*
X147268095Y-122158095D01*
X146982380Y-120967619D02*
X146982380Y-120872380D01*
X147030000Y-120777142D01*
X147077619Y-120729523D01*
X147172857Y-120681904D01*
X147363333Y-120634285D01*
X147601428Y-120634285D01*
X147791904Y-120681904D01*
X147887142Y-120729523D01*
X147934761Y-120777142D01*
X147982380Y-120872380D01*
X147982380Y-120967619D01*
X147934761Y-121062857D01*
X147887142Y-121110476D01*
X147791904Y-121158095D01*
X147601428Y-121205714D01*
X147363333Y-121205714D01*
X147172857Y-121158095D01*
X147077619Y-121110476D01*
X147030000Y-121062857D01*
X146982380Y-120967619D01*
G04 #@! TO.C,U12*
X181652720Y-130206709D02*
X181652720Y-131016233D01*
X181700339Y-131111471D01*
X181747958Y-131159090D01*
X181843196Y-131206709D01*
X182033673Y-131206709D01*
X182128911Y-131159090D01*
X182176530Y-131111471D01*
X182224149Y-131016233D01*
X182224149Y-130206709D01*
X183224149Y-131206709D02*
X182652720Y-131206709D01*
X182938435Y-131206709D02*
X182938435Y-130206709D01*
X182843196Y-130349567D01*
X182747958Y-130444805D01*
X182652720Y-130492424D01*
X183605101Y-130301948D02*
X183652720Y-130254329D01*
X183747958Y-130206709D01*
X183986054Y-130206709D01*
X184081292Y-130254329D01*
X184128911Y-130301948D01*
X184176530Y-130397186D01*
X184176530Y-130492424D01*
X184128911Y-130635281D01*
X183557482Y-131206709D01*
X184176530Y-131206709D01*
G04 #@! TO.C,U13*
X192777719Y-130206709D02*
X192777719Y-131016233D01*
X192825338Y-131111471D01*
X192872957Y-131159090D01*
X192968195Y-131206709D01*
X193158672Y-131206709D01*
X193253910Y-131159090D01*
X193301529Y-131111471D01*
X193349148Y-131016233D01*
X193349148Y-130206709D01*
X194349148Y-131206709D02*
X193777719Y-131206709D01*
X194063434Y-131206709D02*
X194063434Y-130206709D01*
X193968195Y-130349567D01*
X193872957Y-130444805D01*
X193777719Y-130492424D01*
X194682481Y-130206709D02*
X195301529Y-130206709D01*
X194968195Y-130587662D01*
X195111053Y-130587662D01*
X195206291Y-130635281D01*
X195253910Y-130682900D01*
X195301529Y-130778138D01*
X195301529Y-131016233D01*
X195253910Y-131111471D01*
X195206291Y-131159090D01*
X195111053Y-131206709D01*
X194825338Y-131206709D01*
X194730100Y-131159090D01*
X194682481Y-131111471D01*
G04 #@! TD*
M02*
