G04 #@! TF.GenerationSoftware,KiCad,Pcbnew,(5.0.0)*
G04 #@! TF.CreationDate,2018-09-23T22:59:08+02:00*
G04 #@! TF.ProjectId,RED_80,5245445F38302E6B696361645F706362,rev?*
G04 #@! TF.SameCoordinates,Original*
G04 #@! TF.FileFunction,Copper,L1,Top,Signal*
G04 #@! TF.FilePolarity,Positive*
%FSLAX46Y46*%
G04 Gerber Fmt 4.6, Leading zero omitted, Abs format (unit mm)*
G04 Created by KiCad (PCBNEW (5.0.0)) date 09/23/18 22:59:08*
%MOMM*%
%LPD*%
G01*
G04 APERTURE LIST*
G04 #@! TA.AperFunction,ComponentPad*
%ADD10R,2.000000X4.000000*%
G04 #@! TD*
G04 #@! TA.AperFunction,ComponentPad*
%ADD11O,2.000000X3.300000*%
G04 #@! TD*
G04 #@! TA.AperFunction,ComponentPad*
%ADD12O,3.500000X2.000000*%
G04 #@! TD*
G04 #@! TA.AperFunction,ComponentPad*
%ADD13R,1.600000X1.600000*%
G04 #@! TD*
G04 #@! TA.AperFunction,ComponentPad*
%ADD14O,1.600000X1.600000*%
G04 #@! TD*
G04 #@! TA.AperFunction,WasherPad*
%ADD15C,3.000000*%
G04 #@! TD*
G04 #@! TA.AperFunction,ComponentPad*
%ADD16O,4.000000X1.600000*%
G04 #@! TD*
G04 #@! TA.AperFunction,ComponentPad*
%ADD17R,1.200000X1.200000*%
G04 #@! TD*
G04 #@! TA.AperFunction,ComponentPad*
%ADD18C,1.200000*%
G04 #@! TD*
G04 #@! TA.AperFunction,ComponentPad*
%ADD19C,1.400000*%
G04 #@! TD*
G04 #@! TA.AperFunction,ComponentPad*
%ADD20O,1.400000X1.400000*%
G04 #@! TD*
G04 #@! TA.AperFunction,ComponentPad*
%ADD21C,2.000000*%
G04 #@! TD*
G04 #@! TA.AperFunction,ComponentPad*
%ADD22C,1.600000*%
G04 #@! TD*
G04 #@! TA.AperFunction,ComponentPad*
%ADD23C,1.500000*%
G04 #@! TD*
G04 #@! TA.AperFunction,ComponentPad*
%ADD24C,1.800000*%
G04 #@! TD*
G04 #@! TA.AperFunction,ComponentPad*
%ADD25R,1.800000X1.800000*%
G04 #@! TD*
G04 #@! TA.AperFunction,ComponentPad*
%ADD26R,1.100000X1.100000*%
G04 #@! TD*
G04 #@! TA.AperFunction,ComponentPad*
%ADD27C,1.100000*%
G04 #@! TD*
G04 #@! TA.AperFunction,ComponentPad*
%ADD28O,1.100000X2.400000*%
G04 #@! TD*
G04 #@! TA.AperFunction,ComponentPad*
%ADD29R,2.000000X1.905000*%
G04 #@! TD*
G04 #@! TA.AperFunction,ComponentPad*
%ADD30O,2.000000X1.905000*%
G04 #@! TD*
G04 #@! TA.AperFunction,ViaPad*
%ADD31C,0.800000*%
G04 #@! TD*
G04 #@! TA.AperFunction,Conductor*
%ADD32C,0.250000*%
G04 #@! TD*
G04 #@! TA.AperFunction,Conductor*
%ADD33C,0.254000*%
G04 #@! TD*
G04 APERTURE END LIST*
D10*
G04 #@! TO.P,J1,1*
G04 #@! TO.N,/DC_IN*
X113919000Y-56769000D03*
D11*
G04 #@! TO.P,J1,2*
G04 #@! TO.N,GND*
X107919000Y-56769000D03*
D12*
G04 #@! TO.P,J1,MP*
G04 #@! TO.N,N/C*
X106919000Y-52269000D03*
X106919000Y-61269000D03*
G04 #@! TD*
D13*
G04 #@! TO.P,U2,1*
G04 #@! TO.N,/A14*
X127000000Y-69850000D03*
D14*
G04 #@! TO.P,U2,15*
G04 #@! TO.N,/D3*
X142240000Y-102870000D03*
G04 #@! TO.P,U2,2*
G04 #@! TO.N,/A12*
X127000000Y-72390000D03*
G04 #@! TO.P,U2,16*
G04 #@! TO.N,/D4*
X142240000Y-100330000D03*
G04 #@! TO.P,U2,3*
G04 #@! TO.N,/A7*
X127000000Y-74930000D03*
G04 #@! TO.P,U2,17*
G04 #@! TO.N,/D5*
X142240000Y-97790000D03*
G04 #@! TO.P,U2,4*
G04 #@! TO.N,/A6*
X127000000Y-77470000D03*
G04 #@! TO.P,U2,18*
G04 #@! TO.N,/D6*
X142240000Y-95250000D03*
G04 #@! TO.P,U2,5*
G04 #@! TO.N,/A5*
X127000000Y-80010000D03*
G04 #@! TO.P,U2,19*
G04 #@! TO.N,/D7*
X142240000Y-92710000D03*
G04 #@! TO.P,U2,6*
G04 #@! TO.N,/A4*
X127000000Y-82550000D03*
G04 #@! TO.P,U2,20*
G04 #@! TO.N,/RAM_ENABLE*
X142240000Y-90170000D03*
G04 #@! TO.P,U2,7*
G04 #@! TO.N,/A3*
X127000000Y-85090000D03*
G04 #@! TO.P,U2,21*
G04 #@! TO.N,/A10*
X142240000Y-87630000D03*
G04 #@! TO.P,U2,8*
G04 #@! TO.N,/A2*
X127000000Y-87630000D03*
G04 #@! TO.P,U2,22*
G04 #@! TO.N,SIG_MRD*
X142240000Y-85090000D03*
G04 #@! TO.P,U2,9*
G04 #@! TO.N,/A1*
X127000000Y-90170000D03*
G04 #@! TO.P,U2,23*
G04 #@! TO.N,/A11*
X142240000Y-82550000D03*
G04 #@! TO.P,U2,10*
G04 #@! TO.N,/A0*
X127000000Y-92710000D03*
G04 #@! TO.P,U2,24*
G04 #@! TO.N,/A9*
X142240000Y-80010000D03*
G04 #@! TO.P,U2,11*
G04 #@! TO.N,/D0*
X127000000Y-95250000D03*
G04 #@! TO.P,U2,25*
G04 #@! TO.N,/A8*
X142240000Y-77470000D03*
G04 #@! TO.P,U2,12*
G04 #@! TO.N,/D1*
X127000000Y-97790000D03*
G04 #@! TO.P,U2,26*
G04 #@! TO.N,SYS_USER_SELECT*
X142240000Y-74930000D03*
G04 #@! TO.P,U2,13*
G04 #@! TO.N,/D2*
X127000000Y-100330000D03*
G04 #@! TO.P,U2,27*
G04 #@! TO.N,SIG_MWR*
X142240000Y-72390000D03*
G04 #@! TO.P,U2,14*
G04 #@! TO.N,GND*
X127000000Y-102870000D03*
G04 #@! TO.P,U2,28*
G04 #@! TO.N,MAIN_5V*
X142240000Y-69850000D03*
G04 #@! TD*
D13*
G04 #@! TO.P,U11,1*
G04 #@! TO.N,Net-(C7-Pad1)*
X154051000Y-145415000D03*
D14*
G04 #@! TO.P,U11,9*
G04 #@! TO.N,Net-(U11-Pad9)*
X171831000Y-137795000D03*
G04 #@! TO.P,U11,2*
G04 #@! TO.N,Net-(U11-Pad2)*
X156591000Y-145415000D03*
G04 #@! TO.P,U11,10*
G04 #@! TO.N,Net-(U11-Pad10)*
X169291000Y-137795000D03*
G04 #@! TO.P,U11,3*
G04 #@! TO.N,Net-(C7-Pad2)*
X159131000Y-145415000D03*
G04 #@! TO.P,U11,11*
G04 #@! TO.N,Net-(U10-Pad11)*
X166751000Y-137795000D03*
G04 #@! TO.P,U11,4*
G04 #@! TO.N,Net-(C8-Pad1)*
X161671000Y-145415000D03*
G04 #@! TO.P,U11,12*
G04 #@! TO.N,Net-(U10-Pad10)*
X164211000Y-137795000D03*
G04 #@! TO.P,U11,5*
G04 #@! TO.N,Net-(C8-Pad2)*
X164211000Y-145415000D03*
G04 #@! TO.P,U11,13*
G04 #@! TO.N,RS232_RX*
X161671000Y-137795000D03*
G04 #@! TO.P,U11,6*
G04 #@! TO.N,Net-(U11-Pad6)*
X166751000Y-145415000D03*
G04 #@! TO.P,U11,14*
G04 #@! TO.N,RS232_TX*
X159131000Y-137795000D03*
G04 #@! TO.P,U11,7*
G04 #@! TO.N,Net-(U11-Pad7)*
X169291000Y-145415000D03*
G04 #@! TO.P,U11,15*
G04 #@! TO.N,GND*
X156591000Y-137795000D03*
G04 #@! TO.P,U11,8*
G04 #@! TO.N,Net-(U11-Pad8)*
X171831000Y-145415000D03*
G04 #@! TO.P,U11,16*
G04 #@! TO.N,MAIN_5V*
X154051000Y-137795000D03*
G04 #@! TD*
G04 #@! TO.P,U6,28*
G04 #@! TO.N,Net-(U6-Pad28)*
X166370000Y-69850000D03*
G04 #@! TO.P,U6,14*
G04 #@! TO.N,GND*
X151130000Y-102870000D03*
G04 #@! TO.P,U6,27*
G04 #@! TO.N,MAIN_5V*
X166370000Y-72390000D03*
G04 #@! TO.P,U6,13*
G04 #@! TO.N,/D2*
X151130000Y-100330000D03*
G04 #@! TO.P,U6,26*
G04 #@! TO.N,Net-(U6-Pad26)*
X166370000Y-74930000D03*
G04 #@! TO.P,U6,12*
G04 #@! TO.N,/D1*
X151130000Y-97790000D03*
G04 #@! TO.P,U6,25*
G04 #@! TO.N,/A8*
X166370000Y-77470000D03*
G04 #@! TO.P,U6,11*
G04 #@! TO.N,/D0*
X151130000Y-95250000D03*
G04 #@! TO.P,U6,24*
G04 #@! TO.N,/A9*
X166370000Y-80010000D03*
G04 #@! TO.P,U6,10*
G04 #@! TO.N,/A0*
X151130000Y-92710000D03*
G04 #@! TO.P,U6,23*
G04 #@! TO.N,/A11*
X166370000Y-82550000D03*
G04 #@! TO.P,U6,9*
G04 #@! TO.N,/A1*
X151130000Y-90170000D03*
G04 #@! TO.P,U6,22*
G04 #@! TO.N,GND*
X166370000Y-85090000D03*
G04 #@! TO.P,U6,8*
G04 #@! TO.N,/A2*
X151130000Y-87630000D03*
G04 #@! TO.P,U6,21*
G04 #@! TO.N,/A10*
X166370000Y-87630000D03*
G04 #@! TO.P,U6,7*
G04 #@! TO.N,/A3*
X151130000Y-85090000D03*
G04 #@! TO.P,U6,20*
G04 #@! TO.N,SYS_ROM_ENABLE*
X166370000Y-90170000D03*
G04 #@! TO.P,U6,6*
G04 #@! TO.N,/A4*
X151130000Y-82550000D03*
G04 #@! TO.P,U6,19*
G04 #@! TO.N,/D7*
X166370000Y-92710000D03*
G04 #@! TO.P,U6,5*
G04 #@! TO.N,/A5*
X151130000Y-80010000D03*
G04 #@! TO.P,U6,18*
G04 #@! TO.N,/D6*
X166370000Y-95250000D03*
G04 #@! TO.P,U6,4*
G04 #@! TO.N,/A6*
X151130000Y-77470000D03*
G04 #@! TO.P,U6,17*
G04 #@! TO.N,/D5*
X166370000Y-97790000D03*
G04 #@! TO.P,U6,3*
G04 #@! TO.N,/A7*
X151130000Y-74930000D03*
G04 #@! TO.P,U6,16*
G04 #@! TO.N,/D4*
X166370000Y-100330000D03*
G04 #@! TO.P,U6,2*
G04 #@! TO.N,/A12*
X151130000Y-72390000D03*
G04 #@! TO.P,U6,15*
G04 #@! TO.N,/D3*
X166370000Y-102870000D03*
D13*
G04 #@! TO.P,U6,1*
G04 #@! TO.N,Net-(U6-Pad1)*
X151130000Y-69850000D03*
G04 #@! TD*
D15*
G04 #@! TO.P,U7,*
G04 #@! TO.N,*
X185420000Y-107950000D03*
X185420000Y-57150000D03*
D16*
G04 #@! TO.P,U7,14*
G04 #@! TO.N,GND*
X177800000Y-102870000D03*
G04 #@! TO.P,U7,15*
G04 #@! TO.N,/D3*
X193040000Y-102870000D03*
G04 #@! TO.P,U7,13*
G04 #@! TO.N,/D2*
X177800000Y-100330000D03*
G04 #@! TO.P,U7,16*
G04 #@! TO.N,/D4*
X193040000Y-100330000D03*
G04 #@! TO.P,U7,12*
G04 #@! TO.N,/D1*
X177800000Y-97790000D03*
G04 #@! TO.P,U7,17*
G04 #@! TO.N,/D5*
X193040000Y-97790000D03*
G04 #@! TO.P,U7,11*
G04 #@! TO.N,/D0*
X177800000Y-95250000D03*
G04 #@! TO.P,U7,18*
G04 #@! TO.N,/D6*
X193040000Y-95250000D03*
G04 #@! TO.P,U7,10*
G04 #@! TO.N,/A0*
X177800000Y-92710000D03*
G04 #@! TO.P,U7,19*
G04 #@! TO.N,/D7*
X193040000Y-92710000D03*
G04 #@! TO.P,U7,9*
G04 #@! TO.N,/A1*
X177800000Y-90170000D03*
G04 #@! TO.P,U7,20*
G04 #@! TO.N,USER_ROM_ENABLE*
X193040000Y-90170000D03*
G04 #@! TO.P,U7,8*
G04 #@! TO.N,/A2*
X177800000Y-87630000D03*
G04 #@! TO.P,U7,21*
G04 #@! TO.N,/A10*
X193040000Y-87630000D03*
G04 #@! TO.P,U7,7*
G04 #@! TO.N,/A3*
X177800000Y-85090000D03*
G04 #@! TO.P,U7,22*
G04 #@! TO.N,GND*
X193040000Y-85090000D03*
G04 #@! TO.P,U7,6*
G04 #@! TO.N,/A4*
X177800000Y-82550000D03*
G04 #@! TO.P,U7,23*
G04 #@! TO.N,/A11*
X193040000Y-82550000D03*
G04 #@! TO.P,U7,5*
G04 #@! TO.N,/A5*
X177800000Y-80010000D03*
G04 #@! TO.P,U7,24*
G04 #@! TO.N,/A9*
X193040000Y-80010000D03*
G04 #@! TO.P,U7,4*
G04 #@! TO.N,/A6*
X177800000Y-77470000D03*
G04 #@! TO.P,U7,25*
G04 #@! TO.N,/A8*
X193040000Y-77470000D03*
G04 #@! TO.P,U7,3*
G04 #@! TO.N,/A7*
X177800000Y-74930000D03*
G04 #@! TO.P,U7,26*
G04 #@! TO.N,Net-(U7-Pad26)*
X193040000Y-74930000D03*
G04 #@! TO.P,U7,2*
G04 #@! TO.N,/A12*
X177800000Y-72390000D03*
G04 #@! TO.P,U7,27*
G04 #@! TO.N,MAIN_5V*
X193040000Y-72390000D03*
G04 #@! TO.P,U7,1*
G04 #@! TO.N,Net-(U7-Pad1)*
X177800000Y-69850000D03*
G04 #@! TO.P,U7,28*
G04 #@! TO.N,Net-(U7-Pad28)*
X193040000Y-69850000D03*
G04 #@! TD*
D13*
G04 #@! TO.P,U1,1*
G04 #@! TO.N,/A11*
X105715001Y-70205001D03*
D14*
G04 #@! TO.P,U1,21*
G04 #@! TO.N,Net-(U1-Pad21)*
X120955001Y-118465001D03*
G04 #@! TO.P,U1,2*
G04 #@! TO.N,/A12*
X105715001Y-72745001D03*
G04 #@! TO.P,U1,22*
G04 #@! TO.N,Net-(U1-Pad22)*
X120955001Y-115925001D03*
G04 #@! TO.P,U1,3*
G04 #@! TO.N,SYS_USER_SELECT*
X105715001Y-75285001D03*
G04 #@! TO.P,U1,23*
G04 #@! TO.N,Net-(U1-Pad23)*
X120955001Y-113385001D03*
G04 #@! TO.P,U1,4*
G04 #@! TO.N,/A14*
X105715001Y-77825001D03*
G04 #@! TO.P,U1,24*
G04 #@! TO.N,Net-(U1-Pad24)*
X120955001Y-110845001D03*
G04 #@! TO.P,U1,5*
G04 #@! TO.N,/A15*
X105715001Y-80365001D03*
G04 #@! TO.P,U1,25*
G04 #@! TO.N,Net-(U1-Pad25)*
X120955001Y-108305001D03*
G04 #@! TO.P,U1,6*
G04 #@! TO.N,CPU_CLK*
X105715001Y-82905001D03*
G04 #@! TO.P,U1,26*
G04 #@! TO.N,SIG_RST*
X120955001Y-105765001D03*
G04 #@! TO.P,U1,7*
G04 #@! TO.N,/D4*
X105715001Y-85445001D03*
G04 #@! TO.P,U1,27*
G04 #@! TO.N,Net-(U1-Pad27)*
X120955001Y-103225001D03*
G04 #@! TO.P,U1,8*
G04 #@! TO.N,/D3*
X105715001Y-87985001D03*
G04 #@! TO.P,U1,28*
G04 #@! TO.N,Net-(U1-Pad28)*
X120955001Y-100685001D03*
G04 #@! TO.P,U1,9*
G04 #@! TO.N,/D5*
X105715001Y-90525001D03*
G04 #@! TO.P,U1,29*
G04 #@! TO.N,GND*
X120955001Y-98145001D03*
G04 #@! TO.P,U1,10*
G04 #@! TO.N,/D6*
X105715001Y-93065001D03*
G04 #@! TO.P,U1,30*
G04 #@! TO.N,/A0*
X120955001Y-95605001D03*
G04 #@! TO.P,U1,11*
G04 #@! TO.N,MAIN_5V*
X105715001Y-95605001D03*
G04 #@! TO.P,U1,31*
G04 #@! TO.N,/A1*
X120955001Y-93065001D03*
G04 #@! TO.P,U1,12*
G04 #@! TO.N,/D2*
X105715001Y-98145001D03*
G04 #@! TO.P,U1,32*
G04 #@! TO.N,/A2*
X120955001Y-90525001D03*
G04 #@! TO.P,U1,13*
G04 #@! TO.N,/D7*
X105715001Y-100685001D03*
G04 #@! TO.P,U1,33*
G04 #@! TO.N,/A3*
X120955001Y-87985001D03*
G04 #@! TO.P,U1,14*
G04 #@! TO.N,/D0*
X105715001Y-103225001D03*
G04 #@! TO.P,U1,34*
G04 #@! TO.N,/A4*
X120955001Y-85445001D03*
G04 #@! TO.P,U1,15*
G04 #@! TO.N,/D1*
X105715001Y-105765001D03*
G04 #@! TO.P,U1,35*
G04 #@! TO.N,/A5*
X120955001Y-82905001D03*
G04 #@! TO.P,U1,16*
G04 #@! TO.N,Net-(U1-Pad16)*
X105715001Y-108305001D03*
G04 #@! TO.P,U1,36*
G04 #@! TO.N,/A6*
X120955001Y-80365001D03*
G04 #@! TO.P,U1,17*
G04 #@! TO.N,Net-(U1-Pad17)*
X105715001Y-110845001D03*
G04 #@! TO.P,U1,37*
G04 #@! TO.N,/A7*
X120955001Y-77825001D03*
G04 #@! TO.P,U1,18*
G04 #@! TO.N,Net-(U1-Pad18)*
X105715001Y-113385001D03*
G04 #@! TO.P,U1,38*
G04 #@! TO.N,/A8*
X120955001Y-75285001D03*
G04 #@! TO.P,U1,19*
G04 #@! TO.N,Net-(U1-Pad19)*
X105715001Y-115925001D03*
G04 #@! TO.P,U1,39*
G04 #@! TO.N,/A9*
X120955001Y-72745001D03*
G04 #@! TO.P,U1,20*
G04 #@! TO.N,Net-(U1-Pad20)*
X105715001Y-118465001D03*
G04 #@! TO.P,U1,40*
G04 #@! TO.N,/A10*
X120955001Y-70205001D03*
G04 #@! TD*
D13*
G04 #@! TO.P,U5,1*
G04 #@! TO.N,Net-(C3-Pad1)*
X127000000Y-132080000D03*
D14*
G04 #@! TO.P,U5,8*
G04 #@! TO.N,N/C*
X142240000Y-124460000D03*
G04 #@! TO.P,U5,2*
G04 #@! TO.N,SIG_RST*
X129540000Y-132080000D03*
G04 #@! TO.P,U5,9*
G04 #@! TO.N,N/C*
X139700000Y-124460000D03*
G04 #@! TO.P,U5,3*
G04 #@! TO.N,Net-(C4-Pad1)*
X132080000Y-132080000D03*
G04 #@! TO.P,U5,10*
G04 #@! TO.N,N/C*
X137160000Y-124460000D03*
G04 #@! TO.P,U5,4*
G04 #@! TO.N,Net-(R2-Pad1)*
X134620000Y-132080000D03*
G04 #@! TO.P,U5,11*
G04 #@! TO.N,N/C*
X134620000Y-124460000D03*
G04 #@! TO.P,U5,5*
G04 #@! TO.N,Net-(R2-Pad1)*
X137160000Y-132080000D03*
G04 #@! TO.P,U5,12*
G04 #@! TO.N,N/C*
X132080000Y-124460000D03*
G04 #@! TO.P,U5,6*
G04 #@! TO.N,CPU_CLK*
X139700000Y-132080000D03*
G04 #@! TO.P,U5,13*
G04 #@! TO.N,N/C*
X129540000Y-124460000D03*
G04 #@! TO.P,U5,7*
G04 #@! TO.N,GND*
X142240000Y-132080000D03*
G04 #@! TO.P,U5,14*
G04 #@! TO.N,MAIN_5V*
X127000000Y-124460000D03*
G04 #@! TD*
D13*
G04 #@! TO.P,U4,1*
G04 #@! TO.N,Net-(U1-Pad19)*
X105410000Y-132080000D03*
D14*
G04 #@! TO.P,U4,8*
G04 #@! TO.N,/A15*
X120650000Y-124460000D03*
G04 #@! TO.P,U4,2*
G04 #@! TO.N,Net-(U1-Pad21)*
X107950000Y-132080000D03*
G04 #@! TO.P,U4,9*
G04 #@! TO.N,/A14*
X118110000Y-124460000D03*
G04 #@! TO.P,U4,3*
G04 #@! TO.N,SIG_MRD*
X110490000Y-132080000D03*
G04 #@! TO.P,U4,10*
G04 #@! TO.N,Net-(U4-Pad10)*
X115570000Y-124460000D03*
G04 #@! TO.P,U4,4*
G04 #@! TO.N,SIG_MWR*
X113030000Y-132080000D03*
G04 #@! TO.P,U4,11*
G04 #@! TO.N,ROM_BANK_ON*
X113030000Y-124460000D03*
G04 #@! TO.P,U4,5*
G04 #@! TO.N,Net-(U1-Pad22)*
X115570000Y-132080000D03*
G04 #@! TO.P,U4,12*
G04 #@! TO.N,SIG_MRD*
X110490000Y-124460000D03*
G04 #@! TO.P,U4,6*
G04 #@! TO.N,Net-(U1-Pad19)*
X118110000Y-132080000D03*
G04 #@! TO.P,U4,13*
G04 #@! TO.N,Net-(U4-Pad10)*
X107950000Y-124460000D03*
G04 #@! TO.P,U4,7*
G04 #@! TO.N,GND*
X120650000Y-132080000D03*
G04 #@! TO.P,U4,14*
G04 #@! TO.N,MAIN_5V*
X105410000Y-124460000D03*
G04 #@! TD*
D17*
G04 #@! TO.P,C1,1*
G04 #@! TO.N,MAIN_5V*
X119888000Y-65532000D03*
D18*
G04 #@! TO.P,C1,2*
G04 #@! TO.N,GND*
X121388000Y-65532000D03*
G04 #@! TD*
D17*
G04 #@! TO.P,C2,1*
G04 #@! TO.N,MAIN_5V*
X147320000Y-69850000D03*
D18*
G04 #@! TO.P,C2,2*
G04 #@! TO.N,GND*
X147320000Y-71350000D03*
G04 #@! TD*
D13*
G04 #@! TO.P,U3,1*
G04 #@! TO.N,/A15*
X128270000Y-115570000D03*
D14*
G04 #@! TO.P,U3,8*
G04 #@! TO.N,Net-(U13-Pad6)*
X143510000Y-107950000D03*
G04 #@! TO.P,U3,2*
G04 #@! TO.N,/A15*
X130810000Y-115570000D03*
G04 #@! TO.P,U3,9*
G04 #@! TO.N,Net-(U13-Pad6)*
X140970000Y-107950000D03*
G04 #@! TO.P,U3,3*
G04 #@! TO.N,/RAM_ENABLE*
X133350000Y-115570000D03*
G04 #@! TO.P,U3,10*
G04 #@! TO.N,Net-(U10-Pad12)*
X138430000Y-107950000D03*
G04 #@! TO.P,U3,4*
G04 #@! TO.N,/USER_ROM_SELECTED*
X135890000Y-115570000D03*
G04 #@! TO.P,U3,11*
G04 #@! TO.N,N/C*
X135890000Y-107950000D03*
G04 #@! TO.P,U3,5*
G04 #@! TO.N,SYS_USER_SELECT*
X138430000Y-115570000D03*
G04 #@! TO.P,U3,12*
G04 #@! TO.N,N/C*
X133350000Y-107950000D03*
G04 #@! TO.P,U3,6*
G04 #@! TO.N,SYS_USER_SELECT*
X140970000Y-115570000D03*
G04 #@! TO.P,U3,13*
G04 #@! TO.N,N/C*
X130810000Y-107950000D03*
G04 #@! TO.P,U3,7*
G04 #@! TO.N,GND*
X143510000Y-115570000D03*
G04 #@! TO.P,U3,14*
G04 #@! TO.N,MAIN_5V*
X128270000Y-107950000D03*
G04 #@! TD*
D17*
G04 #@! TO.P,C3,1*
G04 #@! TO.N,Net-(C3-Pad1)*
X120904000Y-137160000D03*
D18*
G04 #@! TO.P,C3,2*
G04 #@! TO.N,GND*
X120904000Y-138660000D03*
G04 #@! TD*
D19*
G04 #@! TO.P,R1,1*
G04 #@! TO.N,MAIN_5V*
X115824000Y-142240000D03*
D20*
G04 #@! TO.P,R1,2*
G04 #@! TO.N,Net-(C3-Pad1)*
X115824000Y-137160000D03*
G04 #@! TD*
D21*
G04 #@! TO.P,SW1,2*
G04 #@! TO.N,GND*
X106784000Y-141660000D03*
G04 #@! TO.P,SW1,1*
G04 #@! TO.N,Net-(C3-Pad1)*
X106784000Y-137160000D03*
G04 #@! TO.P,SW1,2*
G04 #@! TO.N,GND*
X113284000Y-141660000D03*
G04 #@! TO.P,SW1,1*
G04 #@! TO.N,Net-(C3-Pad1)*
X113284000Y-137160000D03*
G04 #@! TD*
D22*
G04 #@! TO.P,C4,1*
G04 #@! TO.N,Net-(C4-Pad1)*
X120650000Y-141605000D03*
G04 #@! TO.P,C4,2*
G04 #@! TO.N,GND*
X118150000Y-141605000D03*
G04 #@! TD*
G04 #@! TO.P,C5,2*
G04 #@! TO.N,GND*
X139660000Y-141605000D03*
G04 #@! TO.P,C5,1*
G04 #@! TO.N,Net-(C5-Pad1)*
X137160000Y-141605000D03*
G04 #@! TD*
D19*
G04 #@! TO.P,R2,1*
G04 #@! TO.N,Net-(R2-Pad1)*
X142240000Y-135890000D03*
D20*
G04 #@! TO.P,R2,2*
G04 #@! TO.N,Net-(C4-Pad1)*
X137160000Y-135890000D03*
G04 #@! TD*
G04 #@! TO.P,R3,2*
G04 #@! TO.N,Net-(C5-Pad1)*
X137160000Y-138430000D03*
D19*
G04 #@! TO.P,R3,1*
G04 #@! TO.N,Net-(R2-Pad1)*
X142240000Y-138430000D03*
G04 #@! TD*
D23*
G04 #@! TO.P,Y1,1*
G04 #@! TO.N,Net-(C4-Pad1)*
X125730000Y-139700000D03*
G04 #@! TO.P,Y1,2*
G04 #@! TO.N,Net-(C5-Pad1)*
X130630000Y-139700000D03*
G04 #@! TD*
D13*
G04 #@! TO.P,U8,1*
G04 #@! TO.N,ROM_BANK_ON*
X152400000Y-60960000D03*
D14*
G04 #@! TO.P,U8,8*
G04 #@! TO.N,N/C*
X167640000Y-53340000D03*
G04 #@! TO.P,U8,2*
G04 #@! TO.N,SYS_USER_SELECT*
X154940000Y-60960000D03*
G04 #@! TO.P,U8,9*
G04 #@! TO.N,N/C*
X165100000Y-53340000D03*
G04 #@! TO.P,U8,3*
G04 #@! TO.N,SYS_ROM_ENABLE*
X157480000Y-60960000D03*
G04 #@! TO.P,U8,10*
G04 #@! TO.N,N/C*
X162560000Y-53340000D03*
G04 #@! TO.P,U8,4*
G04 #@! TO.N,USER_ROM_ENABLE*
X160020000Y-60960000D03*
G04 #@! TO.P,U8,11*
G04 #@! TO.N,N/C*
X160020000Y-53340000D03*
G04 #@! TO.P,U8,5*
G04 #@! TO.N,ROM_BANK_ON*
X162560000Y-60960000D03*
G04 #@! TO.P,U8,12*
G04 #@! TO.N,N/C*
X157480000Y-53340000D03*
G04 #@! TO.P,U8,6*
G04 #@! TO.N,/USER_ROM_SELECTED*
X165100000Y-60960000D03*
G04 #@! TO.P,U8,13*
G04 #@! TO.N,N/C*
X154940000Y-53340000D03*
G04 #@! TO.P,U8,7*
G04 #@! TO.N,GND*
X167640000Y-60960000D03*
G04 #@! TO.P,U8,14*
G04 #@! TO.N,MAIN_5V*
X152400000Y-53340000D03*
G04 #@! TD*
D13*
G04 #@! TO.P,C6,1*
G04 #@! TO.N,/DC_IN*
X122745500Y-54864000D03*
D22*
G04 #@! TO.P,C6,2*
G04 #@! TO.N,GND*
X122745500Y-52364000D03*
G04 #@! TD*
D24*
G04 #@! TO.P,D1,2*
G04 #@! TO.N,MIAN_5V*
X123317000Y-59817000D03*
D25*
G04 #@! TO.P,D1,1*
G04 #@! TO.N,Net-(D1-Pad1)*
X120777000Y-59817000D03*
G04 #@! TD*
D26*
G04 #@! TO.P,J2,1*
G04 #@! TO.N,/DC+5*
X141986000Y-51244500D03*
D27*
G04 #@! TO.P,J2,2*
G04 #@! TO.N,Net-(J2-Pad2)*
X141186000Y-52994500D03*
G04 #@! TO.P,J2,3*
G04 #@! TO.N,Net-(J2-Pad3)*
X140386000Y-51244500D03*
G04 #@! TO.P,J2,4*
G04 #@! TO.N,Net-(J2-Pad4)*
X139586000Y-52994500D03*
G04 #@! TO.P,J2,5*
G04 #@! TO.N,GND*
X138786000Y-51244500D03*
D28*
G04 #@! TO.P,J2,6*
X144036000Y-52119500D03*
X136736000Y-52119500D03*
G04 #@! TD*
D20*
G04 #@! TO.P,R4,2*
G04 #@! TO.N,GND*
X117157500Y-52451000D03*
D19*
G04 #@! TO.P,R4,1*
G04 #@! TO.N,Net-(D1-Pad1)*
X117157500Y-57531000D03*
G04 #@! TD*
D13*
G04 #@! TO.P,SW2,1*
G04 #@! TO.N,/DC+5*
X133540500Y-51943000D03*
D14*
G04 #@! TO.P,SW2,2*
G04 #@! TO.N,MIAN_5V*
X133540500Y-59563000D03*
G04 #@! TD*
D29*
G04 #@! TO.P,U9,1*
G04 #@! TO.N,/DC_IN*
X128778000Y-58928000D03*
D30*
G04 #@! TO.P,U9,2*
G04 #@! TO.N,GND*
X128778000Y-56388000D03*
G04 #@! TO.P,U9,3*
G04 #@! TO.N,/DC+5*
X128778000Y-53848000D03*
G04 #@! TD*
D17*
G04 #@! TO.P,C7,1*
G04 #@! TO.N,Net-(C7-Pad1)*
X149606000Y-145415000D03*
D18*
G04 #@! TO.P,C7,2*
G04 #@! TO.N,Net-(C7-Pad2)*
X148106000Y-145415000D03*
G04 #@! TD*
G04 #@! TO.P,C8,2*
G04 #@! TO.N,Net-(C8-Pad2)*
X149836000Y-139065000D03*
D17*
G04 #@! TO.P,C8,1*
G04 #@! TO.N,Net-(C8-Pad1)*
X148336000Y-139065000D03*
G04 #@! TD*
D13*
G04 #@! TO.P,U10,1*
G04 #@! TO.N,/D0*
X149860000Y-129540000D03*
D14*
G04 #@! TO.P,U10,21*
G04 #@! TO.N,SIG_MRD*
X198120000Y-114300000D03*
G04 #@! TO.P,U10,2*
G04 #@! TO.N,/D1*
X152400000Y-129540000D03*
G04 #@! TO.P,U10,22*
G04 #@! TO.N,GND*
X195580000Y-114300000D03*
G04 #@! TO.P,U10,3*
G04 #@! TO.N,/D2*
X154940000Y-129540000D03*
G04 #@! TO.P,U10,23*
G04 #@! TO.N,Net-(U10-Pad23)*
X193040000Y-114300000D03*
G04 #@! TO.P,U10,4*
G04 #@! TO.N,/D3*
X157480000Y-129540000D03*
G04 #@! TO.P,U10,24*
G04 #@! TO.N,Net-(U10-Pad24)*
X190500000Y-114300000D03*
G04 #@! TO.P,U10,5*
G04 #@! TO.N,/D4*
X160020000Y-129540000D03*
G04 #@! TO.P,U10,25*
G04 #@! TO.N,GND*
X187960000Y-114300000D03*
G04 #@! TO.P,U10,6*
G04 #@! TO.N,/D5*
X162560000Y-129540000D03*
G04 #@! TO.P,U10,26*
G04 #@! TO.N,/A2*
X185420000Y-114300000D03*
G04 #@! TO.P,U10,7*
G04 #@! TO.N,/D6*
X165100000Y-129540000D03*
G04 #@! TO.P,U10,27*
G04 #@! TO.N,/A1*
X182880000Y-114300000D03*
G04 #@! TO.P,U10,8*
G04 #@! TO.N,/D7*
X167640000Y-129540000D03*
G04 #@! TO.P,U10,28*
G04 #@! TO.N,/A0*
X180340000Y-114300000D03*
G04 #@! TO.P,U10,9*
G04 #@! TO.N,Net-(U10-Pad15)*
X170180000Y-129540000D03*
G04 #@! TO.P,U10,29*
G04 #@! TO.N,Net-(U10-Pad29)*
X177800000Y-114300000D03*
G04 #@! TO.P,U10,10*
G04 #@! TO.N,Net-(U10-Pad10)*
X172720000Y-129540000D03*
G04 #@! TO.P,U10,30*
G04 #@! TO.N,Net-(U10-Pad30)*
X175260000Y-114300000D03*
G04 #@! TO.P,U10,11*
G04 #@! TO.N,Net-(U10-Pad11)*
X175260000Y-129540000D03*
G04 #@! TO.P,U10,31*
G04 #@! TO.N,Net-(U10-Pad31)*
X172720000Y-114300000D03*
G04 #@! TO.P,U10,12*
G04 #@! TO.N,Net-(U10-Pad12)*
X177800000Y-129540000D03*
G04 #@! TO.P,U10,32*
G04 #@! TO.N,Net-(U10-Pad32)*
X170180000Y-114300000D03*
G04 #@! TO.P,U10,13*
G04 #@! TO.N,/A14*
X180340000Y-129540000D03*
G04 #@! TO.P,U10,33*
G04 #@! TO.N,Net-(U10-Pad33)*
X167640000Y-114300000D03*
G04 #@! TO.P,U10,14*
G04 #@! TO.N,/A15*
X182880000Y-129540000D03*
G04 #@! TO.P,U10,34*
G04 #@! TO.N,Net-(U10-Pad34)*
X165100000Y-114300000D03*
G04 #@! TO.P,U10,15*
G04 #@! TO.N,Net-(U10-Pad15)*
X185420000Y-129540000D03*
G04 #@! TO.P,U10,35*
G04 #@! TO.N,Net-(U10-Pad35)*
X162560000Y-114300000D03*
G04 #@! TO.P,U10,16*
G04 #@! TO.N,Net-(U10-Pad16)*
X187960000Y-129540000D03*
G04 #@! TO.P,U10,36*
G04 #@! TO.N,Net-(U10-Pad36)*
X160020000Y-114300000D03*
G04 #@! TO.P,U10,17*
G04 #@! TO.N,Net-(U10-Pad17)*
X190500000Y-129540000D03*
G04 #@! TO.P,U10,37*
G04 #@! TO.N,Net-(U10-Pad37)*
X157480000Y-114300000D03*
G04 #@! TO.P,U10,18*
G04 #@! TO.N,SIG_MWR*
X193040000Y-129540000D03*
G04 #@! TO.P,U10,38*
G04 #@! TO.N,Net-(U10-Pad38)*
X154940000Y-114300000D03*
G04 #@! TO.P,U10,19*
G04 #@! TO.N,GND*
X195580000Y-129540000D03*
G04 #@! TO.P,U10,39*
G04 #@! TO.N,Net-(U10-Pad39)*
X152400000Y-114300000D03*
G04 #@! TO.P,U10,20*
G04 #@! TO.N,GND*
X198120000Y-129540000D03*
G04 #@! TO.P,U10,40*
G04 #@! TO.N,MAIN_5V*
X149860000Y-114300000D03*
G04 #@! TD*
G04 #@! TO.P,U12,14*
G04 #@! TO.N,MAIN_5V*
X186700816Y-133084329D03*
G04 #@! TO.P,U12,7*
G04 #@! TO.N,GND*
X179080816Y-148324329D03*
G04 #@! TO.P,U12,13*
G04 #@! TO.N,/A9*
X186700816Y-135624329D03*
G04 #@! TO.P,U12,6*
G04 #@! TO.N,Net-(U12-Pad11)*
X179080816Y-145784329D03*
G04 #@! TO.P,U12,12*
G04 #@! TO.N,/A8*
X186700816Y-138164329D03*
G04 #@! TO.P,U12,5*
G04 #@! TO.N,/A7*
X179080816Y-143244329D03*
G04 #@! TO.P,U12,11*
G04 #@! TO.N,Net-(U12-Pad11)*
X186700816Y-140704329D03*
G04 #@! TO.P,U12,4*
G04 #@! TO.N,/A6*
X179080816Y-140704329D03*
G04 #@! TO.P,U12,10*
G04 #@! TO.N,Net-(U12-Pad10)*
X186700816Y-143244329D03*
G04 #@! TO.P,U12,3*
G04 #@! TO.N,Net-(U12-Pad3)*
X179080816Y-138164329D03*
G04 #@! TO.P,U12,9*
X186700816Y-145784329D03*
G04 #@! TO.P,U12,2*
G04 #@! TO.N,/A4*
X179080816Y-135624329D03*
G04 #@! TO.P,U12,8*
G04 #@! TO.N,/A5*
X186700816Y-148324329D03*
D13*
G04 #@! TO.P,U12,1*
G04 #@! TO.N,/A3*
X179080816Y-133084329D03*
G04 #@! TD*
G04 #@! TO.P,U13,1*
G04 #@! TO.N,Net-(U12-Pad10)*
X190205815Y-133084329D03*
D14*
G04 #@! TO.P,U13,8*
G04 #@! TO.N,/A11*
X197825815Y-148324329D03*
G04 #@! TO.P,U13,2*
G04 #@! TO.N,/A10*
X190205815Y-135624329D03*
G04 #@! TO.P,U13,9*
G04 #@! TO.N,Net-(U13-Pad3)*
X197825815Y-145784329D03*
G04 #@! TO.P,U13,3*
X190205815Y-138164329D03*
G04 #@! TO.P,U13,10*
G04 #@! TO.N,N/C*
X197825815Y-143244329D03*
G04 #@! TO.P,U13,4*
G04 #@! TO.N,/A12*
X190205815Y-140704329D03*
G04 #@! TO.P,U13,11*
G04 #@! TO.N,N/C*
X197825815Y-140704329D03*
G04 #@! TO.P,U13,5*
G04 #@! TO.N,SYS_USER_SELECT*
X190205815Y-143244329D03*
G04 #@! TO.P,U13,12*
G04 #@! TO.N,N/C*
X197825815Y-138164329D03*
G04 #@! TO.P,U13,6*
G04 #@! TO.N,Net-(U13-Pad6)*
X190205815Y-145784329D03*
G04 #@! TO.P,U13,13*
G04 #@! TO.N,N/C*
X197825815Y-135624329D03*
G04 #@! TO.P,U13,7*
G04 #@! TO.N,GND*
X190205815Y-148324329D03*
G04 #@! TO.P,U13,14*
G04 #@! TO.N,MAIN_5V*
X197825815Y-133084329D03*
G04 #@! TD*
D31*
G04 #@! TO.N,GND*
X132080000Y-101600000D03*
X132080000Y-104140000D03*
X165100000Y-63500000D03*
X187325000Y-121539000D03*
X192913000Y-122047000D03*
X119380000Y-120904000D03*
X194056000Y-146304000D03*
X121920000Y-122428000D03*
G04 #@! TO.N,MAIN_5V*
X147320000Y-66040000D03*
X152400000Y-66040000D03*
G04 #@! TO.N,/A11*
X116840000Y-81280000D03*
G04 #@! TO.N,/A14*
X103124000Y-119379980D03*
G04 #@! TO.N,/A15*
X180340000Y-122428000D03*
G04 #@! TO.N,/D4*
X158750000Y-116840000D03*
G04 #@! TO.N,/D3*
X156210000Y-116839990D03*
G04 #@! TO.N,/D5*
X161370862Y-116871091D03*
G04 #@! TO.N,/D6*
X163830000Y-116840000D03*
G04 #@! TO.N,/D2*
X153670000Y-116840008D03*
G04 #@! TO.N,/D7*
X166370000Y-116839998D03*
G04 #@! TO.N,/D0*
X148590000Y-116840000D03*
G04 #@! TO.N,/D1*
X151130000Y-116840000D03*
G04 #@! TO.N,/A5*
X183896000Y-80264000D03*
G04 #@! TO.N,SIG_MRD*
X146050058Y-85090000D03*
X146685000Y-132080000D03*
G04 #@! TO.N,SIG_MWR*
X104140000Y-66040000D03*
G04 #@! TO.N,Net-(U13-Pad6)*
X193802000Y-117094000D03*
G04 #@! TD*
D32*
G04 #@! TO.N,GND*
X132080000Y-101600000D02*
X132080000Y-104140000D01*
X167640000Y-60960000D02*
X165100000Y-63500000D01*
X187833000Y-122047000D02*
X187325000Y-121539000D01*
X192913000Y-122047000D02*
X187833000Y-122047000D01*
X119380000Y-120904000D02*
X120396000Y-120904000D01*
X121520001Y-122028001D02*
X121920000Y-122428000D01*
X120396000Y-120904000D02*
X121520001Y-122028001D01*
G04 #@! TO.N,MAIN_5V*
X193040000Y-72390000D02*
X194040000Y-72390000D01*
X152400000Y-66040000D02*
X147320000Y-66040000D01*
X197825815Y-133084329D02*
X196088000Y-131346514D01*
X188438631Y-131346514D02*
X186700816Y-133084329D01*
X196088000Y-131346514D02*
X188438631Y-131346514D01*
G04 #@! TO.N,Net-(U1-Pad21)*
X123190000Y-120700000D02*
X123190000Y-128270000D01*
X120955001Y-118465001D02*
X123190000Y-120700000D01*
X123190000Y-128270000D02*
X121920000Y-129540000D01*
X110490000Y-129540000D02*
X107950000Y-132080000D01*
X121920000Y-129540000D02*
X110490000Y-129540000D01*
G04 #@! TO.N,Net-(U1-Pad22)*
X116695001Y-130954999D02*
X123045001Y-130954999D01*
X115570000Y-132080000D02*
X116695001Y-130954999D01*
X121755000Y-116725000D02*
X120955001Y-115925001D01*
X123640009Y-118610009D02*
X121755000Y-116725000D01*
X123640009Y-130359991D02*
X123640009Y-118610009D01*
X123045001Y-130954999D02*
X123640009Y-130359991D01*
G04 #@! TO.N,Net-(U1-Pad19)*
X104635704Y-131305704D02*
X105410000Y-132080000D01*
X118110000Y-133350000D02*
X118110000Y-132080000D01*
X116840000Y-134620000D02*
X118110000Y-133350000D01*
X106900000Y-134620000D02*
X116840000Y-134620000D01*
X105410000Y-132080000D02*
X105410000Y-133130000D01*
X105410000Y-133130000D02*
X106900000Y-134620000D01*
X105410000Y-131030000D02*
X105410000Y-132080000D01*
X107696000Y-128744000D02*
X105410000Y-131030000D01*
X109033600Y-127450010D02*
X107696000Y-126112410D01*
X113216400Y-127450010D02*
X109033600Y-127450010D01*
X115081409Y-125585001D02*
X113216400Y-127450010D01*
X107696000Y-126112410D02*
X107696000Y-128744000D01*
X116110001Y-125585001D02*
X115081409Y-125585001D01*
X109075001Y-125000001D02*
X108490001Y-125585001D01*
X114444999Y-123919999D02*
X115029999Y-123334999D01*
X109075001Y-123919999D02*
X109075001Y-125000001D01*
X108490001Y-123334999D02*
X109075001Y-123919999D01*
X112843600Y-126549990D02*
X114444999Y-124948591D01*
X116695001Y-123919999D02*
X116695001Y-125000001D01*
X107696000Y-123334999D02*
X108490001Y-123334999D01*
X107696000Y-117906000D02*
X107696000Y-123334999D01*
X108490001Y-125585001D02*
X108441411Y-125585001D01*
X115029999Y-123334999D02*
X116110001Y-123334999D01*
X108441411Y-125585001D02*
X109406400Y-126549990D01*
X116695001Y-125000001D02*
X116110001Y-125585001D01*
X109406400Y-126549990D02*
X112843600Y-126549990D01*
X114444999Y-124948591D02*
X114444999Y-123919999D01*
X105715001Y-115925001D02*
X107696000Y-117906000D01*
X116110001Y-123334999D02*
X116695001Y-123919999D01*
G04 #@! TO.N,/A11*
X192040000Y-82550000D02*
X193040000Y-82550000D01*
X167169999Y-81750001D02*
X166370000Y-82550000D01*
X167495010Y-81424990D02*
X167169999Y-81750001D01*
X190714990Y-81424990D02*
X167495010Y-81424990D01*
X191840000Y-82550000D02*
X190714990Y-81424990D01*
X193040000Y-82550000D02*
X191840000Y-82550000D01*
X143039999Y-81750001D02*
X142240000Y-82550000D01*
X143510000Y-81280000D02*
X143039999Y-81750001D01*
X165100000Y-81280000D02*
X143510000Y-81280000D01*
X166370000Y-82550000D02*
X165100000Y-81280000D01*
X117340000Y-81780000D02*
X116840000Y-81280000D01*
X121495002Y-81780000D02*
X117340000Y-81780000D01*
X121850003Y-81424999D02*
X121495002Y-81780000D01*
X142240000Y-82550000D02*
X141114999Y-81424999D01*
X141114999Y-81424999D02*
X121850003Y-81424999D01*
G04 #@! TO.N,/A12*
X127799999Y-71590001D02*
X127000000Y-72390000D01*
X128125001Y-71264999D02*
X127799999Y-71590001D01*
X142780001Y-71264999D02*
X128125001Y-71264999D01*
X143905002Y-72390000D02*
X142780001Y-71264999D01*
X151130000Y-72390000D02*
X143905002Y-72390000D01*
X126200001Y-71590001D02*
X127000000Y-72390000D01*
X106870001Y-71590001D02*
X126200001Y-71590001D01*
X105715001Y-72745001D02*
X106870001Y-71590001D01*
G04 #@! TO.N,/A14*
X105715001Y-77825001D02*
X104140000Y-76250000D01*
X104140000Y-76250000D02*
X104140000Y-68580000D01*
X127000000Y-69850000D02*
X125730000Y-69850000D01*
X125730000Y-69850000D02*
X124460000Y-68580000D01*
X124460000Y-68580000D02*
X104140000Y-68580000D01*
X103124000Y-118814295D02*
X103124000Y-119379980D01*
X103124000Y-80416002D02*
X103124000Y-118814295D01*
X105715001Y-77825001D02*
X103124000Y-80416002D01*
G04 #@! TO.N,/A15*
X180340000Y-127000000D02*
X182880000Y-129540000D01*
X180340000Y-122428000D02*
X180340000Y-127000000D01*
G04 #@! TO.N,/D4*
X167169999Y-99530001D02*
X166370000Y-100330000D01*
X167495010Y-99204990D02*
X167169999Y-99530001D01*
X190714990Y-99204990D02*
X167495010Y-99204990D01*
X191840000Y-100330000D02*
X190714990Y-99204990D01*
X193040000Y-100330000D02*
X191840000Y-100330000D01*
X143039999Y-99530001D02*
X142240000Y-100330000D01*
X143510000Y-99060000D02*
X143039999Y-99530001D01*
X165100000Y-99060000D02*
X143510000Y-99060000D01*
X166370000Y-100330000D02*
X165100000Y-99060000D01*
X158750000Y-128270000D02*
X158750000Y-116840000D01*
X160020000Y-129540000D02*
X158750000Y-128270000D01*
G04 #@! TO.N,/D3*
X167169999Y-102070001D02*
X166370000Y-102870000D01*
X167495010Y-101744990D02*
X167169999Y-102070001D01*
X190714990Y-101744990D02*
X167495010Y-101744990D01*
X191840000Y-102870000D02*
X190714990Y-101744990D01*
X193040000Y-102870000D02*
X191840000Y-102870000D01*
X143039999Y-102070001D02*
X142240000Y-102870000D01*
X143510000Y-101600000D02*
X143039999Y-102070001D01*
X165100000Y-101600000D02*
X143510000Y-101600000D01*
X166370000Y-102870000D02*
X165100000Y-101600000D01*
X156210000Y-128270000D02*
X156210000Y-116839990D01*
X157480000Y-129540000D02*
X156210000Y-128270000D01*
G04 #@! TO.N,/D5*
X167169999Y-96990001D02*
X166370000Y-97790000D01*
X167495010Y-96664990D02*
X167169999Y-96990001D01*
X190714990Y-96664990D02*
X167495010Y-96664990D01*
X191840000Y-97790000D02*
X190714990Y-96664990D01*
X193040000Y-97790000D02*
X191840000Y-97790000D01*
X143039999Y-96990001D02*
X142240000Y-97790000D01*
X143510000Y-96520000D02*
X143039999Y-96990001D01*
X165100000Y-96520000D02*
X143510000Y-96520000D01*
X166370000Y-97790000D02*
X165100000Y-96520000D01*
X161370862Y-128350862D02*
X161370862Y-116871091D01*
X162560000Y-129540000D02*
X161370862Y-128350862D01*
G04 #@! TO.N,/D6*
X167169999Y-94450001D02*
X166370000Y-95250000D01*
X167495010Y-94124990D02*
X167169999Y-94450001D01*
X190714990Y-94124990D02*
X167495010Y-94124990D01*
X191840000Y-95250000D02*
X190714990Y-94124990D01*
X193040000Y-95250000D02*
X191840000Y-95250000D01*
X143039999Y-94450001D02*
X142240000Y-95250000D01*
X143510000Y-93980000D02*
X143039999Y-94450001D01*
X165100000Y-93980000D02*
X143510000Y-93980000D01*
X166370000Y-95250000D02*
X165100000Y-93980000D01*
X126394996Y-94190002D02*
X126604998Y-93980000D01*
X105715001Y-93065001D02*
X106840002Y-94190002D01*
X106840002Y-94190002D02*
X126394996Y-94190002D01*
X140970000Y-93980000D02*
X142240000Y-95250000D01*
X126604998Y-93980000D02*
X140970000Y-93980000D01*
X163830000Y-128270000D02*
X163830000Y-116840000D01*
X165100000Y-129540000D02*
X163830000Y-128270000D01*
G04 #@! TO.N,/D2*
X153670000Y-128270000D02*
X153670000Y-116840008D01*
X154940000Y-129540000D02*
X153670000Y-128270000D01*
G04 #@! TO.N,/D7*
X192040000Y-92710000D02*
X193040000Y-92710000D01*
X167169999Y-91910001D02*
X166370000Y-92710000D01*
X167495010Y-91584990D02*
X167169999Y-91910001D01*
X190714990Y-91584990D02*
X167495010Y-91584990D01*
X191840000Y-92710000D02*
X190714990Y-91584990D01*
X193040000Y-92710000D02*
X191840000Y-92710000D01*
X143039999Y-91910001D02*
X142240000Y-92710000D01*
X143510000Y-91440000D02*
X143039999Y-91910001D01*
X165100000Y-91440000D02*
X143510000Y-91440000D01*
X166370000Y-92710000D02*
X165100000Y-91440000D01*
X166370000Y-128270000D02*
X166370000Y-116839998D01*
X167640000Y-129540000D02*
X166370000Y-128270000D01*
G04 #@! TO.N,/D0*
X126200001Y-96049999D02*
X127000000Y-95250000D01*
X122690000Y-99560000D02*
X126200001Y-96049999D01*
X109380002Y-99560000D02*
X122690000Y-99560000D01*
X105715001Y-103225001D02*
X109380002Y-99560000D01*
X148590000Y-128270000D02*
X148590000Y-116840000D01*
X149860000Y-129540000D02*
X148590000Y-128270000D01*
G04 #@! TO.N,/D1*
X126200001Y-98589999D02*
X127000000Y-97790000D01*
X122690000Y-102100000D02*
X126200001Y-98589999D01*
X109380002Y-102100000D02*
X122690000Y-102100000D01*
X105715001Y-105765001D02*
X109380002Y-102100000D01*
X152400000Y-129540000D02*
X151130000Y-128270000D01*
X151130000Y-128270000D02*
X151130000Y-116840000D01*
G04 #@! TO.N,/A5*
X178054000Y-80264000D02*
X177800000Y-80010000D01*
X183896000Y-80264000D02*
X178054000Y-80264000D01*
G04 #@! TO.N,/A8*
X193040000Y-77470000D02*
X192040000Y-77470000D01*
X167169999Y-76670001D02*
X166370000Y-77470000D01*
X167495010Y-76344990D02*
X167169999Y-76670001D01*
X189664990Y-76344990D02*
X167495010Y-76344990D01*
X190790000Y-77470000D02*
X189664990Y-76344990D01*
X193040000Y-77470000D02*
X190790000Y-77470000D01*
X143039999Y-76670001D02*
X142240000Y-77470000D01*
X143365001Y-76344999D02*
X143039999Y-76670001D01*
X165244999Y-76344999D02*
X143365001Y-76344999D01*
X166370000Y-77470000D02*
X165244999Y-76344999D01*
X121755000Y-76085000D02*
X120955001Y-75285001D01*
X129820002Y-76085000D02*
X121755000Y-76085000D01*
X131205002Y-77470000D02*
X129820002Y-76085000D01*
X142240000Y-77470000D02*
X131205002Y-77470000D01*
G04 #@! TO.N,/A9*
X192706153Y-80010000D02*
X193040000Y-80010000D01*
X167169999Y-79210001D02*
X166370000Y-80010000D01*
X167495010Y-78884990D02*
X167169999Y-79210001D01*
X190714990Y-78884990D02*
X167495010Y-78884990D01*
X191840000Y-80010000D02*
X190714990Y-78884990D01*
X193040000Y-80010000D02*
X191840000Y-80010000D01*
X143039999Y-79210001D02*
X142240000Y-80010000D01*
X143510000Y-78740000D02*
X143039999Y-79210001D01*
X165100000Y-78740000D02*
X143510000Y-78740000D01*
X166370000Y-80010000D02*
X165100000Y-78740000D01*
G04 #@! TO.N,/A10*
X167169999Y-86830001D02*
X166370000Y-87630000D01*
X167495010Y-86504990D02*
X167169999Y-86830001D01*
X190714990Y-86504990D02*
X167495010Y-86504990D01*
X191840000Y-87630000D02*
X190714990Y-86504990D01*
X193040000Y-87630000D02*
X191840000Y-87630000D01*
X166370000Y-87630000D02*
X165190002Y-86450002D01*
X143419998Y-86450002D02*
X143039999Y-86830001D01*
X143039999Y-86830001D02*
X142240000Y-87630000D01*
X165190002Y-86450002D02*
X143419998Y-86450002D01*
G04 #@! TO.N,SIG_MRD*
X142240000Y-85090000D02*
X146050058Y-85090000D01*
X193675000Y-118745000D02*
X198120000Y-114300000D01*
X179309998Y-118745000D02*
X193675000Y-118745000D01*
X168910000Y-129144998D02*
X179309998Y-118745000D01*
X168910000Y-129935002D02*
X168910000Y-129144998D01*
X146685000Y-132080000D02*
X166765002Y-132080000D01*
X166765002Y-132080000D02*
X168910000Y-129935002D01*
G04 #@! TO.N,SIG_MWR*
X104865001Y-66765001D02*
X150585001Y-66765001D01*
X104140000Y-66040000D02*
X104865001Y-66765001D01*
X150585001Y-66765001D02*
X152400000Y-68580000D01*
X143039999Y-73189999D02*
X142240000Y-72390000D01*
X143365001Y-73515001D02*
X143039999Y-73189999D01*
X151670001Y-73515001D02*
X143365001Y-73515001D01*
X152400000Y-72785002D02*
X151670001Y-73515001D01*
X152400000Y-68580000D02*
X152400000Y-72785002D01*
G04 #@! TO.N,Net-(C3-Pad1)*
X122970000Y-137160000D02*
X120904000Y-137160000D01*
X127000000Y-133130000D02*
X122970000Y-137160000D01*
X127000000Y-132080000D02*
X127000000Y-133130000D01*
X120904000Y-137160000D02*
X115824000Y-137160000D01*
X113284000Y-137160000D02*
X115824000Y-137160000D01*
X113284000Y-137160000D02*
X106784000Y-137160000D01*
G04 #@! TO.N,Net-(C4-Pad1)*
X135890000Y-135890000D02*
X132080000Y-132080000D01*
X137160000Y-135890000D02*
X135890000Y-135890000D01*
X132080000Y-132080000D02*
X129540000Y-134620000D01*
X129540000Y-135890000D02*
X125730000Y-139700000D01*
X129540000Y-134620000D02*
X129540000Y-135890000D01*
X123825000Y-141605000D02*
X120650000Y-141605000D01*
X125730000Y-139700000D02*
X123825000Y-141605000D01*
G04 #@! TO.N,Net-(C5-Pad1)*
X136525000Y-137795000D02*
X137160000Y-138430000D01*
X131445000Y-137795000D02*
X136525000Y-137795000D01*
X130630000Y-139700000D02*
X130630000Y-138610000D01*
X130630000Y-138610000D02*
X131445000Y-137795000D01*
X137160000Y-138430000D02*
X137160000Y-141605000D01*
G04 #@! TO.N,Net-(R2-Pad1)*
X134620000Y-132080000D02*
X137160000Y-132080000D01*
X142240000Y-138430000D02*
X142240000Y-135890000D01*
X137160000Y-133350000D02*
X137160000Y-132080000D01*
X142240000Y-135890000D02*
X139700000Y-135890000D01*
X139700000Y-135890000D02*
X137160000Y-133350000D01*
G04 #@! TO.N,CPU_CLK*
X121824989Y-135070009D02*
X125939999Y-130954999D01*
X138574999Y-130954999D02*
X138900001Y-131280001D01*
X104357001Y-84263001D02*
X104357001Y-119220001D01*
X138900001Y-131280001D02*
X139700000Y-132080000D01*
X104140000Y-132995002D02*
X106215007Y-135070009D01*
X104357001Y-119220001D02*
X104140000Y-119437002D01*
X106215007Y-135070009D02*
X121824989Y-135070009D01*
X125939999Y-130954999D02*
X138574999Y-130954999D01*
X104140000Y-119437002D02*
X104140000Y-132995002D01*
X105715001Y-82905001D02*
X104357001Y-84263001D01*
G04 #@! TO.N,SYS_USER_SELECT*
X106515000Y-74485002D02*
X105715001Y-75285001D01*
X106840002Y-74160000D02*
X106515000Y-74485002D01*
X121420000Y-74160000D02*
X106840002Y-74160000D01*
X121775001Y-73804999D02*
X121420000Y-74160000D01*
X141114999Y-73804999D02*
X121775001Y-73804999D01*
X142240000Y-74930000D02*
X141114999Y-73804999D01*
G04 #@! TO.N,Net-(U4-Pad10)*
X107950000Y-124460000D02*
X107950000Y-125730000D01*
X107950000Y-125730000D02*
X109220000Y-127000000D01*
X113030000Y-127000000D02*
X115570000Y-124460000D01*
X109220000Y-127000000D02*
X113030000Y-127000000D01*
G04 #@! TO.N,ROM_BANK_ON*
X152400000Y-59910000D02*
X152400000Y-60960000D01*
X152475001Y-59834999D02*
X152400000Y-59910000D01*
X161434999Y-59834999D02*
X152475001Y-59834999D01*
X162560000Y-60960000D02*
X161434999Y-59834999D01*
G04 #@! TO.N,USER_ROM_ENABLE*
X194240000Y-90170000D02*
X198050000Y-86360000D01*
X193040000Y-90170000D02*
X194240000Y-90170000D01*
X198050000Y-86360000D02*
X198050000Y-68650000D01*
X198050000Y-68650000D02*
X195440000Y-66040000D01*
X165100000Y-66040000D02*
X160020000Y-60960000D01*
X195440000Y-66040000D02*
X165100000Y-66040000D01*
G04 #@! TO.N,Net-(D1-Pad1)*
X119443500Y-59817000D02*
X120777000Y-59817000D01*
X117157500Y-57531000D02*
X119443500Y-59817000D01*
G04 #@! TO.N,MIAN_5V*
X132740501Y-60362999D02*
X133540500Y-59563000D01*
X131635500Y-61468000D02*
X132740501Y-60362999D01*
X124968000Y-61468000D02*
X131635500Y-61468000D01*
X123317000Y-59817000D02*
X124968000Y-61468000D01*
G04 #@! TO.N,/DC+5*
X133540500Y-52993000D02*
X133540500Y-51943000D01*
X132685500Y-53848000D02*
X133540500Y-52993000D01*
X128778000Y-53848000D02*
X132685500Y-53848000D01*
X132707001Y-53869501D02*
X132685500Y-53848000D01*
X141606001Y-53869501D02*
X132707001Y-53869501D01*
X142061001Y-53414501D02*
X141606001Y-53869501D01*
X142061001Y-52119501D02*
X142061001Y-53414501D01*
X141986000Y-52044500D02*
X142061001Y-52119501D01*
X141986000Y-51244500D02*
X141986000Y-52044500D01*
G04 #@! TO.N,Net-(C7-Pad1)*
X149606000Y-145415000D02*
X154051000Y-145415000D01*
G04 #@! TO.N,Net-(C7-Pad2)*
X148106000Y-144566472D02*
X149162472Y-143510000D01*
X148106000Y-145415000D02*
X148106000Y-144566472D01*
X157226000Y-143510000D02*
X159131000Y-145415000D01*
X149162472Y-143510000D02*
X157226000Y-143510000D01*
G04 #@! TO.N,Net-(C8-Pad2)*
X157861000Y-139065000D02*
X164211000Y-145415000D01*
X149836000Y-139065000D02*
X157861000Y-139065000D01*
G04 #@! TO.N,Net-(C8-Pad1)*
X148336000Y-139915000D02*
X148756000Y-140335000D01*
X148336000Y-139065000D02*
X148336000Y-139915000D01*
X156591000Y-140335000D02*
X161671000Y-145415000D01*
X148756000Y-140335000D02*
X156591000Y-140335000D01*
G04 #@! TO.N,Net-(U10-Pad10)*
X164465000Y-137795000D02*
X164211000Y-137795000D01*
X172720000Y-129540000D02*
X164465000Y-137795000D01*
G04 #@! TO.N,Net-(U10-Pad11)*
X167005000Y-137795000D02*
X166751000Y-137795000D01*
X175260000Y-129540000D02*
X167005000Y-137795000D01*
G04 #@! TO.N,Net-(U10-Pad12)*
X137304999Y-109075001D02*
X138430000Y-107950000D01*
X137304999Y-117859997D02*
X137304999Y-109075001D01*
X145959999Y-126514997D02*
X137304999Y-117859997D01*
X175260000Y-132080000D02*
X175260000Y-149352000D01*
X175260000Y-149352000D02*
X174752000Y-149860000D01*
X174752000Y-149860000D02*
X147320000Y-149860000D01*
X177800000Y-129540000D02*
X175260000Y-132080000D01*
X147320000Y-149860000D02*
X145959999Y-148499999D01*
X145959999Y-148499999D02*
X145959999Y-126514997D01*
G04 #@! TO.N,Net-(U13-Pad6)*
X140970000Y-107950000D02*
X143510000Y-107950000D01*
X191625001Y-114917001D02*
X193802000Y-117094000D01*
X191625001Y-113759999D02*
X191625001Y-114917001D01*
X191040001Y-113174999D02*
X191625001Y-113759999D01*
X143510000Y-107950000D02*
X148734999Y-113174999D01*
X148734999Y-113174999D02*
X191040001Y-113174999D01*
G04 #@! TO.N,Net-(U12-Pad10)*
X189155815Y-133084329D02*
X190205815Y-133084329D01*
X188300815Y-133939329D02*
X189155815Y-133084329D01*
X188300815Y-142889328D02*
X188300815Y-133939329D01*
X187945814Y-143244329D02*
X188300815Y-142889328D01*
X186700816Y-143244329D02*
X187945814Y-143244329D01*
G04 #@! TO.N,Net-(U12-Pad3)*
X179080816Y-138164329D02*
X186700816Y-145784329D01*
G04 #@! TO.N,Net-(U13-Pad3)*
X190205815Y-138164329D02*
X197825815Y-145784329D01*
G04 #@! TD*
D33*
G04 #@! TO.N,/DC_IN*
G36*
X115899958Y-52971891D02*
X116195019Y-53413481D01*
X116636609Y-53708542D01*
X117026015Y-53786000D01*
X117288985Y-53786000D01*
X117678391Y-53708542D01*
X118119981Y-53413481D01*
X118415042Y-52971891D01*
X118518654Y-52451000D01*
X121310500Y-52451000D01*
X121310500Y-52649439D01*
X121528966Y-53176862D01*
X121792259Y-53440155D01*
X121585801Y-53525673D01*
X121407173Y-53704302D01*
X121310500Y-53937691D01*
X121310500Y-54578250D01*
X121469250Y-54737000D01*
X122618500Y-54737000D01*
X122618500Y-54717000D01*
X122872500Y-54717000D01*
X122872500Y-54737000D01*
X124021750Y-54737000D01*
X124180500Y-54578250D01*
X124180500Y-53937691D01*
X124083827Y-53704302D01*
X123905199Y-53525673D01*
X123698741Y-53440155D01*
X123962034Y-53176862D01*
X124180500Y-52649439D01*
X124180500Y-52451000D01*
X127963836Y-52451000D01*
X127585977Y-52703477D01*
X127235109Y-53228589D01*
X127111900Y-53848000D01*
X127235109Y-54467411D01*
X127585977Y-54992523D01*
X127773767Y-55118000D01*
X127585977Y-55243477D01*
X127235109Y-55768589D01*
X127111900Y-56388000D01*
X127235109Y-57007411D01*
X127499729Y-57403444D01*
X127418301Y-57437173D01*
X127239673Y-57615802D01*
X127143000Y-57849191D01*
X127143000Y-58642250D01*
X127301750Y-58801000D01*
X128651000Y-58801000D01*
X128651000Y-58781000D01*
X128905000Y-58781000D01*
X128905000Y-58801000D01*
X130254250Y-58801000D01*
X130413000Y-58642250D01*
X130413000Y-57849191D01*
X130316327Y-57615802D01*
X130137699Y-57437173D01*
X130056271Y-57403444D01*
X130320891Y-57007411D01*
X130444100Y-56388000D01*
X130320891Y-55768589D01*
X129970023Y-55243477D01*
X129782233Y-55118000D01*
X129970023Y-54992523D01*
X130226953Y-54608000D01*
X130937000Y-54608000D01*
X130937000Y-60708000D01*
X125282802Y-60708000D01*
X124806640Y-60231838D01*
X124852000Y-60122330D01*
X124852000Y-59511670D01*
X124728598Y-59213750D01*
X127143000Y-59213750D01*
X127143000Y-60006809D01*
X127239673Y-60240198D01*
X127418301Y-60418827D01*
X127651690Y-60515500D01*
X128492250Y-60515500D01*
X128651000Y-60356750D01*
X128651000Y-59055000D01*
X128905000Y-59055000D01*
X128905000Y-60356750D01*
X129063750Y-60515500D01*
X129904310Y-60515500D01*
X130137699Y-60418827D01*
X130316327Y-60240198D01*
X130413000Y-60006809D01*
X130413000Y-59213750D01*
X130254250Y-59055000D01*
X128905000Y-59055000D01*
X128651000Y-59055000D01*
X127301750Y-59055000D01*
X127143000Y-59213750D01*
X124728598Y-59213750D01*
X124618310Y-58947493D01*
X124186507Y-58515690D01*
X123622330Y-58282000D01*
X123011670Y-58282000D01*
X122447493Y-58515690D01*
X122278275Y-58684908D01*
X122275157Y-58669235D01*
X122134809Y-58459191D01*
X121924765Y-58318843D01*
X121677000Y-58269560D01*
X119877000Y-58269560D01*
X119629235Y-58318843D01*
X119419191Y-58459191D01*
X119315571Y-58614269D01*
X118492500Y-57791199D01*
X118492500Y-57265452D01*
X118289258Y-56774783D01*
X117913717Y-56399242D01*
X117423048Y-56196000D01*
X116891952Y-56196000D01*
X116401283Y-56399242D01*
X116025742Y-56774783D01*
X115822500Y-57265452D01*
X115822500Y-57796548D01*
X116025742Y-58287217D01*
X116401283Y-58662758D01*
X116891952Y-58866000D01*
X117417699Y-58866000D01*
X118853170Y-60301472D01*
X118895571Y-60364929D01*
X119146963Y-60532904D01*
X119229560Y-60549334D01*
X119229560Y-60717000D01*
X119278843Y-60964765D01*
X119419191Y-61174809D01*
X119629235Y-61315157D01*
X119877000Y-61364440D01*
X121677000Y-61364440D01*
X121924765Y-61315157D01*
X122134809Y-61174809D01*
X122275157Y-60964765D01*
X122278275Y-60949092D01*
X122447493Y-61118310D01*
X123011670Y-61352000D01*
X123622330Y-61352000D01*
X123731838Y-61306640D01*
X124377671Y-61952473D01*
X124420071Y-62015929D01*
X124671463Y-62183904D01*
X124893148Y-62228000D01*
X124893152Y-62228000D01*
X124968000Y-62242888D01*
X125042848Y-62228000D01*
X130124394Y-62228000D01*
X129995394Y-62357000D01*
X112828606Y-62357000D01*
X111379000Y-60907394D01*
X111379000Y-57054750D01*
X112284000Y-57054750D01*
X112284000Y-58895309D01*
X112380673Y-59128698D01*
X112559301Y-59307327D01*
X112792690Y-59404000D01*
X113633250Y-59404000D01*
X113792000Y-59245250D01*
X113792000Y-56896000D01*
X114046000Y-56896000D01*
X114046000Y-59245250D01*
X114204750Y-59404000D01*
X115045310Y-59404000D01*
X115278699Y-59307327D01*
X115457327Y-59128698D01*
X115554000Y-58895309D01*
X115554000Y-57054750D01*
X115395250Y-56896000D01*
X114046000Y-56896000D01*
X113792000Y-56896000D01*
X112442750Y-56896000D01*
X112284000Y-57054750D01*
X111379000Y-57054750D01*
X111379000Y-54642691D01*
X112284000Y-54642691D01*
X112284000Y-56483250D01*
X112442750Y-56642000D01*
X113792000Y-56642000D01*
X113792000Y-54292750D01*
X114046000Y-54292750D01*
X114046000Y-56642000D01*
X115395250Y-56642000D01*
X115554000Y-56483250D01*
X115554000Y-55149750D01*
X121310500Y-55149750D01*
X121310500Y-55790309D01*
X121407173Y-56023698D01*
X121585801Y-56202327D01*
X121819190Y-56299000D01*
X122459750Y-56299000D01*
X122618500Y-56140250D01*
X122618500Y-54991000D01*
X122872500Y-54991000D01*
X122872500Y-56140250D01*
X123031250Y-56299000D01*
X123671810Y-56299000D01*
X123905199Y-56202327D01*
X124083827Y-56023698D01*
X124180500Y-55790309D01*
X124180500Y-55149750D01*
X124021750Y-54991000D01*
X122872500Y-54991000D01*
X122618500Y-54991000D01*
X121469250Y-54991000D01*
X121310500Y-55149750D01*
X115554000Y-55149750D01*
X115554000Y-54642691D01*
X115457327Y-54409302D01*
X115278699Y-54230673D01*
X115045310Y-54134000D01*
X114204750Y-54134000D01*
X114046000Y-54292750D01*
X113792000Y-54292750D01*
X113633250Y-54134000D01*
X112792690Y-54134000D01*
X112559301Y-54230673D01*
X112380673Y-54409302D01*
X112284000Y-54642691D01*
X111379000Y-54642691D01*
X111379000Y-53392606D01*
X112320606Y-52451000D01*
X115796346Y-52451000D01*
X115899958Y-52971891D01*
X115899958Y-52971891D01*
G37*
X115899958Y-52971891D02*
X116195019Y-53413481D01*
X116636609Y-53708542D01*
X117026015Y-53786000D01*
X117288985Y-53786000D01*
X117678391Y-53708542D01*
X118119981Y-53413481D01*
X118415042Y-52971891D01*
X118518654Y-52451000D01*
X121310500Y-52451000D01*
X121310500Y-52649439D01*
X121528966Y-53176862D01*
X121792259Y-53440155D01*
X121585801Y-53525673D01*
X121407173Y-53704302D01*
X121310500Y-53937691D01*
X121310500Y-54578250D01*
X121469250Y-54737000D01*
X122618500Y-54737000D01*
X122618500Y-54717000D01*
X122872500Y-54717000D01*
X122872500Y-54737000D01*
X124021750Y-54737000D01*
X124180500Y-54578250D01*
X124180500Y-53937691D01*
X124083827Y-53704302D01*
X123905199Y-53525673D01*
X123698741Y-53440155D01*
X123962034Y-53176862D01*
X124180500Y-52649439D01*
X124180500Y-52451000D01*
X127963836Y-52451000D01*
X127585977Y-52703477D01*
X127235109Y-53228589D01*
X127111900Y-53848000D01*
X127235109Y-54467411D01*
X127585977Y-54992523D01*
X127773767Y-55118000D01*
X127585977Y-55243477D01*
X127235109Y-55768589D01*
X127111900Y-56388000D01*
X127235109Y-57007411D01*
X127499729Y-57403444D01*
X127418301Y-57437173D01*
X127239673Y-57615802D01*
X127143000Y-57849191D01*
X127143000Y-58642250D01*
X127301750Y-58801000D01*
X128651000Y-58801000D01*
X128651000Y-58781000D01*
X128905000Y-58781000D01*
X128905000Y-58801000D01*
X130254250Y-58801000D01*
X130413000Y-58642250D01*
X130413000Y-57849191D01*
X130316327Y-57615802D01*
X130137699Y-57437173D01*
X130056271Y-57403444D01*
X130320891Y-57007411D01*
X130444100Y-56388000D01*
X130320891Y-55768589D01*
X129970023Y-55243477D01*
X129782233Y-55118000D01*
X129970023Y-54992523D01*
X130226953Y-54608000D01*
X130937000Y-54608000D01*
X130937000Y-60708000D01*
X125282802Y-60708000D01*
X124806640Y-60231838D01*
X124852000Y-60122330D01*
X124852000Y-59511670D01*
X124728598Y-59213750D01*
X127143000Y-59213750D01*
X127143000Y-60006809D01*
X127239673Y-60240198D01*
X127418301Y-60418827D01*
X127651690Y-60515500D01*
X128492250Y-60515500D01*
X128651000Y-60356750D01*
X128651000Y-59055000D01*
X128905000Y-59055000D01*
X128905000Y-60356750D01*
X129063750Y-60515500D01*
X129904310Y-60515500D01*
X130137699Y-60418827D01*
X130316327Y-60240198D01*
X130413000Y-60006809D01*
X130413000Y-59213750D01*
X130254250Y-59055000D01*
X128905000Y-59055000D01*
X128651000Y-59055000D01*
X127301750Y-59055000D01*
X127143000Y-59213750D01*
X124728598Y-59213750D01*
X124618310Y-58947493D01*
X124186507Y-58515690D01*
X123622330Y-58282000D01*
X123011670Y-58282000D01*
X122447493Y-58515690D01*
X122278275Y-58684908D01*
X122275157Y-58669235D01*
X122134809Y-58459191D01*
X121924765Y-58318843D01*
X121677000Y-58269560D01*
X119877000Y-58269560D01*
X119629235Y-58318843D01*
X119419191Y-58459191D01*
X119315571Y-58614269D01*
X118492500Y-57791199D01*
X118492500Y-57265452D01*
X118289258Y-56774783D01*
X117913717Y-56399242D01*
X117423048Y-56196000D01*
X116891952Y-56196000D01*
X116401283Y-56399242D01*
X116025742Y-56774783D01*
X115822500Y-57265452D01*
X115822500Y-57796548D01*
X116025742Y-58287217D01*
X116401283Y-58662758D01*
X116891952Y-58866000D01*
X117417699Y-58866000D01*
X118853170Y-60301472D01*
X118895571Y-60364929D01*
X119146963Y-60532904D01*
X119229560Y-60549334D01*
X119229560Y-60717000D01*
X119278843Y-60964765D01*
X119419191Y-61174809D01*
X119629235Y-61315157D01*
X119877000Y-61364440D01*
X121677000Y-61364440D01*
X121924765Y-61315157D01*
X122134809Y-61174809D01*
X122275157Y-60964765D01*
X122278275Y-60949092D01*
X122447493Y-61118310D01*
X123011670Y-61352000D01*
X123622330Y-61352000D01*
X123731838Y-61306640D01*
X124377671Y-61952473D01*
X124420071Y-62015929D01*
X124671463Y-62183904D01*
X124893148Y-62228000D01*
X124893152Y-62228000D01*
X124968000Y-62242888D01*
X125042848Y-62228000D01*
X130124394Y-62228000D01*
X129995394Y-62357000D01*
X112828606Y-62357000D01*
X111379000Y-60907394D01*
X111379000Y-57054750D01*
X112284000Y-57054750D01*
X112284000Y-58895309D01*
X112380673Y-59128698D01*
X112559301Y-59307327D01*
X112792690Y-59404000D01*
X113633250Y-59404000D01*
X113792000Y-59245250D01*
X113792000Y-56896000D01*
X114046000Y-56896000D01*
X114046000Y-59245250D01*
X114204750Y-59404000D01*
X115045310Y-59404000D01*
X115278699Y-59307327D01*
X115457327Y-59128698D01*
X115554000Y-58895309D01*
X115554000Y-57054750D01*
X115395250Y-56896000D01*
X114046000Y-56896000D01*
X113792000Y-56896000D01*
X112442750Y-56896000D01*
X112284000Y-57054750D01*
X111379000Y-57054750D01*
X111379000Y-54642691D01*
X112284000Y-54642691D01*
X112284000Y-56483250D01*
X112442750Y-56642000D01*
X113792000Y-56642000D01*
X113792000Y-54292750D01*
X114046000Y-54292750D01*
X114046000Y-56642000D01*
X115395250Y-56642000D01*
X115554000Y-56483250D01*
X115554000Y-55149750D01*
X121310500Y-55149750D01*
X121310500Y-55790309D01*
X121407173Y-56023698D01*
X121585801Y-56202327D01*
X121819190Y-56299000D01*
X122459750Y-56299000D01*
X122618500Y-56140250D01*
X122618500Y-54991000D01*
X122872500Y-54991000D01*
X122872500Y-56140250D01*
X123031250Y-56299000D01*
X123671810Y-56299000D01*
X123905199Y-56202327D01*
X124083827Y-56023698D01*
X124180500Y-55790309D01*
X124180500Y-55149750D01*
X124021750Y-54991000D01*
X122872500Y-54991000D01*
X122618500Y-54991000D01*
X121469250Y-54991000D01*
X121310500Y-55149750D01*
X115554000Y-55149750D01*
X115554000Y-54642691D01*
X115457327Y-54409302D01*
X115278699Y-54230673D01*
X115045310Y-54134000D01*
X114204750Y-54134000D01*
X114046000Y-54292750D01*
X113792000Y-54292750D01*
X113633250Y-54134000D01*
X112792690Y-54134000D01*
X112559301Y-54230673D01*
X112380673Y-54409302D01*
X112284000Y-54642691D01*
X111379000Y-54642691D01*
X111379000Y-53392606D01*
X112320606Y-52451000D01*
X115796346Y-52451000D01*
X115899958Y-52971891D01*
G04 #@! TD*
M02*
