M48
;DRILL file {KiCad (5.0.0)} date 09/23/18 22:59:06
;FORMAT={-:-/ absolute / inch / decimal}
FMAT,2
INCH,TZ
T1C0.0157
T2C0.0236
T3C0.0276
T4C0.0315
T5C0.0354
T6C0.0394
T7C0.0433
T8C0.0630
T9C0.1000
%
G90
G05
M72
T1
X4.06Y-4.7
X4.1Y-2.6
X4.6Y-3.2
X4.7Y-4.76
X4.8Y-4.82
X5.2Y-4.
X5.2Y-4.1
X5.75Y-3.35
X5.775Y-5.2
X5.8Y-2.6
X5.85Y-4.6
X5.95Y-4.6
X6.Y-2.6
X6.05Y-4.6
X6.15Y-4.6
X6.25Y-4.6
X6.3532Y-4.6012
X6.45Y-4.6
X6.5Y-2.5
X6.55Y-4.6
X7.1Y-4.82
X7.24Y-3.16
X7.375Y-4.785
X7.595Y-4.805
X7.63Y-4.61
X7.64Y-5.76
T2
X4.76Y-5.4
X4.76Y-5.4591
X5.8309Y-5.725
X5.89Y-5.725
X5.8Y-2.75
X5.8Y-2.8091
X4.72Y-2.58
X4.7791Y-2.58
X5.84Y-5.475
X5.8991Y-5.475
T3
X4.56Y-5.4
X4.56Y-5.6
X5.4Y-5.35
X5.6Y-5.35
X5.4Y-5.45
X5.6Y-5.45
X5.464Y-2.0175
X5.4955Y-2.0864
X5.527Y-2.0175
X5.5585Y-2.0864
X5.59Y-2.0175
X4.6125Y-2.065
X4.6125Y-2.265
T4
X4.95Y-5.5
X5.1429Y-5.5
X6.Y-2.1
X6.Y-2.4
X6.1Y-2.1
X6.1Y-2.4
X6.2Y-2.1
X6.2Y-2.4
X6.3Y-2.1
X6.3Y-2.4
X6.4Y-2.1
X6.4Y-2.4
X6.5Y-2.1
X6.5Y-2.4
X6.6Y-2.1
X6.6Y-2.4
X5.2575Y-2.045
X5.2575Y-2.345
X5.95Y-2.75
X5.95Y-2.85
X5.95Y-2.95
X5.95Y-3.05
X5.95Y-3.15
X5.95Y-3.25
X5.95Y-3.35
X5.95Y-3.45
X5.95Y-3.55
X5.95Y-3.65
X5.95Y-3.75
X5.95Y-3.85
X5.95Y-3.95
X5.95Y-4.05
X6.55Y-2.75
X6.55Y-2.85
X6.55Y-2.95
X6.55Y-3.05
X6.55Y-3.15
X6.55Y-3.25
X6.55Y-3.35
X6.55Y-3.45
X6.55Y-3.55
X6.55Y-3.65
X6.55Y-3.75
X6.55Y-3.85
X6.55Y-3.95
X6.55Y-4.05
X5.4Y-5.575
X5.4984Y-5.575
X7.4884Y-5.2395
X7.4884Y-5.3395
X7.4884Y-5.4395
X7.4884Y-5.5395
X7.4884Y-5.6395
X7.4884Y-5.7395
X7.4884Y-5.8395
X7.7884Y-5.2395
X7.7884Y-5.3395
X7.7884Y-5.4395
X7.7884Y-5.5395
X7.7884Y-5.6395
X7.7884Y-5.7395
X7.7884Y-5.8395
X5.05Y-4.25
X5.05Y-4.55
X5.15Y-4.25
X5.15Y-4.55
X5.25Y-4.25
X5.25Y-4.55
X5.35Y-4.25
X5.35Y-4.55
X5.45Y-4.25
X5.45Y-4.55
X5.55Y-4.25
X5.55Y-4.55
X5.65Y-4.25
X5.65Y-4.55
X7.0504Y-5.2395
X7.0504Y-5.3395
X7.0504Y-5.4395
X7.0504Y-5.5395
X7.0504Y-5.6395
X7.0504Y-5.7395
X7.0504Y-5.8395
X7.3504Y-5.2395
X7.3504Y-5.3395
X7.3504Y-5.4395
X7.3504Y-5.5395
X7.3504Y-5.6395
X7.3504Y-5.7395
X7.3504Y-5.8395
X5.Y-4.9
X5.Y-5.2
X5.1Y-4.9
X5.1Y-5.2
X5.2Y-4.9
X5.2Y-5.2
X5.3Y-4.9
X5.3Y-5.2
X5.4Y-4.9
X5.4Y-5.2
X5.5Y-4.9
X5.5Y-5.2
X5.6Y-4.9
X5.6Y-5.2
X6.065Y-5.425
X6.065Y-5.725
X6.165Y-5.425
X6.165Y-5.725
X6.265Y-5.425
X6.265Y-5.725
X6.365Y-5.425
X6.365Y-5.725
X6.465Y-5.425
X6.465Y-5.725
X6.565Y-5.425
X6.565Y-5.725
X6.665Y-5.425
X6.665Y-5.725
X6.765Y-5.425
X6.765Y-5.725
X4.8325Y-2.0616
X4.8325Y-2.16
X5.Y-2.75
X5.Y-2.85
X5.Y-2.95
X5.Y-3.05
X5.Y-3.15
X5.Y-3.25
X5.Y-3.35
X5.Y-3.45
X5.Y-3.55
X5.Y-3.65
X5.Y-3.75
X5.Y-3.85
X5.Y-3.95
X5.Y-4.05
X5.6Y-2.75
X5.6Y-2.85
X5.6Y-2.95
X5.6Y-3.05
X5.6Y-3.15
X5.6Y-3.25
X5.6Y-3.35
X5.6Y-3.45
X5.6Y-3.55
X5.6Y-3.65
X5.6Y-3.75
X5.6Y-3.85
X5.6Y-3.95
X5.6Y-4.05
X4.15Y-4.9
X4.15Y-5.2
X4.25Y-4.9
X4.25Y-5.2
X4.35Y-4.9
X4.35Y-5.2
X4.45Y-4.9
X4.45Y-5.2
X4.55Y-4.9
X4.55Y-5.2
X4.65Y-4.9
X4.65Y-5.2
X4.75Y-4.9
X4.75Y-5.2
X4.6516Y-5.575
X4.75Y-5.575
X5.9Y-4.5
X5.9Y-5.1
X6.Y-4.5
X6.Y-5.1
X6.1Y-4.5
X6.1Y-5.1
X6.2Y-4.5
X6.2Y-5.1
X6.3Y-4.5
X6.3Y-5.1
X6.4Y-4.5
X6.4Y-5.1
X6.5Y-4.5
X6.5Y-5.1
X6.6Y-4.5
X6.6Y-5.1
X6.7Y-4.5
X6.7Y-5.1
X6.8Y-4.5
X6.8Y-5.1
X6.9Y-4.5
X6.9Y-5.1
X7.Y-4.5
X7.Y-5.1
X7.1Y-4.5
X7.1Y-5.1
X7.2Y-4.5
X7.2Y-5.1
X7.3Y-4.5
X7.3Y-5.1
X7.4Y-4.5
X7.4Y-5.1
X7.5Y-4.5
X7.5Y-5.1
X7.6Y-4.5
X7.6Y-5.1
X7.7Y-4.5
X7.7Y-5.1
X7.8Y-4.5
X7.8Y-5.1
X4.162Y-2.764
X4.162Y-2.864
X4.162Y-2.964
X4.162Y-3.064
X4.162Y-3.164
X4.162Y-3.264
X4.162Y-3.364
X4.162Y-3.464
X4.162Y-3.564
X4.162Y-3.664
X4.162Y-3.764
X4.162Y-3.864
X4.162Y-3.964
X4.162Y-4.064
X4.162Y-4.164
X4.162Y-4.264
X4.162Y-4.364
X4.162Y-4.464
X4.162Y-4.564
X4.162Y-4.664
X4.762Y-2.764
X4.762Y-2.864
X4.762Y-2.964
X4.762Y-3.064
X4.762Y-3.164
X4.762Y-3.264
X4.762Y-3.364
X4.762Y-3.464
X4.762Y-3.564
X4.762Y-3.664
X4.762Y-3.764
X4.762Y-3.864
X4.762Y-3.964
X4.762Y-4.064
X4.762Y-4.164
X4.762Y-4.264
X4.762Y-4.364
X4.762Y-4.464
X4.762Y-4.564
X4.762Y-4.664
T5
X7.Y-2.75
X7.Y-2.85
X7.Y-2.95
X7.Y-3.05
X7.Y-3.15
X7.Y-3.25
X7.Y-3.35
X7.Y-3.45
X7.Y-3.55
X7.Y-3.65
X7.Y-3.75
X7.Y-3.85
X7.Y-3.95
X7.Y-4.05
X7.6Y-2.75
X7.6Y-2.85
X7.6Y-2.95
X7.6Y-3.05
X7.6Y-3.15
X7.6Y-3.25
X7.6Y-3.35
X7.6Y-3.45
X7.6Y-3.55
X7.6Y-3.65
X7.6Y-3.75
X7.6Y-3.85
X7.6Y-3.95
X7.6Y-4.05
X4.755Y-2.355
X4.855Y-2.355
T7
X4.2041Y-5.4
X4.2041Y-5.5772
X4.46Y-5.4
X4.46Y-5.5772
X5.07Y-2.12
X5.07Y-2.22
X5.07Y-2.32
T8
X4.1307Y-2.235
T9
X7.3Y-2.25
X7.3Y-4.25
T3
X5.3833Y-2.0775G85X5.3833Y-2.0264
G05
X5.6707Y-2.0775G85X5.6707Y-2.0264
G05
T6
X4.2389Y-2.0578G85X4.1799Y-2.0578
G05
X4.2389Y-2.4122G85X4.1799Y-2.4122
G05
X4.2488Y-2.2094G85X4.2488Y-2.2606
G05
X4.485Y-2.1956G85X4.485Y-2.2744
G05
T0
M30
